<?xml version="1.0" standalone="no"?>
<!DOCTYPE svg PUBLIC "-//W3C//DTD SVG 1.1//EN" "http://www.w3.org/Graphics/SVG/1.1/DTD/svg11.dtd" >
<svg xmlns="http://www.w3.org/2000/svg" xmlns:xlink="http://www.w3.org/1999/xlink" version="1.1">
<metadata>
Created by FontForge 20141024 at Thu Mar 10 08:40:59 2016
 By Jimmy Warting
Copyright (c) 2012 by . All rights reserved.
</metadata>
<defs>
<font id="ALSSchlangesans-Black" horiz-adv-x="508" >
  <font-face 
    font-family="ALSSchlangesans-Black"
    font-weight="400"
    font-stretch="normal"
    units-per-em="1000"
    panose-1="2 0 5 6 4 0 0 2 0 4"
    ascent="769"
    descent="-231"
    x-height="483"
    cap-height="690"
    bbox="-171.885 -272.635 1224 908.07"
    underline-thickness="0"
    underline-position="0"
    unicode-range="U+0020-FB02"
  />
<missing-glyph horiz-adv-x="230" 
 />
    <glyph glyph-name="ff" unicode="ff" horiz-adv-x="619" 
d="M49 -125l0.000976562 598c0 72.667 15 127 45 163c35.333 42.667 90 64 164 64c51.333 0 95.666 -9.33301 132.999 -28c27.333 18.667 62.333 28 105 28c51.333 0 90.666 -7.66699 117.999 -23c36 -20 48.667 -49.667 38 -89c-10.667 -38 -40.667 -50 -90 -36
c-21.333 5.33301 -38.666 8 -51.999 8c-21.333 0 -32 -12 -32 -36v-34h43c28 0 48.333 -5 61 -15s19 -26.667 19 -50c0 -43.333 -26.667 -65 -80 -65h-43v-485c0 -25.333 -7.16699 -45.833 -21.5 -61.5s-34.833 -23.5 -61.5 -23.5s-47.167 7.83301 -61.5 23.5
s-21.5 36.167 -21.5 61.5v485h-97v-485c0 -25.333 -7.16699 -45.833 -21.5 -61.5s-34.833 -23.5 -61.5 -23.5s-47.167 7.83301 -61.5 23.5s-21.5 36.167 -21.5 61.5zM312.001 490c0 24.667 2.66699 49.333 8 74c-18 4 -36.333 6 -55 6c-33.333 0 -50 -15 -50 -45v-35h97z
" />
    <glyph glyph-name="fi" unicode="fi" horiz-adv-x="535" 
d="M316 85l0.000976562 265.001h-101v-475c0 -25.333 -7.16699 -45.833 -21.5 -61.5s-34.833 -23.5 -61.5 -23.5s-47.167 7.83301 -61.5 23.5s-21.5 36.167 -21.5 61.5v601c0 70 15.333 123.333 46 160c35.333 42.667 91 64 167 64c62.667 0 110.667 -9.33301 144 -28
c36.667 -20 50 -48.333 40 -85c-9.33301 -36.667 -40 -50.334 -92 -41.001c-46.667 9.33301 -73.334 14 -80.001 14c-39.333 0 -59 -15.667 -59 -47v-23h186c26.667 0 47.5 -8 62.5 -24s22.5 -36 22.5 -60v-321c0 -24.667 -7.33301 -45 -22 -61s-35.667 -24 -63 -24
c-26.667 0 -47.5 8 -62.5 24s-22.5 36.333 -22.5 61z" />
    <glyph glyph-name="fl" unicode="fl" horiz-adv-x="535" 
d="M316 85l0.000976562 478c-14.667 3.33301 -29.334 5 -44.001 5c-38 0 -57 -16.333 -57 -49v-30c22 -2 37.833 -8.5 47.5 -19.5s14.5 -27.5 14.5 -49.5c0 -42.667 -20.667 -66 -62 -70v-475c0 -25.333 -7.16699 -45.833 -21.5 -61.5s-34.833 -23.5 -61.5 -23.5
s-47.167 7.83301 -61.5 23.5s-21.5 36.167 -21.5 61.5v601c0 69.333 15.333 122.333 46 159c36 43.333 90.333 65 163 65c69.333 0 124 -9.33301 164 -28c42.667 -20 64 -53.667 64 -101v-486c0 -24.667 -7.33301 -45 -22 -61s-35.667 -24 -63 -24
c-26.667 0 -47.5 8 -62.5 24s-22.5 36.333 -22.5 61z" />
    <glyph glyph-name=".notdef" horiz-adv-x="230" 
 />
    <glyph glyph-name="space" unicode=" " horiz-adv-x="230" 
 />
    <glyph glyph-name="exclam" unicode="!" horiz-adv-x="277" 
d="M44 84c0 26 8 46.666 24 61.999s39.333 23 70 23c30 0 53.333 -7.66699 70 -23s25 -36 25 -62s-8.33301 -46.5 -25 -61.5s-40 -22.5 -70 -22.5c-30.667 0 -54 7.33301 -70 22s-24 35.334 -24 62.001zM53 305.999v300c0 24 7.5 44 22.5 60s35.833 24 62.5 24
s47.5 -8 62.5 -24s22.5 -36 22.5 -60v-300c0 -24.667 -7.33301 -45 -22 -61s-35.667 -24 -63 -24c-26.667 0 -47.5 8 -62.5 24s-22.5 36.333 -22.5 61z" />
    <glyph glyph-name="quotedbl" unicode="&#x22;" horiz-adv-x="400" 
d="M49 517v114.002c0 20 5.83301 36.5 17.5 49.5s28.5 19.5 50.5 19.5s38.667 -6.33301 50 -19s17 -29.334 17 -50.001v-114c0 -20.667 -5.66699 -37.334 -17 -50.001s-28 -19 -50 -19s-38.833 6.5 -50.5 19.5s-17.5 29.5 -17.5 49.5zM216 517.002v114.002
c0 20 5.83301 36.5 17.5 49.5s28.5 19.5 50.5 19.5s38.667 -6.33301 50 -19s17 -29.334 17 -50.001v-114c0 -20.667 -5.66699 -37.334 -17 -50.001s-28 -19 -50 -19s-38.833 6.5 -50.5 19.5s-17.5 29.5 -17.5 49.5z" />
    <glyph glyph-name="numbersign" unicode="#" horiz-adv-x="653" 
d="M103 291l26.998 0.00195312l33 94h-10c-50 0 -75 20 -75 60s25 60 75 60h52l53 150c14 38.667 40 52.334 78 41.001c18 -5.33301 29.5 -15.833 34.5 -31.5s4.16699 -31.167 -2.5 -46.5l-40 -113h85l53 150c14 38.667 40 52.334 78 41.001
c18 -5.33301 29.5 -15.833 34.5 -31.5s4.16699 -31.167 -2.5 -46.5l-40 -113h14c50 0 75 -20 75 -60s-25 -60 -75 -60h-56l-33 -94h29c50 0 75 -20 75 -60s-25 -60 -75 -60h-71l-46 -133c-14 -39.333 -39.667 -54 -77 -44c-18.667 5.33301 -30.667 16.166 -36 32.499
s-4.66602 32.166 2.00098 47.499l34 97h-85l-46 -133c-14 -39.333 -39.667 -54 -77 -44c-18.667 5.33301 -30.667 16.166 -36 32.499s-4.66602 32.166 2.00098 47.499l34 97c-40 4 -60 24 -60 60c0 40 25 60 75 60zM285.998 385.002l-33 -94h85l33 94h-85z" />
    <glyph glyph-name="dollar" unicode="$" horiz-adv-x="554" 
d="M297 555c-42 0 -63.001 -15.002 -63.001 -45.002c0 -17.333 10.167 -33 30.5 -47s44.833 -27.167 73.5 -39.5s57.334 -26.5 86.001 -42.5s53.167 -39.167 73.5 -69.5s30.5 -66.5 30.5 -108.5c0 -42.667 -12.5 -83 -37.5 -121s-63.167 -64.333 -114.5 -79v-24
c0 -24 -6.66699 -44.167 -20 -60.5s-33.333 -24.5 -60 -24.5s-46.667 8.16699 -60 24.5s-20 36.5 -20 60.5v15c-37.333 4.66699 -69.666 14.334 -96.999 29.001c-28.667 14.667 -47.667 33.167 -57 55.5s-8.33301 44.5 3 66.5c20 38.667 55 46 105 22
c44.667 -21.333 83.667 -32 117 -32c22 0 39.333 4.83301 52 14.5s19 23.5 19 41.5c0 20.667 -10.167 38.834 -30.5 54.501s-44.833 29.834 -73.5 42.501s-57.334 27.167 -86.001 43.5s-53.167 39.5 -73.5 69.5s-30.5 65.667 -30.5 107c0 44.667 12.5 83.667 37.5 117
s63.167 55.333 114.5 66v20c0 24 6.66699 44.167 20 60.5s33.333 24.5 60 24.5s46.667 -8.16699 60 -24.5s20 -36.5 20 -60.5v-18c33.333 -5.33301 60.666 -14.333 81.999 -27c44.667 -26.667 58.334 -60.334 41.001 -101.001c-16.667 -39.333 -55 -48.333 -115 -27
c-32 11.333 -61 17 -87 17z" />
    <glyph glyph-name="percent" unicode="%" horiz-adv-x="870" 
d="M27 505c0 60 15 107.499 45 142.499s74 52.5 132 52.5s102 -17.5 132 -52.5s45 -82.5 45 -142.5c0 -59.333 -15 -106.666 -45 -141.999s-74 -53 -132 -53s-102 17.5 -132 52.5s-45 82.5 -45 142.5zM241 504.999c0 50 -12.333 75 -37 75s-37 -25 -37 -75
s12.333 -75 37 -75s37 25 37 75zM490 184.999c0 60 15 107.499 45 142.499s74 52.5 132 52.5s102 -17.5 132 -52.5s45 -82.5 45 -142.5c0 -59.333 -15 -106.666 -45 -141.999s-74 -53 -132 -53s-102 17.5 -132 52.5s-45 82.5 -45 142.5zM704 184.998c0 50 -12.333 75 -37 75
s-37 -25 -37 -75s12.333 -75 37 -75s37 25 37 75zM268 46.998l228.001 649.002c14 39.333 40 53 78 41c17.333 -5.33301 28.666 -16 33.999 -32s4.66602 -31.667 -2.00098 -47l-227 -647c-15.333 -43.333 -41.333 -59 -78 -47c-18 5.33301 -29.667 16.666 -35 33.999
s-4.66602 33.666 2.00098 48.999z" />
    <glyph glyph-name="ampersand" unicode="&#x26;" horiz-adv-x="646" 
d="M479 38l-18.999 14c-46 -41.333 -108.667 -62 -188 -62c-70 0 -127.167 16 -171.5 48s-66.5 80.333 -66.5 145c0 40 9.83301 75 29.5 105s52.5 60 98.5 90c-38.667 49.333 -58 100 -58 152c0 53.333 17.667 95 53 125s84 45 146 45c59.333 0 103.833 -14 133.5 -42
s44.5 -62.333 44.5 -103c0 -36 -10.5 -67.833 -31.5 -95.5s-52.833 -56.167 -95.5 -85.5c19.333 -28.667 48.666 -63.667 87.999 -105l19 43c9.33301 27.333 20.833 45.833 34.5 55.5s31.167 12.5 52.5 8.5c38.667 -8 55.334 -35.667 50.001 -83
c-5.33301 -40 -20.333 -82.667 -45 -128l39 -28c22.667 -18 35.667 -37.333 39 -58s-1.33398 -37.667 -14.001 -51c-30 -40 -76 -36.667 -138 10zM286.001 130c23.333 0 45.667 6.33301 67 19c-31.333 25.333 -69.333 67 -114 125c-23.333 -24 -35 -49.333 -35 -76
c0 -20.667 7.33301 -37.167 22 -49.5s34.667 -18.5 60 -18.5zM274.002 537c0 -20 7.33301 -42.333 22 -67c36.667 28.667 55 54.667 55 78c0 21.333 -11.667 32 -35 32c-12 0 -22 -3.66699 -30 -11s-12 -18 -12 -32z" />
    <glyph glyph-name="quotesingle" unicode="'" horiz-adv-x="233" 
d="M49 517v114.002c0 20 5.83301 36.5 17.5 49.5s28.5 19.5 50.5 19.5s38.667 -6.33301 50 -19s17 -29.334 17 -50.001v-114c0 -20.667 -5.66699 -37.334 -17 -50.001s-28 -19 -50 -19s-38.833 6.5 -50.5 19.5s-17.5 29.5 -17.5 49.5z" />
    <glyph glyph-name="parenleft" unicode="(" horiz-adv-x="335" 
d="M39 345c0 157.333 45 284.337 135 381.004c23.333 25.333 47 39.666 71 42.999s44.333 -3 61 -19c29.333 -26.667 26.666 -66.334 -8.00098 -119.001c-29.333 -44 -51.5 -88.167 -66.5 -132.5s-22.5 -95.5 -22.5 -153.5s7.5 -108.833 22.5 -152.5
s37.167 -87.834 66.5 -132.501c34.667 -52.667 37.334 -92.334 8.00098 -119.001c-16.667 -16 -37 -22.333 -61 -19s-47.667 17.666 -71 42.999c-90 96.667 -135 223.334 -135 380.001z" />
    <glyph glyph-name="parenright" unicode=")" horiz-adv-x="335" 
d="M342 345c0 -156.667 -45 -283.338 -135 -380.005c-23.333 -25.333 -47 -39.666 -71 -42.999s-44.333 3 -61 19c-29.333 26.667 -26.666 66.334 8.00098 119.001c29.333 44.667 51.5 88.834 66.5 132.501s22.5 94.5 22.5 152.5s-7.5 109.167 -22.5 153.5
s-37.167 88.5 -66.5 132.5c-34.667 52.667 -37.334 92.334 -8.00098 119.001c16.667 16 37 22.333 61 19s47.667 -17.666 71 -42.999c90 -96.667 135 -223.667 135 -381z" />
    <glyph glyph-name="asterisk" unicode="*" horiz-adv-x="384" 
d="M335 540l12 -7c22.667 -14 26.667 -37.667 12 -71c-17.333 -38 -41.666 -48 -72.999 -30l-9 5v-11c0 -30.667 -20.667 -46 -62 -46s-62 15.333 -62 46v11l-9 -5c-31.333 -18 -55.666 -8 -72.999 30c-15.333 34 -11.333 57.667 12 71l12 7l-12 7
c-22.667 14 -26.667 37.667 -12 71c17.333 38 41.666 48 72.999 30l9 -5v11c0 30.667 20.667 46 62 46s62 -15.333 62 -46v-11l9 5c31.333 18 55.666 8 72.999 -30c15.333 -34 11.333 -57.667 -12 -71z" />
    <glyph glyph-name="plus" unicode="+" horiz-adv-x="533" 
d="M189 184v62h-61c-52.667 0 -79 23.333 -79 70c0 22.667 7.16699 40 21.5 52s33.5 18 57.5 18h61v62c0 24.667 6.16699 45 18.5 61s31.833 24 58.5 24s46.167 -8 58.5 -24s18.5 -36.333 18.5 -61v-62h62c24.667 0 44 -6 58 -18s21 -29.333 21 -52
c0 -46.667 -26.333 -70 -79 -70h-62v-62c0 -24.667 -6.16699 -45 -18.5 -61s-31.833 -24 -58.5 -24s-46.167 8 -58.5 24s-18.5 36.333 -18.5 61z" />
    <glyph glyph-name="comma" unicode="," horiz-adv-x="258" 
d="M243 74l-75 -141.999c-12.667 -24.667 -28.5 -40.167 -47.5 -46.5s-39.167 -2.83301 -60.5 10.5c-36 21.333 -40.333 56.666 -13 105.999l70 129c12 24 27.5 39.667 46.5 47s38.833 5 59.5 -7c18 -10 28.333 -25 31 -45s-1 -37.333 -11 -52z" />
    <glyph glyph-name="hyphen" unicode="-" horiz-adv-x="385" 
d="M306 190h-226.999c-24 0 -43.5 6.5 -58.5 19.5s-22.5 31.5 -22.5 55.5c0 22.667 7.5 40.834 22.5 54.501s34.5 20.5 58.5 20.5h227c24 0 43.5 -6.83301 58.5 -20.5s22.5 -31.834 22.5 -54.501c0 -24 -7.33301 -42.5 -22 -55.5s-34.334 -19.5 -59.001 -19.5z" />
    <glyph glyph-name="period" unicode="." horiz-adv-x="278" 
d="M44 94c0 26.667 8.33301 49.167 25 67.5s40 27.5 70 27.5c29.333 0 52.5 -9.16699 69.5 -27.5s25.5 -40.833 25.5 -67.5c0 -27.333 -8.5 -49.833 -25.5 -67.5s-40.167 -26.5 -69.5 -26.5c-30 -0 -53.333 8.83301 -70 26.5s-25 40.167 -25 67.5z" />
    <glyph glyph-name="slash" unicode="/" horiz-adv-x="345" 
d="M-15 -12l266.001 757c16.667 47.333 47.667 64 93 50c20 -6 32.667 -18.667 38 -38s4 -38 -4 -56l-265 -758c-7.33301 -20 -19 -34.833 -35 -44.5s-35 -10.834 -57 -3.50098c-20.667 6.66699 -33.834 19.334 -39.501 38.001s-4.5 37 3.5 55z" />
    <glyph glyph-name="zero" unicode="0" horiz-adv-x="554" 
d="M21 345c0 110 21.667 196.667 65 260s107.333 95 192 95c84 0 147.5 -31.667 190.5 -95s64.5 -150 64.5 -260s-21.5 -196.667 -64.5 -260s-106.5 -95 -190.5 -95c-84.667 0 -148.667 31.667 -192 95s-65 150 -65 260zM181 345c0 -143.333 32.333 -215 97 -215
c63.333 0 95 71.667 95 215s-31.667 215 -95 215c-64.667 0 -97 -71.667 -97 -215z" />
    <glyph glyph-name="one" unicode="1" horiz-adv-x="554" 
d="M245 464l-45 -41.002c-43.333 -38 -79.333 -44.667 -108 -20c-16 14.667 -23.167 31.834 -21.5 51.501s11.5 38.834 29.5 57.501l157 155c22 22 45.333 33 70 33c52 0 78 -28 78 -84v-531c0 -25.333 -6.66699 -45.833 -20 -61.5s-33.333 -23.5 -60 -23.5
s-46.667 7.83301 -60 23.5s-20 36.167 -20 61.5v379z" />
    <glyph glyph-name="two" unicode="2" horiz-adv-x="554" 
d="M161 524c-48.667 -20.667 -82.334 -14.332 -101.001 19.001c-9.33301 16 -10.833 33.833 -4.5 53.5s19.833 36.834 40.5 51.501c50.667 34.667 111.667 52 183 52c70.667 0 125 -17.5 163 -52.5s57 -80.5 57 -136.5c0 -38.667 -8.66699 -73.834 -26 -105.501
s-39 -58.167 -65 -79.5s-52.5 -41.333 -79.5 -60s-52 -38.834 -75 -60.501s-38.5 -43.5 -46.5 -65.5h226c53.333 0 80 -23.333 80 -70c0 -22.667 -7.33301 -40 -22 -52s-34 -18 -58 -18h-303c-29.333 0 -51.166 8.16699 -65.499 24.5s-21.5 37.5 -21.5 63.5
c0 44.667 10.167 85.167 30.5 121.5s45 66.166 74 89.499s58 44.833 87 64.5s53.667 40.334 74 62.001s30.5 44.167 30.5 67.5c0 38 -24.333 57 -73 57c-29.333 0 -64.333 -8.66699 -105 -26z" />
    <glyph glyph-name="three" unicode="3" horiz-adv-x="574" 
d="M232 288c-28.667 0 -50.167 6.66992 -64.5 20.0029s-21.5 31.666 -21.5 54.999c0 24.667 9 45.667 27 63l134 124h-138c-54.667 0 -82 23.333 -82 70c0 22 7.5 39.167 22.5 51.5s34.833 18.5 59.5 18.5h258c39.333 0 63.666 -15 72.999 -45s1.66602 -57.333 -23.001 -82
l-161 -152c67.333 -6 118.666 -26.667 153.999 -62s53 -79 53 -131c0 -68.667 -22.667 -123.834 -68 -165.501s-107.666 -62.5 -186.999 -62.5c-73.333 0 -131 14 -173 42c-19.333 12.667 -32.166 28.667 -38.499 48s-4.5 38.666 5.5 57.999
c19.333 34.667 54.666 40.667 105.999 18c38.667 -17.333 72.334 -26 101.001 -26c26.667 0 47.334 7 62.001 21s22 33.667 22 59c0 52 -40.333 78 -121 78z" />
    <glyph glyph-name="four" unicode="4" horiz-adv-x="554" 
d="M554 255c0 -20.667 -5.16699 -37 -15.5 -49s-24.833 -18 -43.5 -18h-22v-107c0 -24.667 -6.33301 -44.334 -19 -59.001s-32 -22 -58 -22s-45.5 7.33301 -58.5 22s-19.5 34.334 -19.5 59.001v107h-211c-38 0 -62.333 15.667 -73 47s-4.66699 60.666 18 87.999l272 334
c23.333 28.667 49 43 77 43c48 0 72 -28.333 72 -85v-297h22c16.667 0 30.667 -5.66699 42 -17s17 -26.666 17 -45.999zM197 318h128v144z" />
    <glyph glyph-name="five" unicode="5" horiz-adv-x="554" 
d="M362 230c0 28.667 -8.49902 50.168 -25.499 64.501s-37.833 21.5 -62.5 21.5c-14 0 -32 -2 -54 -6s-38.333 -6 -49 -6c-46 0 -67.667 26 -65 78l14 227c1.33301 23.333 8.66602 42.666 21.999 57.999s33 23 59 23h221c23.333 0 42.666 -7.5 57.999 -22.5
s23 -34.167 23 -57.5c0 -24.667 -7.5 -44.167 -22.5 -58.5s-34.5 -21.5 -58.5 -21.5h-174l-3 -78c18.667 2.66699 43 4 73 4c33.333 0 63 -5.16699 89 -15.5s46.667 -23.5 62 -39.5s28 -34.5 38 -55.5s16.667 -40.833 20 -59.5s5 -37.334 5 -56.001
c0 -70 -22.5 -127.5 -67.5 -172.5s-108.167 -67.5 -189.5 -67.5c-76 0 -132.667 13.333 -170 40c-41.333 30 -52 65 -32 105c16.667 32.667 49.334 38.334 98.001 17.001c34 -14.667 66 -22 96 -22c63.333 0 95 33.333 95 100z" />
    <glyph glyph-name="six" unicode="6" horiz-adv-x="554" 
d="M190 247c0 -37.333 7.83008 -66.167 23.4971 -86.5s36.834 -30.5 63.501 -30.5c26 0 47 9.5 63 28.5s24 43.5 24 73.5c0 27.333 -7.66699 49.333 -23 66s-35.666 25 -60.999 25s-46.666 -7.33301 -63.999 -22s-26 -32.667 -26 -54zM378.997 550.999c-24 6 -48 9 -72 9
c-40.667 0 -71 -14.333 -91 -43c-18 -25.333 -28.667 -58 -32 -98c14 12.667 33.5 23 58.5 31s51.5 12 79.5 12c61.333 0 110.333 -20.5 147 -61.5s55 -95.167 55 -162.5c0 -68 -21.667 -126.333 -65 -175s-103.333 -73 -180 -73c-77.333 0 -138.166 26.333 -182.499 79
s-66.5 129 -66.5 229c0 135.333 25.667 236 77 302c51.333 66.667 120.666 100 207.999 100c50 0 91.667 -8.33301 125 -25c39.333 -20 53 -49.333 41 -88c-4 -14 -9.83301 -24.5 -17.5 -31.5s-17 -10.833 -28 -11.5s-20 -0.5 -27 0.5s-16.833 3.16699 -29.5 6.5z" />
    <glyph glyph-name="seven" unicode="7" horiz-adv-x="554" 
d="M502 564l-221 -493.999c-25.333 -60.667 -62.666 -81.334 -111.999 -62.001c-12.667 4.66699 -22.334 11.667 -29.001 21s-10.667 19.666 -12 30.999s-1 22.5 1 33.5s5 21.833 9 32.5l187 404h-205c-24 0 -43.667 7.16699 -59 21.5s-23 33.833 -23 58.5
c0 22.667 7.83301 41.667 23.5 57s35.167 23 58.5 23h311c37.333 0 62.5 -11.667 75.5 -35s11.5 -53.666 -4.5 -90.999z" />
    <glyph glyph-name="eight" unicode="8" horiz-adv-x="554" 
d="M48 517c0 55.333 20.833 99.665 62.5 132.998s96.834 50 165.501 50c69.333 0 124.666 -15.667 165.999 -47s62 -74.666 62 -129.999c0 -29.333 -8.33301 -57.833 -25 -85.5s-38.667 -50.5 -66 -68.5c42 -26 71.833 -52.5 89.5 -79.5s26.5 -58.833 26.5 -95.5
c0 -60 -22.5 -109 -67.5 -147s-105.167 -57 -180.5 -57s-137 16.667 -185 50s-72 82.333 -72 147c0 38.667 9 72 27 100s47 55 87 81c-60 34.667 -90 84.334 -90 149.001zM174 200.999c0 -21.333 8.66895 -38.5 26.002 -51.5s42.333 -19.5 75 -19.5
c30 0 53.167 5.83301 69.5 17.5s24.5 27.167 24.5 46.5c0 9.33301 -3.33301 18.833 -10 28.5s-13.834 17.667 -21.501 24s-19 13.333 -34 21l-34 17c-7.66699 3.66699 -18.834 8.5 -33.501 14.5c-41.333 -32 -62 -64.667 -62 -98zM208.002 510.999
c0 -16.667 9.66602 -32.5 28.999 -47.5s43.333 -27.833 72 -38.5c30 32.667 45 59.667 45 81c0 16 -7.16699 29 -21.5 39s-33.166 15 -56.499 15c-20.667 0 -37.167 -4.33301 -49.5 -13s-18.5 -20.667 -18.5 -36z" />
    <glyph glyph-name="nine" unicode="9" horiz-adv-x="554" 
d="M362 443c0 37.333 -7.83008 66.167 -23.4971 86.5s-36.834 30.5 -63.501 30.5c-26 0 -47 -9.5 -63 -28.5s-24 -43.5 -24 -73.5c0 -27.333 7.66699 -49.333 23 -66s35.666 -25 60.999 -25s46.666 7.33301 63.999 22s26 32.667 26 54zM173.003 139.001c24 -6 48 -9 72 -9
c40.667 0 71 14.333 91 43c18 25.333 28.667 58 32 98c-14 -12.667 -33.5 -23 -58.5 -31s-51.5 -12 -79.5 -12c-61.333 0 -110.333 20.5 -147 61.5s-55 95.167 -55 162.5c0 68 21.667 126.333 65 175s103.333 73 180 73c77.333 0 138.166 -26.333 182.499 -79
s66.5 -129 66.5 -229c0 -135.333 -25.667 -236 -77 -302c-51.333 -66.667 -120.666 -100 -207.999 -100c-50 0 -91.667 8.33301 -125 25c-39.333 20 -53 49.333 -41 88c4 14 9.83301 24.5 17.5 31.5s17 10.833 28 11.5s20 0.5 27 -0.5s16.833 -3.16699 29.5 -6.5z" />
    <glyph glyph-name="colon" unicode=":" horiz-adv-x="278" 
d="M44 84c0 26.667 8.33301 49.167 25 67.5s40 27.5 70 27.5c29.333 0 52.5 -9.16699 69.5 -27.5s25.5 -40.833 25.5 -67.5c0 -27.333 -8.5 -49.833 -25.5 -67.5s-40.167 -26.5 -69.5 -26.5c-30 0 -53.333 8.83301 -70 26.5s-25 40.167 -25 67.5zM44 407
c0 26.667 8.33301 49.167 25 67.5s40 27.5 70 27.5c29.333 0 52.5 -9.16699 69.5 -27.5s25.5 -40.833 25.5 -67.5c0 -27.333 -8.5 -49.833 -25.5 -67.5s-40.167 -26.5 -69.5 -26.5c-30 0 -53.333 8.83301 -70 26.5s-25 40.167 -25 67.5z" />
    <glyph glyph-name="semicolon" unicode=";" horiz-adv-x="280" 
d="M168 -68l75 141.999c10 14.667 13.667 32 11 52s-13 35 -31 45c-20.667 12 -40.5 14.333 -59.5 7s-34.5 -23 -46.5 -47l-70 -129c-27.333 -49.333 -23 -84.666 13 -105.999c21.333 -13.333 41.5 -16.833 60.5 -10.5s34.833 21.833 47.5 46.5zM87 406.999
c0 26.667 8.33301 49.167 25 67.5s40 27.5 70 27.5c29.333 0 52.5 -9.16699 69.5 -27.5s25.5 -40.833 25.5 -67.5c0 -27.333 -8.5 -49.833 -25.5 -67.5s-40.167 -26.5 -69.5 -26.5c-30 0 -53.333 8.83301 -70 26.5s-25 40.167 -25 67.5z" />
    <glyph glyph-name="less" unicode="&#x3c;" horiz-adv-x="533" 
d="M127 391l192.001 141.003c19.333 14 39.666 21 60.999 21s38 -10 50 -30c22.667 -37.333 9 -74 -41 -110l-118 -85l134 -98c20 -14.667 32.5 -31.834 37.5 -51.501s-0.5 -40.834 -16.5 -63.501c-10 -12.667 -22.333 -20.667 -37 -24s-28.167 -3 -40.5 1
s-23.833 10 -34.5 18l-186 142c-24 18.667 -36.167 42.167 -36.5 70.5s11.5 51.166 35.5 68.499z" />
    <glyph glyph-name="equal" unicode="=" horiz-adv-x="533" 
d="M405 308h-277c-52.667 0 -79 23.333 -79 70c0 22.667 7.16699 40 21.5 52s33.5 18 57.5 18h277c24.667 0 44 -6 58 -18s21 -29.333 21 -52c0 -46.667 -26.333 -70 -79 -70zM405 119h-277c-52.667 0 -79 23.333 -79 70c0 22.667 7.16699 40 21.5 52s33.5 18 57.5 18h277
c24.667 0 44 -6 58 -18s21 -29.333 21 -52c0 -46.667 -26.333 -70 -79 -70z" />
    <glyph glyph-name="greater" unicode="&#x3e;" horiz-adv-x="533" 
d="M429 247l-192.001 -141.003c-19.333 -14 -39.666 -21 -60.999 -21s-38 10 -50 30c-22.667 37.333 -9 74 41 110l118 85l-134 98c-20 14.667 -32.5 31.834 -37.5 51.501s0.5 40.834 16.5 63.501c10 12.667 22.333 20.667 37 24s28.167 3 40.5 -1s23.833 -10 34.5 -18
l186 -142c24 -18.667 36.167 -42.167 36.5 -70.5s-11.5 -51.166 -35.5 -68.499z" />
    <glyph glyph-name="question" unicode="?" horiz-adv-x="419" 
d="M222 700c64 0 111.833 -14.833 143.5 -44.5s47.5 -65.167 47.5 -106.5c0 -31.333 -7.16699 -58 -21.5 -80s-36.833 -46 -67.5 -72c-39.333 -34 -59 -68.333 -59 -103c0 -48.667 -24.667 -73 -74 -73c-47.333 0 -71 25 -71 75c0 51.333 19.667 97 59 137
c22.667 23.333 38.167 41.333 46.5 54s12.5 25.667 12.5 39c0 22.667 -14.667 34 -44 34c-19.333 0 -43.666 -7 -72.999 -21c-18.667 -9.33301 -36.334 -12.166 -53.001 -8.49902s-29.334 13.5 -38.001 29.5c-8.66699 12.667 -10.167 29.167 -4.5 49.5
s19.5 37.166 41.5 50.499c42.667 26.667 94.334 40 155.001 40zM100 84c0 26 8.16699 46.666 24.5 61.999s39.5 23 69.5 23s53.333 -7.66699 70 -23s25 -36 25 -62s-8.33301 -46.5 -25 -61.5s-40 -22.5 -70 -22.5c-30.667 0 -54 7.33301 -70 22s-24 35.334 -24 62.001z" />
    <glyph glyph-name="at" unicode="@" horiz-adv-x="951" 
d="M676 406l0.00488281 -275.999h1h1h1h1h1h1h1h1h1h1h1h9c51.333 0 77 54.667 77 164c0 87.333 -24.333 155.166 -73 203.499s-118.667 72.5 -210 72.5c-98 0 -174.5 -27.667 -229.5 -83s-82.5 -138.666 -82.5 -249.999c0 -106 27.5 -185.333 82.5 -238
s134.167 -79.334 237.5 -80.001c31.333 0 66.333 4 105 12c45.333 9.33301 72.666 -1.33398 81.999 -32.001c12 -38 -6 -67 -54 -87c-35.333 -14.667 -79.333 -22 -132 -22c-146 0 -259.333 41.167 -340 123.5s-121 190.166 -121 323.499c0 138 41.333 249.667 124 335
s193.334 128 332.001 128c67.333 0 128 -10.667 182 -32s98 -50.666 132 -87.999s60 -80.333 78 -129s27 -101 27 -157c0 -87.333 -20.333 -158.166 -61 -212.499s-104.334 -81.5 -191.001 -81.5h-50c-18.667 -0 -36.834 4.83301 -54.501 14.5s-29.834 22.167 -36.501 37.5
c-26.667 -41.333 -64.334 -62 -113.001 -62s-88.167 21.333 -118.5 64s-45.5 102 -45.5 178c0 85.333 17.5 151.333 52.5 198s82.833 70 143.5 70c49.333 0 88.666 -9 117.999 -27c14.667 11.333 31.667 17 51 17c45.333 0 68 -28 68 -84zM456.005 120.001
c45.333 0 68.666 47 69.999 141v103c-17.333 7.33301 -36.666 11 -57.999 11c-46.667 0 -70 -50 -70 -150c0 -34 5.16699 -60 15.5 -78s24.5 -27 42.5 -27z" />
    <glyph glyph-name="A" unicode="A" horiz-adv-x="619" 
d="M457 69l-38.001 101h-221l-31 -89c-10 -30 -25 -52.667 -45 -68s-45.333 -17.333 -76 -6c-22.667 8 -36 23.833 -40 47.5s-0.333008 47.834 11 72.501l210 508c17.333 43.333 46.666 65 87.999 65c40 0 68.333 -19.333 85 -58l216 -512
c10.667 -21.333 12.834 -44.5 6.50098 -69.5s-21.5 -42.5 -45.5 -52.5c-27.333 -10.667 -51.666 -10.334 -72.999 0.999023s-37 31.333 -47 60zM306.999 470l-64 -166h129z" />
    <glyph glyph-name="B" unicode="B" horiz-adv-x="647" 
d="M64 100l0.000976562 488.998c0 54 28 85.333 84 94c54.667 8 110.667 12 168 12c80.667 0 145.5 -15.167 194.5 -45.5s73.5 -77.166 73.5 -140.499c0 -29.333 -7.16699 -56 -21.5 -80s-33.5 -42.333 -57.5 -55c36 -13.333 63 -34.666 81 -63.999s27 -62 27 -98
c0 -144.667 -97 -217 -291 -217c-68.667 0 -127.334 4 -176.001 12c-54.667 9.33301 -82 40.333 -82 93zM329.001 284.998h-95v-141c21.333 -2.66699 52.333 -4 93 -4c67.333 0 101 24.333 101 73c0 48 -33 72 -99 72zM311.001 549.998c-22 0 -47.667 -1.33301 -77 -4v-131
h83c26.667 0 47 6 61 18s21 28.333 21 49c0 45.333 -29.333 68 -88 68z" />
    <glyph glyph-name="C" unicode="C" horiz-adv-x="625" 
d="M361 540c-42.667 0 -76.167 -17.335 -100.5 -52.002s-36.5 -83 -36.5 -145c0 -62.667 13.5 -110.5 40.5 -143.5s60.833 -49.5 101.5 -49.5c14 0 28.333 2 43 6s25.834 7.83301 33.501 11.5s20.5 10.167 38.5 19.5c46 23.333 81 20 105 -10
c13.333 -15.333 17.166 -35.666 11.499 -60.999s-20.834 -47.666 -45.501 -66.999c-50 -39.333 -117.333 -59 -202 -59c-103.333 0 -181.833 31 -235.5 93s-80.5 149 -80.5 261c0 108.667 29.333 195.167 88 259.5s137 96.5 235 96.5c82.667 0 146 -17 190 -51
c18.667 -14.667 29.834 -32 33.501 -52s1.5 -36 -6.5 -48c-18 -36.667 -52 -46.667 -102 -30c-42 14 -79 21 -111 21z" />
    <glyph glyph-name="D" unicode="D" horiz-adv-x="701" 
d="M64 98l0.000976562 484.999c0 27.333 6 49.333 18 66s33 27.667 63 33c44.667 8.66699 98.667 13 162 13c117.333 0 206.666 -29.333 267.999 -88s92 -144.667 92 -258c0 -109.333 -30.833 -195.666 -92.5 -258.999s-150.167 -95 -265.5 -95
c-70.667 0 -124.667 3.33301 -162 10c-55.333 9.33301 -83 40.333 -83 93zM314.001 154.999c53.333 0 93.833 16.999 121.5 50.999s41.5 81.667 41.5 143c0 58.667 -14 104.334 -42 137.001s-69 49 -123 49c-25.333 0 -48 -1 -68 -3v-375c24 -1.33301 47.333 -2 70 -2z" />
    <glyph glyph-name="E" unicode="E" horiz-adv-x="579" 
d="M64 91v508c0 26.667 7.83301 48.5 23.5 65.5s37.834 25.5 66.501 25.5h318c27.333 0 48.833 -7 64.5 -21s23.5 -33.667 23.5 -59c0 -24 -7.83301 -43.333 -23.5 -58s-37.167 -22 -64.5 -22h-228v-100h177c27.333 0 48.833 -7 64.5 -21s23.5 -33.667 23.5 -59
c0 -24 -7.83301 -43.333 -23.5 -58s-37.167 -22 -64.5 -22h-177v-110h237c27.333 0 48.833 -7 64.5 -21s23.5 -33.667 23.5 -59c0 -24 -7.83301 -43.333 -23.5 -58s-37.167 -22 -64.5 -22h-327c-28.667 0 -50.834 8.5 -66.501 25.5s-23.5 38.833 -23.5 65.5z" />
    <glyph glyph-name="F" unicode="F" horiz-adv-x="550" 
d="M64 91l0.000976562 508c0 26.667 7.83301 48.5 23.5 65.5s37.834 25.5 66.501 25.5h299c27.333 0 48.833 -7 64.5 -21s23.5 -33.667 23.5 -59c0 -24 -7.83301 -43.333 -23.5 -58s-37.167 -22 -64.5 -22h-209v-100h162c27.333 0 48.833 -7 64.5 -21s23.5 -33.667 23.5 -59
c0 -24 -7.83301 -43.333 -23.5 -58s-37.167 -22 -64.5 -22h-162v-179c0 -26.667 -7.83301 -48.5 -23.5 -65.5s-37.834 -25.5 -66.501 -25.5s-50.834 8.5 -66.501 25.5s-23.5 38.833 -23.5 65.5z" />
    <glyph glyph-name="G" unicode="G" horiz-adv-x="665" 
d="M362 -10c-107.333 0 -188.83 31.5 -244.497 94.5s-83.5 149.5 -83.5 259.5c0 107.333 29.167 193.5 87.5 258.5s139.166 97.5 242.499 97.5c86 0 150.333 -15.667 193 -47c20.667 -14.667 33 -32.334 37 -53.001s1 -39 -9 -55c-18 -34 -54.333 -42 -109 -24
c-38 12.667 -74 19 -108 19c-44.667 0 -79.834 -17.5 -105.501 -52.5s-38.5 -83.5 -38.5 -145.5c0 -63.333 13.833 -111.166 41.5 -143.499s64.167 -48.5 109.5 -48.5c49.333 0 88 9.33301 116 28v75h-64c-53.333 0 -80 21.667 -80 65s26.667 65 80 65h119
c27.333 0 48.333 -5 63 -15s22 -29.333 22 -58v-162c0 -43.333 -16 -76 -48 -98c-56.667 -40 -130.334 -60 -221.001 -60z" />
    <glyph glyph-name="H" unicode="H" horiz-adv-x="718" 
d="M474 433v166c0 26.667 8 48.5 24 65.5s38.333 25.5 67 25.5s50.667 -8.5 66 -25.5s23 -38.833 23 -65.5v-508c0 -27.333 -7.66699 -49.333 -23 -66s-37.333 -25 -66 -25c-29.333 0 -51.833 8.5 -67.5 25.5s-23.5 38.833 -23.5 65.5v182h-230v-182
c0 -26.667 -7.83301 -48.5 -23.5 -65.5s-37.834 -25.5 -66.501 -25.5s-50.834 8.5 -66.501 25.5s-23.5 38.833 -23.5 65.5v508c0 26.667 7.83301 48.5 23.5 65.5s37.834 25.5 66.501 25.5s50.834 -8.5 66.501 -25.5s23.5 -38.833 23.5 -65.5v-166h230z" />
    <glyph glyph-name="I" unicode="I" horiz-adv-x="310" 
d="M65 91v508c0 26.667 7.83301 48.5 23.5 65.5s37.834 25.5 66.501 25.5s50.834 -8.5 66.501 -25.5s23.5 -38.833 23.5 -65.5v-508c0 -26.667 -7.83301 -48.5 -23.5 -65.5s-37.834 -25.5 -66.501 -25.5s-50.834 8.5 -66.501 25.5s-23.5 38.833 -23.5 65.5z" />
    <glyph glyph-name="J" unicode="J" horiz-adv-x="420" 
d="M-13 130c13.333 34.667 43.002 46 89.002 34c35.333 -9.33301 57 -14 65 -14c32 0 48 16.333 48 49v400c0 26 8 47.667 24 65s38 26 66 26s50 -8.66699 66 -26s24 -39 24 -65v-411c0 -63.333 -17.833 -112.166 -53.5 -146.499s-85.834 -51.5 -150.501 -51.5
c-54.667 0 -99.334 9.66699 -134.001 29c-20 11.333 -34.5 27.166 -43.5 47.499s-9.16699 41.5 -0.5 63.5z" />
    <glyph glyph-name="K" unicode="K" horiz-adv-x="621" 
d="M64 91l0.00292969 507.997c0 26.667 7.83301 48.5 23.5 65.5s37.834 25.5 66.501 25.5s50.834 -8.5 66.501 -25.5s23.5 -38.833 23.5 -65.5v-214l188 254c19.333 26.667 41 42.667 65 48s47.333 -0.666992 70 -18c19.333 -16.667 28.666 -37.167 27.999 -61.5
s-10.334 -48.166 -29.001 -71.499l-146 -179l170 -197c20 -22.667 30.167 -46.5 30.5 -71.5s-9.83398 -46.833 -30.501 -65.5c-24 -19.333 -47.667 -26.666 -71 -21.999s-45 19.334 -65 44.001l-210 261v-215c0 -26.667 -7.83301 -48.5 -23.5 -65.5
s-37.834 -25.5 -66.501 -25.5s-50.834 8.5 -66.501 25.5s-23.5 38.833 -23.5 65.5z" />
    <glyph glyph-name="L" unicode="L" horiz-adv-x="552" 
d="M471 0l-320.001 -0.000976562c-26.667 0 -47.834 8.66699 -63.501 26s-23.5 39 -23.5 65v508c0 26.667 7.83301 48.5 23.5 65.5s37.834 25.5 66.501 25.5s50.834 -8.5 66.501 -25.5s23.5 -38.833 23.5 -65.5v-439h227c27.333 0 48.666 -7.16699 63.999 -21.5
s23 -33.5 23 -57.5c0 -25.333 -7.66699 -45.166 -23 -59.499s-36.666 -21.5 -63.999 -21.5z" />
    <glyph glyph-name="M" unicode="M" horiz-adv-x="796" 
d="M402 378l161 259c20.667 35.333 49 53 85 53c27.333 0 48.166 -8.16699 62.499 -24.5s21.5 -38.5 21.5 -66.5v-508c0 -27.333 -7.66699 -49.333 -23 -66s-37.666 -25 -66.999 -25c-28.667 0 -50.834 8.5 -66.501 25.5s-23.5 38.833 -23.5 65.5v280l-76 -132
c-19.333 -33.333 -47 -50 -83 -50c-32.667 0 -59.667 16.333 -81 49l-80 123v-270c0 -60.667 -28 -91 -84 -91c-29.333 0 -50.666 8.5 -63.999 25.5s-20 38.833 -20 65.5v508c0 26 7 47.667 21 65s35 26 63 26c38 0 67.667 -17.667 89 -53z" />
    <glyph glyph-name="N" unicode="N" horiz-adv-x="717" 
d="M487 302v297c0 26.667 6.66699 48.5 20 65.5s34.333 25.5 63 25.5c55.333 0 83 -30.333 83 -91v-508c0 -27.333 -7.5 -49.333 -22.5 -66s-35.5 -25 -61.5 -25c-30 0 -56 14.667 -78 44l-261 329v-282c0 -60.667 -28 -91 -84 -91c-54.667 -0 -82 30.333 -82 91v508
c0 60.667 27.333 91 82 91c32.667 0 61 -16 85 -48z" />
    <glyph glyph-name="O" unicode="O" horiz-adv-x="744" 
d="M34 345c0 104 29.5 189.167 88.5 255.5s142.167 99.5 249.5 99.5s190.5 -33.167 249.5 -99.5s88.5 -151.5 88.5 -255.5s-29.5 -189.167 -88.5 -255.5s-142.167 -99.5 -249.5 -99.5s-190.5 33.167 -249.5 99.5s-88.5 151.5 -88.5 255.5zM224 345
c0 -58 12.333 -105 37 -141s61.667 -54 111 -54s86.333 18 111 54s37 83 37 141s-12.333 105 -37 141s-61.667 54 -111 54s-86.333 -18 -111 -54s-37 -83 -37 -141z" />
    <glyph glyph-name="P" unicode="P" horiz-adv-x="606" 
d="M64 91l0.00195312 490.001c0 55.333 26.667 88.666 80 99.999c44.667 9.33301 99 14 163 14c84.667 0 152.5 -19.833 203.5 -59.5s76.5 -99.167 76.5 -178.5c0 -80.667 -26 -141.667 -78 -183s-118.667 -62 -200 -62c-22 0 -43.667 1.66699 -65 5v-126
c0 -26.667 -7.83301 -48.5 -23.5 -65.5s-37.834 -25.5 -66.501 -25.5s-50.834 8.5 -66.501 25.5s-23.5 38.833 -23.5 65.5zM300.002 367.001c29.333 0 52.833 7.5 70.5 22.5s26.5 37.5 26.5 67.5c0 26.667 -8.16699 47.167 -24.5 61.5s-39.5 21.5 -69.5 21.5
c-24.667 0 -44.334 -1 -59.001 -3v-167c14.667 -2 33.334 -3 56.001 -3z" />
    <glyph glyph-name="Q" unicode="Q" horiz-adv-x="744" 
d="M30 345c0 104 29.501 189.167 88.501 255.5s142.167 99.5 249.5 99.5s190.5 -33.167 249.5 -99.5s88.5 -151.5 88.5 -255.5c0 -101.333 -27.333 -184.333 -82 -249c2.66699 -2 6.66699 -5.16699 12 -9.5l14.5 -11.5c4.33301 -3.33301 8.5 -6.33301 12.5 -9
c34.667 -27.333 40 -58.333 16 -93c-8.66699 -12.667 -21.167 -20.5 -37.5 -23.5s-31.833 -0.833008 -46.5 6.5c-30 16 -59 35.667 -87 59c-42.667 -16.667 -89.334 -25 -140.001 -25c-107.333 0 -190.5 33.167 -249.5 99.5s-88.5 151.5 -88.5 255.5zM220.001 345
c0 -58.667 12.499 -106.665 37.499 -143.998s61.833 -56 110.5 -56c8 0 13.667 0.333008 17 1c-13.333 20 -22.333 35.667 -27 47c-8 15.333 -9.66699 32 -5 50s15.334 31 32.001 39c12.667 7.33301 27 9.16602 43 5.49902s29.667 -12.834 41 -27.501
c14.667 -19.333 23 -30 25 -32c14.667 32 22 71 22 117c0 58 -12.333 105 -37 141s-61.667 54 -111 54s-86.333 -18 -111 -54s-37 -83 -37 -141z" />
    <glyph glyph-name="R" unicode="R" horiz-adv-x="634" 
d="M63 91l-0.000976562 495.001c0 58 27 91 81 99c42 6.66699 97 10 165 10c84 0 150.667 -17.833 200 -53.5s74 -90.167 74 -163.5c0 -88 -36.667 -150.333 -110 -187l98 -145c14.667 -22.667 20.334 -46.667 17.001 -72s-14.666 -44.666 -33.999 -57.999
c-21.333 -14.667 -45.833 -18.834 -73.5 -12.501s-48.5 22.166 -62.5 47.499l-117 210c-21.333 0 -40.666 0.666992 -57.999 2v-172c0 -26.667 -7.83301 -48.5 -23.5 -65.5s-37.834 -25.5 -66.501 -25.5s-50.834 8.5 -66.501 25.5s-23.5 38.833 -23.5 65.5zM294.999 386.001
c65.333 0 98.002 26 98.002 78c0 47.333 -32.333 71 -97 71c-22.667 0 -40.334 -1.33301 -53.001 -4v-144c9.33301 -0.666992 26.666 -1 51.999 -1z" />
    <glyph glyph-name="S" unicode="S" horiz-adv-x="561" 
d="M278 535c-34 0 -51.001 -10.6641 -51.001 -31.9971c0 -12.667 8 -24.334 24 -35.001s36 -19.834 60 -27.501s50 -17.834 78 -30.501s54 -26.667 78 -42s44 -36.666 60 -63.999s24 -59 24 -95c0 -68 -21.167 -121.5 -63.5 -160.5s-107.5 -58.5 -195.5 -58.5
c-78.667 0 -143.667 14.333 -195 43c-28 15.333 -46.667 35 -56 59s-8.66602 46.667 2.00098 68c18 40.667 53.667 51.334 107 32.001c4.66699 -1.33301 13.167 -4.33301 25.5 -9s21 -7.83398 26 -9.50098s12.667 -4 23 -7s18.833 -5.16699 25.5 -6.5
s14.834 -2.5 24.501 -3.5s19.167 -1.5 28.5 -1.5c45.333 0 68 13.667 68 41c0 11.333 -6 21.666 -18 30.999s-27.5 17.833 -46.5 25.5s-40.167 15.667 -63.5 24s-46.5 18.5 -69.5 30.5s-44 26 -63 42s-34.5 36.667 -46.5 62s-18 54 -18 86c0 63.333 21.5 113 64.5 149
s102.833 54 179.5 54c73.333 0 135 -14.667 185 -44c23.333 -14 39 -32 47 -54s7.33301 -42.333 -2 -61c-18.667 -42 -61.667 -51.667 -129 -29c-44.667 15.333 -82.334 23 -113.001 23z" />
    <glyph glyph-name="T" unicode="T" horiz-adv-x="610" 
d="M82 690h446.002c28 0 49.667 -6.83301 65 -20.5s23 -33.167 23 -58.5c0 -24 -7.83301 -43.5 -23.5 -58.5s-37.167 -22.5 -64.5 -22.5h-133v-439c0 -26.667 -7.83301 -48.5 -23.5 -65.5s-37.834 -25.5 -66.501 -25.5s-50.834 8.5 -66.501 25.5s-23.5 38.833 -23.5 65.5
v439h-133c-27.333 0 -48.833 7.5 -64.5 22.5s-23.5 34.5 -23.5 58.5c0 25.333 7.66699 44.833 23 58.5s37 20.5 65 20.5z" />
    <glyph glyph-name="U" unicode="U" horiz-adv-x="686" 
d="M344 -10c-98 0 -169.167 26.667 -213.5 80s-66.5 124 -66.5 212v317c0 26.667 7.66699 48.5 23 65.5s37.333 25.5 66 25.5s51 -8.5 67 -25.5s24 -38.833 24 -65.5v-330c0 -36 8.83301 -64.833 26.5 -86.5s43.5 -32.5 77.5 -32.5s59.833 10.833 77.5 32.5
s26.5 50.5 26.5 86.5v330c0 26.667 7.33301 48.5 22 65.5s36 25.5 64 25.5s49 -8.33301 63 -25s21 -38.667 21 -66v-317c0 -88 -21.833 -158.667 -65.5 -212s-114.5 -80 -212.5 -80z" />
    <glyph glyph-name="V" unicode="V" horiz-adv-x="613" 
d="M184 618l141.001 -365.998l132 362c24.667 68 65 90.667 121 68c22.667 -9.33301 36.5 -25.333 41.5 -48s2.16699 -46.334 -8.5 -71.001l-207 -508c-18 -43.333 -47.667 -65 -89 -65s-70.333 20 -87 60l-210 503c-10.667 21.333 -12.834 45.5 -6.50098 72.5
s22.166 45.5 47.499 55.5c28.667 11.333 53.834 11.166 75.501 -0.500977s38.167 -32.5 49.5 -62.5z" />
    <glyph glyph-name="W" unicode="W" horiz-adv-x="814" 
d="M503 61l-90.998 280l-93 -279c-16.667 -48 -44 -72 -82 -72c-46.667 0 -76.667 24.667 -90 74l-133 505c-6.66699 26 -5.83398 50.5 2.49902 73.5s27.5 37.833 57.5 44.5c60.667 12.667 97 -11.333 109 -72l76 -335l76 252c14 46.667 42.667 70 86 70
c42.667 0 70.667 -23 84 -69l76 -256l77 327c7.33301 34.667 19.333 58.5 36 71.5s39.667 17.167 69 12.5c55.333 -12 73.333 -53 54 -123l-143 -504c-14 -47.333 -42.333 -71 -85 -71s-71.334 23.667 -86.001 71z" />
    <glyph glyph-name="X" unicode="X" horiz-adv-x="605" 
d="M191 642l120.001 -160.003l117 157c38 54.667 78.667 66 122 34c21.333 -18 31.833 -37.167 31.5 -57.5s-8.5 -41.5 -24.5 -63.5l-149 -190l169 -215c15.333 -20.667 22 -43.5 20 -68.5s-13.333 -45.167 -34 -60.5c-24 -16.667 -47.167 -22.167 -69.5 -16.5
s-41.5 19.834 -57.5 42.501l-138 184l-131 -180c-34.667 -50 -75.334 -61.667 -122.001 -35c-20.667 16 -31.667 35.5 -33 58.5s5.66699 43.833 21 62.5l167 217l-152 189c-15.333 18.667 -22.833 40.834 -22.5 66.501s10.833 46.834 31.5 63.501
c28 18.667 53.333 24.5 76 17.5s42 -22.167 58 -45.5z" />
    <glyph glyph-name="Y" unicode="Y" horiz-adv-x="575" 
d="M40 674c27.333 15.333 51.6699 19.3311 73.0029 11.998s40.333 -23.666 57 -48.999l128 -188l121 184c37.333 58 79.666 72 126.999 42c20 -12.667 30.833 -30.667 32.5 -54s-4.5 -44.666 -18.5 -63.999l-179 -259v-207c0 -26.667 -7.83301 -48.5 -23.5 -65.5
s-37.834 -25.5 -66.501 -25.5s-50.834 8.5 -66.501 25.5s-23.5 38.833 -23.5 65.5v203l-179 252c-14 17.333 -20 39.5 -18 66.5s14 47.5 36 61.5z" />
    <glyph glyph-name="Z" unicode="Z" horiz-adv-x="576" 
d="M109 0c-31.333 0 -54.832 8.66699 -70.499 26s-22.834 37.5 -21.501 60.5s9 44.5 23 64.5l291 379h-217c-27.333 0 -48.833 7.5 -64.5 22.5s-23.5 34.5 -23.5 58.5c0 25.333 7.66699 44.833 23 58.5s37 20.5 65 20.5h350c30 0 53.167 -7.33301 69.5 -22
s24.333 -32.834 24 -54.501s-8.16602 -43.167 -23.499 -64.5l-297 -389h240c27.333 0 48.666 -7.16699 63.999 -21.5s23 -34.166 23 -59.499c0 -24 -7.83301 -43.167 -23.5 -57.5s-37.167 -21.5 -64.5 -21.5h-367z" />
    <glyph glyph-name="bracketleft" unicode="[" horiz-adv-x="337" 
d="M238 -70h-106.003c-27.333 0 -48.166 7.83301 -62.499 23.5s-21.5 36.167 -21.5 61.5v660c0 24.667 6.5 45 19.5 61s33.833 24 62.5 24h108c24.667 0 44.334 -6 59.001 -18s22 -29.333 22 -52c0 -46.667 -27 -70 -81 -70h-30v-550h30c24.667 0 44.334 -6 59.001 -18
s22 -29.333 22 -52c0 -46.667 -27 -70 -81 -70z" />
    <glyph glyph-name="backslash" unicode="\" horiz-adv-x="341" 
d="M247 -56l-261.999 751c-8.66699 21.333 -10.334 41.833 -5.00098 61.5s18.666 32.834 39.999 39.501c42.667 13.333 72.334 -3.33398 89.001 -50.001l265 -758c8 -18 8.83301 -36.667 2.5 -56s-19.833 -32 -40.5 -38c-43.333 -12 -73 4.66699 -89 50z" />
    <glyph glyph-name="bracketright" unicode="]" horiz-adv-x="337" 
d="M201 -70h-106.003c-54 0 -81 23.333 -81 70c0 22.667 7.33301 40 22 52s34.334 18 59.001 18h30v550h-30c-54 0 -81 23.333 -81 70c0 22.667 7.33301 40 22 52s34.334 18 59.001 18h108c28.667 0 49.5 -8 62.5 -24s19.5 -36.333 19.5 -61v-660
c0 -25.333 -7.16699 -45.833 -21.5 -61.5s-35.166 -23.5 -62.499 -23.5z" />
    <glyph glyph-name="asciicircum" unicode="^" horiz-adv-x="570" 
d="M368 653l152 -189.999c14 -17.333 21 -36.833 21 -58.5s-9.33301 -40.167 -28 -55.5c-23.333 -16 -45.5 -20.5 -66.5 -13.5s-40.833 22.833 -59.5 47.5l-103 134l-105 -136c-38 -50 -75.667 -61.667 -113 -35c-13.333 9.33301 -21.666 20.666 -24.999 33.999
s-2.83301 26.333 1.5 39s11.5 25.667 21.5 39l148 194c12 16 23.667 28 35 36s25.666 12 42.999 12c28 0 54 -15.667 78 -47z" />
    <glyph glyph-name="underscore" unicode="_" horiz-adv-x="584" 
d="M505 -163h-425.999c-24 0 -43.5 6.5 -58.5 19.5s-22.5 31.5 -22.5 55.5c0 22.667 7.5 40.834 22.5 54.501s34.5 20.5 58.5 20.5h426c24 0 43.5 -6.83301 58.5 -20.5s22.5 -31.834 22.5 -54.501c0 -24 -7.33301 -42.5 -22 -55.5s-34.334 -19.5 -59.001 -19.5z" />
    <glyph glyph-name="grave" unicode="`" 
d="M271 554l-91.001 57.001c-19.333 12 -30.833 26.667 -34.5 44s-0.5 32.666 9.5 45.999c20.667 32.667 51.334 36 92.001 10l89 -58c38.667 -25.333 48 -54.333 28 -87c-20.667 -34 -51.667 -38 -93 -12z" />
    <glyph glyph-name="a" unicode="a" horiz-adv-x="513" 
d="M16 136c0 56.667 19.333 98 58 124s89.334 39 152.001 39c12 0 24.5 -0.5 37.5 -1.5s23.167 -2.16699 30.5 -3.5l10 -2v26c0 16 -4.83301 27.833 -14.5 35.5s-27.834 11.5 -54.501 11.5c-10.667 0 -21.667 -1 -33 -3s-24.333 -4.5 -39 -7.5s-27.667 -5.5 -39 -7.5
c-36.667 -6 -59.334 6 -68.001 36c-11.333 40 6.66699 70.667 54 92c36.667 16.667 86.334 25 149.001 25c67.333 0 118.333 -17.5 153 -52.5s52 -82.5 52 -142.5v-220c0 -24.667 -6.83301 -45 -20.5 -61s-34.167 -24 -61.5 -24c-36 0 -61.333 15 -76 45
c-30.667 -36.667 -74.334 -55 -131.001 -55c-51.333 0 -90.666 13.167 -117.999 39.5s-41 61.833 -41 106.5zM229 115c19.333 0 36.666 6.33301 51.999 19s23 29 23 49v24c-18.667 3.33301 -36.667 5 -54 5c-46 0 -69 -18.333 -69 -55c0 -12 4.33301 -22 13 -30
s20.334 -12 35.001 -12z" />
    <glyph glyph-name="b" unicode="b" horiz-adv-x="549" 
d="M219 605l0.00195312 -155c29.333 33.333 70.333 50 123 50c59.333 0 104.666 -21.833 135.999 -65.5s47 -101.5 47 -173.5c0 -84 -18.833 -150.167 -56.5 -198.5s-91.834 -72.5 -162.501 -72.5c-56 0 -95.333 9 -118 27c-16 -11.333 -34 -17 -54 -17
c-26.667 0 -47.5 8 -62.5 24s-22.5 36 -22.5 60v521c0 24.667 7.33301 45 22 61s35.667 24 63 24c26.667 0 47.5 -8 62.5 -24s22.5 -36.333 22.5 -61zM296.002 360c-50 0 -75.667 -43.667 -77 -131v-93c17.333 -7.33301 38 -11 62 -11c22 0 39 12.667 51 38
s18 59.333 18 102c0 63.333 -18 95 -54 95z" />
    <glyph glyph-name="c" unicode="c" horiz-adv-x="455" 
d="M415 36c-36.667 -30.667 -88.334 -45.999 -155.001 -45.999c-71.333 0 -128.5 22 -171.5 66s-64.5 106.333 -64.5 187c0 79.333 22.167 142 66.5 188s102.5 69 174.5 69c55.333 0 99 -9 131 -27c36 -20.667 48.333 -50.667 37 -90
c-10.667 -34.667 -41.667 -47.667 -93 -39c-25.333 4 -44.333 6 -57 6c-56 0 -84 -36.667 -84 -110c0 -32 7.83301 -56.667 23.5 -74s34.834 -26 57.501 -26c14.667 0 39 6.33301 73 19c41.333 15.333 71 8 89 -22c9.33301 -13.333 11.5 -29.833 6.5 -49.5
s-16.167 -36.834 -33.5 -51.501z" />
    <glyph glyph-name="d" unicode="d" horiz-adv-x="549" 
d="M209 -10c-55.333 0 -100.001 21.334 -134.001 64.001s-51 103 -51 181c0 81.333 18.833 145.833 56.5 193.5s91.834 71.5 162.501 71.5c36.667 0 65.667 -4 87 -12v117c0 24.667 7.33301 45 22 61s35.667 24 63 24c26.667 0 47.5 -8 62.5 -24s22.5 -36.333 22.5 -61v-521
c0 -24.667 -7.66699 -44.834 -23 -60.501s-36 -23.5 -62 -23.5c-38 -0 -63.667 15.333 -77 46c-28.667 -37.333 -71.667 -56 -129 -56zM254.999 130.001c48.667 0 73.667 43.667 75 131v93c-17.333 7.33301 -37.333 11 -60 11s-40.167 -11.333 -52.5 -34
s-18.5 -55.667 -18.5 -99c0 -68 18.667 -102 56 -102z" />
    <glyph glyph-name="e" unicode="e" horiz-adv-x="509" 
d="M404 197h-211.999c2.66699 -24 12.167 -42.833 28.5 -56.5s36.833 -20.5 61.5 -20.5c20 0 50.333 7.33301 91 22c40 14.667 68 7.66699 84 -21c8.66699 -12 10.5 -27.5 5.5 -46.5s-16.833 -34.5 -35.5 -46.5c-38.667 -25.333 -91.334 -38 -158.001 -38
c-73.333 0 -132.5 22.5 -177.5 67.5s-67.5 108.167 -67.5 189.5c0 78.667 22.5 140.5 67.5 185.5s103.167 67.5 174.5 67.5c66.667 0 120.667 -18.333 162 -55s62 -87.667 62 -153c0 -14 -1.33301 -27 -4 -39c-8.66699 -37.333 -36 -56 -82 -56zM271.001 370
c-23.333 0 -42 -7.16602 -56 -21.499s-22 -34.833 -24 -61.5h142c1.33301 8 2 15.667 2 23c0 17.333 -5.5 31.666 -16.5 42.999s-26.833 17 -47.5 17z" />
    <glyph glyph-name="f" unicode="f" horiz-adv-x="368" 
d="M49 -125l-0.000976562 607c0 70 13.667 122 41 156c15.333 19.333 36.333 34.5 63 45.5s55.334 16.5 86.001 16.5c51.333 0 92 -8.33301 122 -25c35.333 -20 48.333 -48 39 -84c-10 -40 -39.667 -53.333 -89 -40c-24 6 -43.333 9 -58 9c-25.333 0 -38 -13.333 -38 -40
v-30h55c53.333 0 80 -23.333 80 -70s-26.667 -70 -80 -70h-55v-475c0 -25.333 -7.16699 -45.833 -21.5 -61.5s-34.833 -23.5 -61.5 -23.5s-47.167 7.83301 -61.5 23.5s-21.5 36.167 -21.5 61.5z" />
    <glyph glyph-name="g" unicode="g" horiz-adv-x="512" 
d="M34 329c0 53.333 18.501 95.165 55.501 125.498s89.833 45.5 158.5 45.5c29.333 0 57.333 -3.33301 84 -10h115c49.333 0 74 -18.667 74 -56c0 -35.333 -22.333 -54 -67 -56c5.33301 -21.333 8 -37.666 8 -48.999c0 -52 -18.833 -93.333 -56.5 -124
s-90.167 -46 -157.5 -46c-30.667 0 -58 3 -82 9c-12 -8 -18 -17 -18 -27c0 -11.333 10 -19.5 30 -24.5s57.667 -8.16699 113 -9.5c138.667 -3.33301 208 -48.333 208 -135c0 -54 -22.5 -97.833 -67.5 -131.5s-108.5 -50.5 -190.5 -50.5
c-76.667 0 -135.334 13.333 -176.001 40s-61 60.334 -61 101.001c0 46.667 23.333 83 70 109c-32 20.667 -48 47.667 -48 81c0 36 17.333 67.333 52 94c-29.333 30.667 -44 68.667 -44 114zM243.001 -2.00098c-38 3.33301 -58.666 5.33301 -61.999 6
c-19.333 -12.667 -29 -26.667 -29 -42c0 -28 29.667 -42 89 -42c65.333 0 98 13.667 98 41c0 12.667 -7.33301 21.5 -22 26.5s-39.334 8.5 -74.001 10.5zM181.002 328.999c0 -16 6.16699 -28.167 18.5 -36.5s28.5 -12.5 48.5 -12.5s36.167 4.16699 48.5 12.5
s18.5 20.5 18.5 36.5c0 16.667 -6.16699 29.167 -18.5 37.5s-28.5 12.5 -48.5 12.5s-36.167 -4.16699 -48.5 -12.5s-18.5 -20.833 -18.5 -37.5z" />
    <glyph glyph-name="h" unicode="h" horiz-adv-x="562" 
d="M343 85l0.00195312 208c0 18.667 -4.33301 33.667 -13 45s-20.334 17 -35.001 17c-29.333 0 -49.333 -13.5 -60 -40.5s-16 -63.833 -16 -110.5v-119c0 -25.333 -7.5 -45.833 -22.5 -61.5s-35.833 -23.5 -62.5 -23.5s-47.5 7.83301 -62.5 23.5s-22.5 36.167 -22.5 61.5
v521c0 24 7.5 44 22.5 60s35.833 24 62.5 24s47.5 -8 62.5 -24s22.5 -36 22.5 -60v-152c29.333 30.667 69.333 46 120 46c61.333 0 105.666 -18.167 132.999 -54.5s41 -89.833 41 -160.5v-200c0 -25.333 -7.5 -45.833 -22.5 -61.5s-35.833 -23.5 -62.5 -23.5
s-47.5 7.83301 -62.5 23.5s-22.5 36.167 -22.5 61.5z" />
    <glyph glyph-name="i" unicode="i" horiz-adv-x="270" 
d="M50 85v321c0 24 7.5 44 22.5 60s35.833 24 62.5 24s47.5 -8 62.5 -24s22.5 -36 22.5 -60v-321c0 -24.667 -7.33301 -45 -22 -61s-35.667 -24 -63 -24c-26.667 0 -47.5 8 -62.5 24s-22.5 36.333 -22.5 61zM46 620c0 25.333 8 45 24 59s37.667 21 65 21
c26.667 0 48.167 -7.16699 64.5 -21.5s24.5 -33.833 24.5 -58.5c0 -26 -8.16699 -45.833 -24.5 -59.5s-37.833 -20.5 -64.5 -20.5c-27.333 0 -49 6.83301 -65 20.5s-24 33.5 -24 59.5z" />
    <glyph glyph-name="j" unicode="j" horiz-adv-x="276" 
d="M74 406l0.00195312 -423c0 -28.667 -11.667 -43 -35 -43c-7.33301 0 -24.333 2.66699 -51 8c-42.667 7.33301 -68.334 -7 -77.001 -43c-10.667 -44 5.33301 -75.667 48 -95c29.333 -13.333 63.666 -20 102.999 -20c60 0 105.333 17 136 51s46 82 46 144v421
c0 24 -7.5 44 -22.5 60s-35.833 24 -62.5 24s-47.5 -8 -62.5 -24s-22.5 -36 -22.5 -60zM69.002 620c0 25.333 8 45 24 59s37.667 21 65 21c26.667 0 48.167 -7.16699 64.5 -21.5s24.5 -33.833 24.5 -58.5c0 -26 -8.16699 -45.833 -24.5 -59.5s-37.833 -20.5 -64.5 -20.5
c-27.333 0 -49 6.83301 -65 20.5s-24 33.5 -24 59.5z" />
    <glyph glyph-name="k" unicode="k" horiz-adv-x="501" 
d="M341 48l-125.999 165.999v-129c0 -25.333 -7.16699 -45.833 -21.5 -61.5s-34.833 -23.5 -61.5 -23.5s-47.167 7.83301 -61.5 23.5s-21.5 36.167 -21.5 61.5v521c0 24 7.16699 44 21.5 60s34.833 24 61.5 24s47.167 -7.83301 61.5 -23.5s21.5 -35.834 21.5 -60.501v-319
l124 156c19.333 26.667 41 42 65 46s44.667 -2.33301 62 -19c15.333 -13.333 23.333 -30 24 -50s-7.66602 -40.667 -24.999 -62l-86 -102l97 -114c17.333 -20.667 25.666 -42.167 24.999 -64.5s-9.33398 -40.5 -26.001 -54.5c-22.667 -19.333 -46 -26.666 -70 -21.999
s-45.333 20.334 -64 47.001z" />
    <glyph glyph-name="l" unicode="l" horiz-adv-x="378" 
d="M49 170v436.001c0 24 7.5 44 22.5 60s35.833 24 62.5 24s47.5 -8 62.5 -24s22.5 -36 22.5 -60v-426c0 -26.667 12.667 -40 38 -40c9.33301 0 26.333 3.33301 51 10c40 12 66.333 1.33301 79 -32c7.33301 -20 6.83301 -39.167 -1.5 -57.5s-22.833 -33.5 -43.5 -45.5
c-28.667 -16.667 -68.667 -25 -120 -25s-93 14.667 -125 44s-48 74.666 -48 135.999z" />
    <glyph glyph-name="m" unicode="m" horiz-adv-x="816" 
d="M601 85v213c0 18.667 -3.66699 33.667 -11 45s-18 17 -32 17c-18.667 0 -33.167 -6.83301 -43.5 -20.5s-16.833 -29.834 -19.5 -48.501s-4 -43.334 -4 -74.001v-132c0 -25.333 -7.16699 -45.833 -21.5 -61.5s-34.833 -23.5 -61.5 -23.5c-26 0 -46.333 7.83301 -61 23.5
s-22 36.167 -22 61.5v215c0 18.667 -3.5 33.334 -10.5 44.001s-16.833 16 -29.5 16c-46.667 0 -70 -47.333 -70 -142v-133c0 -26 -7.16699 -46.667 -21.5 -62s-34.833 -23 -61.5 -23s-47.167 7.83301 -61.5 23.5s-21.5 36.167 -21.5 61.5v321
c0 24.667 7.5 44.834 22.5 60.501s35.167 23.5 60.5 23.5c38 0 63 -17 75 -51c12.667 17.333 31 31.833 55 43.5s48 17.5 72 17.5c65.333 0 109.333 -21.333 132 -64c14 17.333 33.5 32.333 58.5 45s52.167 19 81.5 19c58.667 0 100.167 -18 124.5 -54
s36.5 -89.667 36.5 -161v-200c0 -25.333 -7.16699 -45.833 -21.5 -61.5s-34.833 -23.5 -61.5 -23.5c-26 -0 -46.333 7.83301 -61 23.5s-22 36.167 -22 61.5z" />
    <glyph glyph-name="n" unicode="n" horiz-adv-x="562" 
d="M343 85v207.999c0 18.667 -4.33301 33.667 -13 45s-20.334 17 -35.001 17c-29.333 0 -49.333 -13.167 -60 -39.5s-16 -62.833 -16 -109.5v-121c0 -25.333 -7.5 -45.833 -22.5 -61.5s-35.833 -23.5 -62.5 -23.5s-47.5 7.83301 -62.5 23.5s-22.5 36.167 -22.5 61.5v321
c0 24.667 7.66699 44.834 23 60.501s36 23.5 62 23.5c36.667 0 62.334 -15 77.001 -45c32.667 36.667 75 55 127 55c61.333 0 105.833 -18.333 133.5 -55s41.5 -90 41.5 -160v-200c0 -25.333 -7.5 -45.833 -22.5 -61.5s-35.833 -23.5 -62.5 -23.5s-47.5 7.83301 -62.5 23.5
s-22.5 36.167 -22.5 61.5z" />
    <glyph glyph-name="o" unicode="o" horiz-adv-x="538" 
d="M24 245c0 76.667 21.833 138.333 65.5 185s103.5 70 179.5 70s135.833 -23.5 179.5 -70.5s65.5 -108.5 65.5 -184.5c0 -76.667 -21.833 -138.334 -65.5 -185.001s-103.5 -70 -179.5 -70s-135.833 23.333 -179.5 70s-65.5 108.334 -65.5 185.001zM199 244.999
c0 -32 5.66699 -59.167 17 -81.5s29 -33.5 53 -33.5c46.667 0 70 38.333 70 115s-23.333 115 -70 115s-70 -38.333 -70 -115z" />
    <glyph glyph-name="p" unicode="p" horiz-adv-x="549" 
d="M340 500c56 0 100.834 -20.6689 134.501 -62.002s50.5 -100.666 50.5 -177.999c0 -82 -18.833 -147.5 -56.5 -196.5s-91.834 -73.5 -162.501 -73.5c-36.667 0 -65.667 4 -87 12v-127c0 -24.667 -7.33301 -45 -22 -61s-35.667 -24 -63 -24c-26.667 0 -47.5 8 -62.5 24
s-22.5 36.333 -22.5 61v531c0 24.667 7.66699 44.834 23 60.501s36 23.5 62 23.5c38 0 63.667 -15.333 77 -46c32 37.333 75 56 129 56zM296.001 359.998c-50 0 -75.667 -43.667 -77 -131v-93c17.333 -7.33301 37.333 -11 60 -11c47.333 0 71 44.333 71 133
c0 68 -18 102 -54 102z" />
    <glyph glyph-name="q" unicode="q" horiz-adv-x="549" 
d="M330 -125l-0.000976562 161.001c-10.667 -13.333 -26.667 -24.333 -48 -33s-44.333 -13 -69 -13c-59.333 0 -105.666 22.167 -138.999 66.5s-50 102.166 -50 173.499c0 84 18.5 150 55.5 198s91.5 72 163.5 72c52.667 0 92 -9 118 -27c16 11.333 34 17 54 17
c26.667 0 47.5 -8 62.5 -24s22.5 -36 22.5 -60v-531c0 -24.667 -7.33301 -45 -22 -61s-35.667 -24 -63 -24c-26.667 0 -47.5 8 -62.5 24s-22.5 36.333 -22.5 61zM253.999 130.001c49.333 0 74.667 43.667 76 131v93c-17.333 7.33301 -38 11 -62 11
c-46 0 -69 -46.667 -69 -140c0 -63.333 18.333 -95 55 -95z" />
    <glyph glyph-name="r" unicode="r" horiz-adv-x="396" 
d="M219 227v-141.999c0 -25.333 -7.5 -45.833 -22.5 -61.5s-35.833 -23.5 -62.5 -23.5s-47.5 7.83301 -62.5 23.5s-22.5 36.167 -22.5 61.5v321c0 25.333 7.66699 45.666 23 60.999s36 23 62 23c26.667 0 48.667 -9.33301 66 -28c10 12 23.833 21.333 41.5 28
s34.167 10 49.5 10c32.667 0 58.334 -6 77.001 -18c19.333 -12.667 32.166 -29 38.499 -49s5.83301 -38.333 -1.5 -55c-14 -38 -44.333 -50.333 -91 -37c-18.667 5.33301 -34 8 -46 8c-14.667 0 -26 -5.66699 -34 -17c-10 -14 -15 -49 -15 -105z" />
    <glyph glyph-name="s" unicode="s" horiz-adv-x="441" 
d="M249 500c60.667 0 108.668 -11.333 144.001 -34c37.333 -23.333 50.333 -51.666 39 -84.999c-12.667 -35.333 -42 -46.333 -88 -33l-24 8c-14 4.66699 -26.167 8.16699 -36.5 10.5s-19.5 3.5 -27.5 3.5c-18 0 -27 -6.66699 -27 -20c0 -7.33301 5.5 -14.333 16.5 -21
s24.667 -12.5 41 -17.5s34 -11.833 53 -20.5s36.667 -18.167 53 -28.5s30 -25 41 -44s16.5 -40.5 16.5 -64.5c0 -50.667 -16.833 -90.667 -50.5 -120s-85.834 -44 -156.501 -44c-66 0 -118 12.667 -156 38c-40.667 28 -52 60.333 -34 97c17.333 34.667 51.666 41 102.999 19
c36.667 -16 67.667 -24 93 -24c20.667 0 31 7.66699 31 23c0 8.66699 -7.66699 17 -23 25s-33.833 16 -55.5 24s-43.167 17.667 -64.5 29s-39.666 27.666 -54.999 48.999s-23 46.333 -23 75c0 50.667 17.333 89.167 52 115.5s80.667 39.5 138 39.5z" />
    <glyph glyph-name="t" unicode="t" horiz-adv-x="378" 
d="M49 170v356.001c0 24 7.5 44 22.5 60s35.833 24 62.5 24s47.5 -8 62.5 -24s22.5 -36 22.5 -60v-36h43c53.333 0 80 -23.333 80 -70s-26.667 -70 -80 -70h-43v-170c0 -26.667 12.667 -40 38 -40c9.33301 0 26.333 3.33301 51 10c40 12 66.333 1.33301 79 -32
c7.33301 -20 6.83301 -39.167 -1.5 -57.5s-22.833 -33.5 -43.5 -45.5c-28.667 -16.667 -68.667 -25 -120 -25s-93 14.667 -125 44s-48 74.666 -48 135.999z" />
    <glyph glyph-name="u" unicode="u" horiz-adv-x="562" 
d="M219 405v-207.999c0 -18.667 4.33301 -33.667 13 -45s20.334 -17 35.001 -17c29.333 0 49.333 13.5 60 40.5s16 63.833 16 110.5v119c0 25.333 7.5 45.833 22.5 61.5s35.833 23.5 62.5 23.5s47.5 -7.83301 62.5 -23.5s22.5 -36.167 22.5 -61.5v-321
c0 -24.667 -7.66699 -44.834 -23 -60.501s-36 -23.5 -62 -23.5c-36.667 0 -62.334 15 -77.001 45c-13.333 -16 -31.333 -29.167 -54 -39.5s-47.334 -15.5 -74.001 -15.5c-61.333 0 -105.666 18.167 -132.999 54.5s-41 89.833 -41 160.5v200c0 25.333 7.5 45.833 22.5 61.5
s35.833 23.5 62.5 23.5s47.5 -7.83301 62.5 -23.5s22.5 -36.167 22.5 -61.5z" />
    <glyph glyph-name="v" unicode="v" horiz-adv-x="477" 
d="M469 371l-143.999 -316c-9.33301 -20.667 -19.5 -36.667 -30.5 -48s-26.5 -17 -46.5 -17c-32.667 0 -58.334 19.333 -77.001 58l-147 313c-11.333 21.333 -14 44.5 -8 69.5s21.667 42.5 47 52.5s48.5 9.5 69.5 -1.5s36.167 -29.167 45.5 -54.5l75 -198l75 195
c22.667 59.333 59 79 109 59c46 -18 56.667 -55.333 32 -112z" />
    <glyph glyph-name="w" unicode="w" horiz-adv-x="639" 
d="M628 382l-110.005 -329.999c-13.333 -41.333 -38.666 -62 -75.999 -62c-33.333 0 -56.666 21 -69.999 63l-52 166l-51 -162c-14 -44.667 -38 -67 -72 -67c-21.333 0 -37.166 5 -47.499 15s-19.166 25.667 -26.499 47l-109 312c-6 16.667 -9.16699 32.667 -9.5 48
s3.66699 30 12 44s21.833 23.667 40.5 29c56 16 92 -6.33301 108 -67l51 -175l36 125c10.667 43.333 35 65 73 65c34.667 0 57.667 -21 69 -63l39 -127l12 44l24 88l12 44c14.667 58 48 80.667 100 68c25.333 -6 41.833 -19.333 49.5 -40s6.83398 -42.334 -2.49902 -65.001z
" />
    <glyph glyph-name="x" unicode="x" horiz-adv-x="472" 
d="M178 444l66 -85.002l65 82c10 14 21.333 25.333 34 34s26.667 13.167 42 13.5s30 -5.5 44 -17.5c38 -32.667 38.667 -71 2 -115l-95 -97l109 -117c18 -21.333 26.667 -43 26 -65s-10.667 -40.667 -30 -56c-42 -35.333 -84.333 -26.666 -127 26.001l-82 99l-77 -100
c-10 -14 -21.667 -25.333 -35 -34s-28.5 -12.667 -45.5 -12s-32.5 8.33398 -46.5 23.001c-15.333 19.333 -22 38.333 -20 57s10 36.667 24 54l107 113l-92 97c-17.333 20.667 -26.5 42 -27.5 64s9.16699 43 30.5 63c23.333 17.333 46.5 23 69.5 17s42.5 -20.667 58.5 -44z
" />
    <glyph glyph-name="y" unicode="y" horiz-adv-x="487" 
d="M194 -1l-167.002 363.999c-11.333 21.333 -13.833 44.333 -7.5 69s21.833 41.667 46.5 51c27.333 10 50.833 9.83301 70.5 -0.5s34.167 -29.166 43.5 -56.499l86 -220l19 53l38 107l18 53c19.333 61.333 55 83.666 107 66.999c16.667 -5.33301 28.667 -14.833 36 -28.5
s10.5 -27.834 9.5 -42.501s-4.5 -29.667 -10.5 -45l-151 -373c-30 -77.333 -59.833 -131.166 -89.5 -161.499s-66.5 -45.5 -110.5 -45.5c-34.667 0 -63.334 5.66699 -86.001 17c-20.667 10.667 -34.667 25 -42 43s-7 36.667 1 56c11.333 29.333 34.333 41 69 35
c3.33301 -0.666992 8.5 -2 15.5 -4s13.833 -3.66699 20.5 -5s13.334 -2 20.001 -2c14.667 0 26.334 5.33301 35.001 16s18.334 28.334 29.001 53.001z" />
    <glyph glyph-name="z" unicode="z" horiz-adv-x="452" 
d="M101 490h245.999c29.333 0 51.5 -7.33301 66.5 -22s21.833 -32.5 20.5 -53.5s-9.66602 -41.167 -24.999 -60.5l-189 -214h139c53.333 0 80 -23.333 80 -70s-26.667 -70 -80 -70h-260c-27.333 -0 -48.5 7.83301 -63.5 23.5s-22 34 -21 55s8.83301 39.5 23.5 55.5l202 216
h-139c-53.333 0 -80 23.333 -80 70s26.667 70 80 70z" />
    <glyph glyph-name="braceleft" unicode="{" horiz-adv-x="368" 
d="M177 345c43.333 -18.667 65 -56 65 -112v-147c0 -17.333 8 -26 24 -26c4 0 9.5 1 16.5 3s12.5 3.33301 16.5 4c13.333 2 25.833 -0.5 37.5 -7.5s19.834 -19.5 24.501 -37.5c4 -16 2.33301 -31.833 -5 -47.5s-20 -28.167 -38 -37.5c-21.333 -11.333 -49 -17 -83 -17
c-50 0 -87.333 15.333 -112 46s-37 71 -37 121v132c0 6 -0.5 11.5 -1.5 16.5s-3 9.83301 -6 14.5l-7 11c-1.66699 2.66699 -4.66699 6.5 -9 11.5s-7.16602 8.16699 -8.49902 9.5c-16.667 19.333 -25 40.333 -25 63s8.33301 43.667 25 63
c1.33301 1.33301 4.16602 4.5 8.49902 9.5s7.33301 8.83301 9 11.5l7 11c3 4.66699 5 9.5 6 14.5s1.5 10.5 1.5 16.5v132c0 50 12.333 90.333 37 121s62 46 112 46c34 0 61.667 -5.66699 83 -17c18 -9.33301 30.667 -21.833 38 -37.5s9 -31.5 5 -47.5
c-4.66699 -18 -12.834 -30.5 -24.501 -37.5s-24.167 -9.5 -37.5 -7.5c-4 0.666992 -9.5 2 -16.5 4s-12.5 3 -16.5 3c-16 0 -24 -8.66699 -24 -26v-147c0 -56 -21.667 -93.333 -65 -112z" />
    <glyph glyph-name="bar" unicode="|" horiz-adv-x="243" 
d="M54 -41v772.002c0 20 5.83301 36.5 17.5 49.5s28.5 19.5 50.5 19.5s38.667 -6.33301 50 -19s17 -29.334 17 -50.001v-772c0 -20.667 -5.66699 -37.334 -17 -50.001s-28 -19 -50 -19s-38.833 6.5 -50.5 19.5s-17.5 29.5 -17.5 49.5z" />
    <glyph glyph-name="braceright" unicode="}" horiz-adv-x="368" 
d="M199 345c-43.333 18.667 -65 56 -65 112v147c0 17.333 -8 26 -24 26c-4 0 -9.5 -1 -16.5 -3s-12.5 -3.33301 -16.5 -4c-13.333 -2 -25.833 0.5 -37.5 7.5s-19.834 19.5 -24.501 37.5c-4 16 -2.33301 31.833 5 47.5s20 28.167 38 37.5c21.333 11.333 49 17 83 17
c50 0 87.333 -15.333 112 -46s37 -71 37 -121v-132c0 -6 0.5 -11.5 1.5 -16.5s3 -9.83301 6 -14.5l7 -11c1.66699 -2.66699 4.66699 -6.5 9 -11.5s7.16602 -8.16699 8.49902 -9.5c16.667 -19.333 25 -40.333 25 -63s-8.33301 -43.667 -25 -63
c-1.33301 -1.33301 -4.16602 -4.5 -8.49902 -9.5s-7.33301 -8.83301 -9 -11.5l-7 -11c-3 -4.66699 -5 -9.5 -6 -14.5s-1.5 -10.5 -1.5 -16.5v-132c0 -50 -12.333 -90.333 -37 -121s-62 -46 -112 -46c-34 0 -61.667 5.66699 -83 17c-18 9.33301 -30.667 21.833 -38 37.5
s-9 31.5 -5 47.5c4.66699 18 12.834 30.5 24.501 37.5s24.167 9.5 37.5 7.5c4 -0.666992 9.5 -2 16.5 -4s12.5 -3 16.5 -3c16 0 24 8.66699 24 26v147c0 56 21.667 93.333 65 112z" />
    <glyph glyph-name="asciitilde" unicode="~" horiz-adv-x="493" 
d="M322 358c11.333 0 23.3311 4.33105 35.998 12.998c34.667 25.333 64.334 26 89.001 2c13.333 -12.667 19.166 -28.667 17.499 -48s-10.5 -37.666 -26.5 -54.999c-31.333 -34 -69.666 -51 -114.999 -51c-18 0 -43.833 5.83301 -77.5 17.5s-57.167 17.5 -70.5 17.5
c-12.667 0 -26.667 -5 -42 -15c-33.333 -22 -61.333 -22.667 -84 -2c-12.667 10 -18.5 25.833 -17.5 47.5s9.83301 40.834 26.5 57.501c32.667 33.333 70.667 50 114 50c20.667 0 48.334 -5.66699 83.001 -17s57 -17 67 -17z" />
    <glyph glyph-name="uni00A0" unicode="&#xa0;" horiz-adv-x="230" 
 />
    <glyph glyph-name="exclamdown" unicode="&#xa1;" horiz-adv-x="283" 
d="M47 606c0 26.667 8 47.333 24 62s39.333 22 70 22c30 0 53.333 -7.5 70 -22.5s25 -35.5 25 -61.5s-8.33301 -46.667 -25 -62s-40 -23 -70 -23s-53.167 7.66699 -69.5 23s-24.5 36 -24.5 62zM56 83.999v300c0 24.667 7.5 45 22.5 61s35.833 24 62.5 24
c27.333 0 48.333 -8 63 -24s22 -36.333 22 -61v-300c0 -24 -7.5 -44 -22.5 -60s-35.833 -24 -62.5 -24s-47.5 8 -62.5 24s-22.5 36 -22.5 60z" />
    <glyph glyph-name="cent" unicode="&#xa2;" horiz-adv-x="554" 
d="M459 36c-20 -16 -42.334 -27.667 -67.001 -35v-22c0 -24.667 -6.5 -45 -19.5 -61s-33.167 -24 -60.5 -24s-47.5 8 -60.5 24s-19.5 36.333 -19.5 61v20c-51.333 13.333 -91.5 40.833 -120.5 82.5s-43.5 95.5 -43.5 161.5c0 64 14.667 117.333 44 160
s69.333 71.334 120 86.001v22c0 24.667 6.5 45 19.5 61s33.167 24 60.5 24s47.5 -8 60.5 -24s19.5 -36.333 19.5 -61v-20c18 -4 34 -10 48 -18c36 -20.667 48.333 -50.667 37 -90c-10.667 -34.667 -41.667 -47.667 -93 -39c-25.333 4 -44.333 6 -57 6
c-56 0 -84 -36.667 -84 -110c0 -32 7.83301 -56.667 23.5 -74s34.834 -26 57.501 -26c14.667 0 39 6.33301 73 19c41.333 15.333 71 8 89 -22c9.33301 -13.333 11.5 -29.833 6.5 -49.5s-16.167 -36.834 -33.5 -51.501z" />
    <glyph glyph-name="sterling" unicode="&#xa3;" horiz-adv-x="554" 
d="M366 233l-48.0039 0.00195312c0 -39.333 -9 -67 -27 -83h158c24.667 0 44.334 -6.66699 59.001 -20s22 -31.666 22 -54.999c0 -24 -7.33301 -42.5 -22 -55.5s-34.334 -19.5 -59.001 -19.5h-334c-24.667 0 -44.334 6.5 -59.001 19.5s-22 31.5 -22 55.5
c0 23.333 7.33301 41.666 22 54.999s34.334 20 59.001 20c10.667 0 20.667 4.5 30 13.5s14 21.833 14 38.5c0 9.33301 -1.66699 19.666 -5 30.999h-43c-54 0 -81 22.667 -81 68c0 38.667 21.333 60.667 64 66c-19.333 44 -29 84.667 -29 122c0 67.333 21.5 119.333 64.5 156
s100.5 55 172.5 55s129.667 -15.667 173 -47c38.667 -28.667 48.334 -63.334 29.001 -104.001c-10 -20.667 -26 -32 -48 -34s-45 2 -69 12c-27.333 8.66699 -54.666 13 -81.999 13c-19.333 0 -34.166 -5.83301 -44.499 -17.5s-15.5 -26.834 -15.5 -45.501
c0 -33.333 12 -69.666 36 -108.999h85c24.667 0 44.334 -5.66699 59.001 -17s22 -28 22 -50c0 -45.333 -27 -68 -81 -68z" />
    <glyph glyph-name="currency" unicode="&#xa4;" horiz-adv-x="590" 
d="M90 351c0 39.333 7.33203 75.333 21.999 108l-26 26c-18.667 17.333 -29.334 37.666 -32.001 60.999s5 44.333 23 63c14.667 13.333 30 20.666 46 21.999s30.333 -1.5 43 -8.5s24 -16.833 34 -29.5l23 -29c32 12.667 65 19 99 19c33.333 0 66 -6.33301 98 -19l23 29
c10 12.667 21.333 22.5 34 29.5s27 9.83301 43 8.5s31.333 -8.66602 46 -21.999c18 -18.667 25.667 -39.667 23 -63s-13.334 -43.666 -32.001 -60.999l-26 -25c15.333 -32 23 -68.333 23 -109s-7.66699 -77 -23 -109l26 -25c18.667 -17.333 29.334 -37.666 32.001 -60.999
s-5 -44.333 -23 -63c-14.667 -13.333 -30 -20.666 -46 -21.999s-30.333 1.5 -43 8.5s-24 16.833 -34 29.5l-23 27c-30 -12 -62.667 -18 -98 -18c-37.333 0 -70.666 6.33301 -99.999 19l-22 -28c-10 -12.667 -21.333 -22.5 -34 -29.5s-27 -9.83301 -43 -8.5
s-31.333 8.66602 -46 21.999c-18 18.667 -25.667 39.667 -23 63s13.334 43.666 32.001 60.999l26 25c-14.667 32.667 -22 69 -22 109zM229.999 350c0 -27.333 8.66699 -50.333 26 -69s39.333 -28 66 -28s48.667 9.33301 66 28s26 41.667 26 69s-8.66699 50.5 -26 69.5
s-39.333 28.5 -66 28.5s-48.667 -9.5 -66 -28.5s-26 -42.167 -26 -69.5z" />
    <glyph glyph-name="yen" unicode="&#xa5;" horiz-adv-x="554" 
d="M378 321l52.999 -0.000976562c37.333 0 56 -15 56 -45s-18.667 -45 -56 -45h-66v-36h66c37.333 0 56 -15 56 -45s-18.667 -45 -56 -45h-66v-14c0 -27.333 -7.16699 -49.333 -21.5 -66s-35.833 -25 -64.5 -25s-50.167 8.33301 -64.5 25s-21.5 38.667 -21.5 66v14h-65
c-37.333 0 -56 15 -56 45s18.667 45 56 45h65v36h-65c-37.333 0 -56 15 -56 45s18.667 45 56 45h48l-144 224c-14.667 19.333 -21.5 42 -20.5 68s13.833 46.667 38.5 62c29.333 14.667 53.833 17.834 73.5 9.50098s36.5 -25.166 50.5 -50.499l112 -192l101 187
c30.667 60.667 71.334 76 122.001 46c41.333 -24.667 46.333 -64.334 15 -119.001z" />
    <glyph glyph-name="brokenbar" unicode="&#xa6;" horiz-adv-x="243" 
d="M54 -41v272.002c0 20 5.83301 36.5 17.5 49.5s28.5 19.5 50.5 19.5s38.667 -6.33301 50 -19s17 -29.334 17 -50.001v-272c0 -20.667 -5.66699 -37.334 -17 -50.001s-28 -19 -50 -19s-38.833 6.5 -50.5 19.5s-17.5 29.5 -17.5 49.5zM54 459.002v272.002
c0 20 5.83301 36.5 17.5 49.5s28.5 19.5 50.5 19.5s38.667 -6.33301 50 -19s17 -29.334 17 -50.001v-272c0 -20.667 -5.66699 -37.334 -17 -50.001s-28 -19 -50 -19s-38.833 6.5 -50.5 19.5s-17.5 29.5 -17.5 49.5z" />
    <glyph glyph-name="section" unicode="&#xa7;" horiz-adv-x="575" 
d="M495 -74c0 -54.667 -19.3311 -97.9941 -57.998 -129.994s-93 -48 -163 -48c-58 0 -107.333 10 -148 30c-54.667 26.667 -73 62 -55 106c5.33301 13.333 12.333 23 21 29s19 8.66699 31 8s22.5 -2.33398 31.5 -5.00098s20.5 -6.66699 34.5 -12
c26.667 -10.667 53.334 -16 80.001 -16c37.333 0 56 12.333 56 37c0 10.667 -5 21 -15 31s-19.833 17.5 -29.5 22.5s-23.167 11.5 -40.5 19.5l-3 1.5c-0.666992 0.333008 -1.66699 0.666016 -3 0.999023s-2.33301 0.833008 -3 1.5c-62.667 28 -109 57.5 -139 88.5
s-45 68.833 -45 113.5c0 39.333 11.5 73.666 34.5 102.999s52.833 52.666 89.5 69.999c-56.667 41.333 -85 89.666 -85 144.999c0 54.667 19.333 98 58 130s93 48 163 48c60 0 109.667 -9.66699 149 -29c26 -12.667 43.833 -28.5 53.5 -47.5s9.83398 -38.833 0.500977 -59.5
c-4.66699 -10.667 -10.834 -19 -18.501 -25s-14.834 -9.83301 -21.501 -11.5s-15.334 -1.33398 -26.001 0.999023s-19 4.5 -25 6.5s-15 5.33301 -27 10c-24.667 10 -51.334 15 -80.001 15c-37.333 0 -56 -12.333 -56 -37c0 -10.667 5 -21 15 -31s19.833 -17.5 29.5 -22.5
s23.167 -11.5 40.5 -19.5c4 -2 7 -3.33301 9 -4c62.667 -28 109 -57.5 139 -88.5s45 -68.833 45 -113.5c0 -39.333 -11.667 -73.833 -35 -103.5s-53.333 -53.167 -90 -70.5c57.333 -42 86 -90 86 -144zM364.002 220.006c0 34.667 -26.667 65.666 -80 92.999
c-44.667 -17.333 -67 -45.666 -67 -84.999c0 -34.667 26.667 -65.667 80 -93c44.667 16 67 44.333 67 85z" />
    <glyph glyph-name="dieresis" unicode="&#xa8;" 
d="M62 620c0 25.333 7.33301 45 22 59s35.334 21 62.001 21c26 0 46.5 -7 61.5 -21s22.5 -33.667 22.5 -59c0 -26 -7.33301 -45.833 -22 -59.5s-35.334 -20.5 -62.001 -20.5c-56 0 -84 26.667 -84 80zM278 620c0 25.333 7.33301 45 22 59s35.334 21 62.001 21
c26 0 46.5 -7 61.5 -21s22.5 -33.667 22.5 -59c0 -26 -7.33301 -45.833 -22 -59.5s-35.334 -20.5 -62.001 -20.5c-56 0 -84 26.667 -84 80z" />
    <glyph glyph-name="copyright" unicode="&#xa9;" horiz-adv-x="774" 
d="M410 417c-32 0 -48.001 -24.333 -48.001 -73c0 -46.667 15.333 -70 46 -70c10.667 0 24 3 40 9c32 12 56.667 7 74 -15c8.66699 -10.667 12.334 -23.834 11.001 -39.501s-8 -30.167 -20 -43.5c-23.333 -27.333 -61 -41 -113 -41c-62.667 0 -110.5 17.833 -143.5 53.5
s-49.5 84.5 -49.5 146.5c0 64 17.667 113.833 53 149.5s82 53.5 140 53.5c43.333 0 77 -10 101 -30c23.333 -19.333 29.333 -43.666 18 -72.999c-6 -14.667 -14.167 -24.5 -24.5 -29.5s-25.833 -5.5 -46.5 -1.5c-13.333 2.66699 -26 4 -38 4zM31.999 345
c0 106 31.833 191.667 95.5 257s149.834 98 258.501 98s195.167 -32.667 259.5 -98s96.5 -151 96.5 -257s-32 -191.667 -96 -257s-150.667 -98 -260 -98c-108.667 0 -194.834 32.667 -258.501 98s-95.5 151 -95.5 257zM146.999 345c0 -76.667 21.833 -136.667 65.5 -180
s101.5 -65 173.5 -65s130.167 21.667 174.5 65s66.5 103.333 66.5 180s-22.167 136.667 -66.5 180s-102.5 65 -174.5 65s-129.833 -21.667 -173.5 -65s-65.5 -103.333 -65.5 -180z" />
    <glyph glyph-name="ordfeminine" unicode="&#xaa;" horiz-adv-x="419" 
d="M104 592c-27.333 -4 -44.332 4 -50.999 24c-8 25.333 1.66699 45 29 59c32 16.667 75.667 25 131 25c120 0 180 -47.333 180 -142v-162c0 -21.333 -6 -39.333 -18 -54s-30.667 -22 -56 -22c-34 0 -57 13.333 -69 40c-7.33301 -13.333 -20 -25 -38 -35s-40 -15 -66 -15
c-36.667 0 -65.834 11 -87.501 33s-32.5 53.667 -32.5 95c0 39.333 12 70.5 36 93.5s56.667 34.5 98 34.5c28 0 55.667 -3 83 -9v17c0 21.333 -16.333 32 -49 32c-10 0 -20 -0.666992 -30 -2s-21 -3.33301 -33 -6zM206.001 400c24.667 0 37 25.667 37 77v24
c-8 3.33301 -18 5 -30 5c-24.667 0 -37 -20.333 -37 -61c0 -30 10 -45 30 -45z" />
    <glyph glyph-name="guillemotleft" unicode="&#xab;" horiz-adv-x="619" 
d="M58 312l126 120.999c18 18.667 38 28.5 60 29.5s41.667 -7.16699 59 -24.5c16 -17.333 22.5 -36.166 19.5 -56.499s-14.167 -39.833 -33.5 -58.5l-82 -75l84 -76c18.667 -18.667 29.167 -38.834 31.5 -60.501s-5.16699 -41.5 -22.5 -59.5
c-18 -15.333 -37.5 -21.666 -58.5 -18.999s-39.833 12 -56.5 28l-129 121c-20 20 -29.667 41.833 -29 65.5s11 45.167 31 64.5zM319 311.999l126 120.999c18 18.667 38 28.5 60 29.5s41.667 -7.16699 59 -24.5c16 -17.333 22.5 -36.166 19.5 -56.499
s-14.167 -39.833 -33.5 -58.5l-82 -75l84 -76c18.667 -18.667 29.167 -38.834 31.5 -60.501s-5.16699 -41.5 -22.5 -59.5c-18 -15.333 -37.5 -21.666 -58.5 -18.999s-39.833 12 -56.5 28l-129 121c-20 20 -29.667 41.833 -29 65.5s11 45.167 31 64.5z" />
    <glyph glyph-name="logicalnot" unicode="&#xac;" horiz-adv-x="533" 
d="M324 215v40.999h-196c-52.667 0 -79 23.333 -79 70c0 22.667 7.16699 40 21.5 52s33.5 18 57.5 18h280c24 0 42.667 -6.66699 56 -20s20 -31.666 20 -54.999v-106c0 -24.667 -6.66699 -45 -20 -61s-33.333 -24 -60 -24s-46.667 8 -60 24s-20 36.333 -20 61z" />
    <glyph glyph-name="uni00AD" unicode="&#xad;" horiz-adv-x="385" 
d="M306 190h-226.999c-24 0 -43.5 6.5 -58.5 19.5s-22.5 31.5 -22.5 55.5c0 22.667 7.5 40.834 22.5 54.501s34.5 20.5 58.5 20.5h227c24 0 43.5 -6.83301 58.5 -20.5s22.5 -31.834 22.5 -54.501c0 -24 -7.33301 -42.5 -22 -55.5s-34.334 -19.5 -59.001 -19.5z" />
    <glyph glyph-name="registered" unicode="&#xae;" horiz-adv-x="672" 
d="M256 502l-0.000976562 -153.999c0 -20.667 8.66699 -31 26 -31s26 10.333 26 31v51h24l41 -63c11.333 -18 24.333 -23 39 -15c7.33301 4 11.333 10.167 12 18.5s-1.66602 16.166 -6.99902 23.499l-32 48c25.333 11.333 38 33 38 65c0 22 -7.66699 39.333 -23 52
s-36.333 19 -63 19c-24 0 -43 -2.33301 -57 -7c-16 -5.33301 -24 -18 -24 -38zM71.999 435.001c0 80 24.167 144.167 72.5 192.5s112.166 72.5 191.499 72.5c80 0 144 -24 192 -72s72 -112.333 72 -193s-24 -145 -72 -193s-112 -72 -192 -72
c-79.333 0 -143.166 24.167 -191.499 72.5s-72.5 112.5 -72.5 192.5zM186.999 435.001c0 -50 14.333 -88.333 43 -115s64 -40 106 -40s77.333 13.333 106 40s43 65 43 115s-14.333 88.333 -43 115s-64 40 -106 40s-77.333 -13.333 -106 -40s-43 -65 -43 -115z
M336.999 441.001h-29v58c6 2 15.667 3 29 3c20.667 0 31 -9.33301 31 -28c0 -22 -10.333 -33 -31 -33z" />
    <glyph glyph-name="macron" unicode="&#xaf;" 
d="M355 545h-202c-46.667 0 -70 18.333 -70 55s23.333 55 70 55h202c46.667 0 70 -18.333 70 -55s-23.333 -55 -70 -55z" />
    <glyph glyph-name="degree" unicode="&#xb0;" horiz-adv-x="548" 
d="M99 532c0 52 16.167 93 48.5 123s74.5 45 126.5 45c51.333 0 93.333 -15 126 -45s49 -71 49 -123c0 -52.667 -16.167 -94 -48.5 -124s-74.5 -45 -126.5 -45s-94.167 15 -126.5 45s-48.5 71.333 -48.5 124zM224 532c0 -15.333 4.66699 -27.333 14 -36s21.333 -13 36 -13
s26.667 4.33301 36 13s14 20.667 14 36s-4.66699 27.166 -14 35.499s-21.333 12.5 -36 12.5s-26.667 -4.16699 -36 -12.5s-14 -20.166 -14 -35.499z" />
    <glyph glyph-name="plusminus" unicode="&#xb1;" horiz-adv-x="533" 
d="M405 266h-64c-8 -40.667 -33 -61 -75 -61c-43.333 0 -68.333 20.333 -75 61h-63c-52.667 0 -79 23.333 -79 70c0 22.667 7.16699 40 21.5 52s33.5 18 57.5 18h61v62c0 24.667 6.16699 45 18.5 61s31.833 24 58.5 24s46.167 -8 58.5 -24s18.5 -36.333 18.5 -61v-62h62
c24.667 0 44 -6 58 -18s21 -29.333 21 -52c0 -46.667 -26.333 -70 -79 -70zM405 46h-277c-52.667 0 -79 23.333 -79 70c0 22.667 7.16699 40 21.5 52s33.5 18 57.5 18h277c24.667 0 44 -6 58 -18s21 -29.333 21 -52c0 -46.667 -26.333 -70 -79 -70z" />
    <glyph glyph-name="twosuperior" unicode="&#xb2;" horiz-adv-x="329" 
d="M249 445c50 0 75.002 -20.6631 75.002 -61.9961c0 -42 -25 -63 -75 -63h-154c-24.667 0 -42 5.66699 -52 17s-15 28.666 -15 51.999c0 29.333 7.16699 54.666 21.5 75.999s30.166 36.666 47.499 45.999s33.166 18.5 47.499 27.5s21.5 16.833 21.5 23.5
s-5.33301 10 -16 10c-10 0 -26.333 -3.66699 -49 -11c-14 -5.33301 -27.5 -5.66602 -40.5 -0.999023s-22.167 13.667 -27.5 27c-10.667 28.667 -2.66699 53.667 24 75c36 25.333 77.333 38 124 38c44 0 77.5 -10.333 100.5 -31s34.5 -48.334 34.5 -83.001
c0 -25.333 -6.33301 -46.833 -19 -64.5s-26.667 -29.834 -42 -36.501l-46.5 -20.5c-15.667 -7 -25.167 -13.5 -28.5 -19.5h69z" />
    <glyph glyph-name="threesuperior" unicode="&#xb3;" horiz-adv-x="353" 
d="M101 442c25.333 -8 44.668 -12.0029 58.001 -12.0029c18.667 0 28 6 28 18c0 8 -4.33301 13.667 -13 17s-26 5 -52 5c-28.667 0 -43 12 -43 36c0 18.667 9.33301 32 28 40l60 28h-59c-46 0 -69 19.333 -69 58s23 58 69 58h139c51.333 0 77 -19.333 77 -58
c0 -23.333 -12.667 -42.333 -38 -57l-50 -28c31.333 -3.33301 56 -14.5 74 -33.5s27 -41.167 27 -66.5c0 -46 -15.333 -80.333 -46 -103s-72 -34 -124 -34c-45.333 0 -82 8.66699 -110 26c-16.667 10 -26.834 23.333 -30.501 40s-2.16699 30.334 4.5 41.001
c6.66699 14.667 17.5 23.834 32.5 27.501s27.5 2.83398 37.5 -2.49902z" />
    <glyph glyph-name="acute" unicode="&#xb4;" 
d="M362 611l-89 -56.999c-18.667 -12 -36.667 -17 -54 -15s-30.333 10.667 -39 26c-20 34 -11 63.333 27 88l89 57c40 25.333 70.667 21.666 92 -11.001c10 -12 13.167 -26.5 9.5 -43.5s-15.5 -31.833 -35.5 -44.5z" />
    <glyph glyph-name="mu" unicode="&#xb5;" horiz-adv-x="562" 
d="M219 5v-119.999c0 -24.667 -7.33301 -45 -22 -61s-35.667 -24 -63 -24c-26.667 0 -47.5 8 -62.5 24s-22.5 36.333 -22.5 61v520c0 25.333 7.5 45.833 22.5 61.5s35.833 23.5 62.5 23.5s47.5 -7.83301 62.5 -23.5s22.5 -36.167 22.5 -61.5v-208
c0 -18.667 4.33301 -33.667 13 -45s20.334 -17 35.001 -17c29.333 0 49.333 13.5 60 40.5s16 63.833 16 110.5v119c0 25.333 7.5 45.833 22.5 61.5s35.833 23.5 62.5 23.5s47.5 -7.83301 62.5 -23.5s22.5 -36.167 22.5 -61.5v-321c0 -24.667 -7.66699 -44.834 -23 -60.501
s-36 -23.5 -62 -23.5c-36.667 0 -62.334 15 -77.001 45c-6.66699 -16.667 -17.5 -30 -32.5 -40s-31.5 -15 -49.5 -15c-21.333 0 -38 5 -50 15z" />
    <glyph glyph-name="paragraph" unicode="&#xb6;" horiz-adv-x="507" 
d="M134 -41v321c-40 5.33301 -72.5 26.833 -97.5 64.5s-37.5 84.5 -37.5 140.5c0 58.667 17.667 107.5 53 146.5s81 58.5 137 58.5c28.667 0 49.167 -6.16699 61.5 -18.5s18.5 -31.166 18.5 -56.499v-656c0 -20.667 -5.66699 -37.334 -17 -50.001s-28 -19 -50 -19
s-38.833 6.5 -50.5 19.5s-17.5 29.5 -17.5 49.5zM303 621v-662.002c0 -20 5.83301 -36.5 17.5 -49.5s28.5 -19.5 50.5 -19.5s38.667 6.33301 50 19s17 29.334 17 50.001v662c0 20.667 -5.66699 37.334 -17 50.001s-28 19 -50 19s-38.833 -6.5 -50.5 -19.5
s-17.5 -29.5 -17.5 -49.5z" />
    <glyph glyph-name="periodcentered" unicode="&#xb7;" horiz-adv-x="278" 
d="M44 334c0 26.667 8.33301 49.167 25 67.5s40 27.5 70 27.5c29.333 0 52.5 -9.16699 69.5 -27.5s25.5 -40.833 25.5 -67.5c0 -27.333 -8.5 -49.833 -25.5 -67.5s-40.167 -26.5 -69.5 -26.5c-30 0 -53.333 8.83301 -70 26.5s-25 40.167 -25 67.5z" />
    <glyph glyph-name="cedilla" unicode="&#xb8;" 
d="M166 -157c20.667 -6 36.999 -8.99902 48.999 -8.99902c25.333 0 38 11.333 38 34c0 15.333 -14.333 26 -43 32c-22 5.33301 -30 20.333 -24 45l12 55c6.66699 29.333 25.667 41.666 57 36.999c13.333 -2 23.5 -7.83301 30.5 -17.5s8.83301 -21.5 5.5 -35.5l-7 -30
c40 0.666992 68.833 -8 86.5 -26s26.5 -40 26.5 -66c0 -27.333 -10.833 -51 -32.5 -71s-57.167 -30 -106.5 -30c-45.333 0 -81 5.66699 -107 17c-12 5.33301 -20.167 12.5 -24.5 21.5s-4.16602 19.167 0.500977 30.5c6.66699 14.667 19.667 19 39 13z" />
    <glyph glyph-name="onesuperior" unicode="&#xb9;" horiz-adv-x="316" 
d="M122 389l0.000976562 127.997l-21 -20c-8.66699 -8.66699 -19.667 -14.167 -33 -16.5s-27.333 1.83398 -42 12.501c-10.667 8.66699 -16 21.334 -16 38.001s7.33301 32.334 22 47.001l91 90c22.667 21.333 45.667 32 69 32s41.166 -7.33301 53.499 -22s18.5 -34 18.5 -58
v-231c0 -52.667 -24 -79 -72 -79c-46.667 0 -70 26.333 -70 79z" />
    <glyph glyph-name="ordmasculine" unicode="&#xba;" horiz-adv-x="407" 
d="M27 505c0 60 15 107.499 45 142.499s74 52.5 132 52.5s102 -17.5 132 -52.5s45 -82.5 45 -142.5c0 -59.333 -15 -106.666 -45 -141.999s-74 -53 -132 -53s-102 17.5 -132 52.5s-45 82.5 -45 142.5zM241 504.999c0 50 -12.333 75 -37 75s-37 -25 -37 -75
s12.333 -75 37 -75s37 25 37 75z" />
    <glyph glyph-name="guillemotright" unicode="&#xbb;" horiz-adv-x="619" 
d="M297 181l-126 -120.999c-18 -18.667 -38 -28.5 -60 -29.5s-41.667 7.16699 -59 24.5c-16 17.333 -22.5 36.166 -19.5 56.499s14.167 39.833 33.5 58.5l82 75l-84 76c-18.667 18.667 -29.167 38.834 -31.5 60.501s5.16699 41.5 22.5 59.5
c18 15.333 37.5 21.666 58.5 18.999s39.833 -12 56.5 -28l129 -121c20 -20 29.667 -41.833 29 -65.5s-11 -45.167 -31 -64.5zM558 181.001l-126 -120.999c-18 -18.667 -38 -28.5 -60 -29.5s-41.667 7.16699 -59 24.5c-16 17.333 -22.5 36.166 -19.5 56.499
s14.167 39.833 33.5 58.5l82 75l-84 76c-18.667 18.667 -29.167 38.834 -31.5 60.501s5.16699 41.5 22.5 59.5c18 15.333 37.5 21.666 58.5 18.999s39.833 -12 56.5 -28l129 -121c20 -20 29.667 -41.833 29 -65.5s-11 -45.167 -31 -64.5z" />
    <glyph glyph-name="onequarter" unicode="&#xbc;" horiz-adv-x="768" 
d="M695 83v-12.001c0 -47.333 -21 -71 -63 -71c-41.333 0 -62 23.667 -62 71v12h-98c-30.667 0 -50.667 12.333 -60 37s-4 49.334 16 74.001l131 155c7.33301 9.33301 13.5 16.333 18.5 21s12.333 9.16699 22 13.5s20.167 6.5 31.5 6.5c25.333 0 42.333 -7.33301 51 -22
s13 -34 13 -58v-130h4c36 0 54 -16.333 54 -49c0 -32 -18 -48 -54 -48h-4zM580 234.999l-51 -55h51v55zM202 46.999l228.001 649.002c14 39.333 40 53 78 41c17.333 -5.33301 28.666 -16 33.999 -32s4.66602 -31.667 -2.00098 -47l-227 -647
c-15.333 -43.333 -41.333 -59 -78 -47c-18 5.33301 -29.667 16.666 -35 33.999s-4.66602 33.666 2.00098 48.999zM119.001 389.001l0.000976562 127.997l-21 -20c-8.66699 -8.66699 -19.667 -14.167 -33 -16.5s-27.333 1.83398 -42 12.501
c-10.667 8.66699 -16 21.334 -16 38.001s7.33301 32.334 22 47.001l91 90c22.667 21.333 45.667 32 69 32s41.166 -7.33301 53.499 -22s18.5 -34 18.5 -58v-231c0 -52.667 -24 -79 -72 -79c-46.667 0 -70 26.333 -70 79z" />
    <glyph glyph-name="onehalf" unicode="&#xbd;" horiz-adv-x="768" 
d="M677 135l-69.002 -0.00390625c3.33301 6 12.833 12.5 28.5 19.5l46.5 20.5c15.333 6.66699 29.333 18.834 42 36.501s19 39.167 19 64.5c0 34.667 -11.5 62.334 -34.5 83.001s-56.5 31 -100.5 31c-46.667 0 -88 -12.667 -124 -38
c-27.333 -21.333 -35.333 -46.333 -24 -75c5.33301 -13.333 14.5 -22.333 27.5 -27s26.5 -4.33398 40.5 0.999023c22.667 7.33301 39 11 49 11c10.667 0 16 -3.33301 16 -10s-7.16699 -14.5 -21.5 -23.5s-30.166 -18.167 -47.499 -27.5s-33.166 -24.666 -47.499 -45.999
s-21.5 -46.666 -21.5 -75.999c0 -23.333 5 -40.666 15 -51.999s27.333 -17 52 -17h154c50 0 75 21 75 63c0 41.333 -25 62 -75 62zM118.998 388.996l0.000976562 127.997l-21 -20c-8.66699 -8.66699 -19.667 -14.167 -33 -16.5s-27.333 1.83398 -42 12.501
c-10.667 8.66699 -16 21.334 -16 38.001s7.33301 32.334 22 47.001l91 90c22.667 21.333 45.667 32 69 32s41.166 -7.33301 53.499 -22s18.5 -34 18.5 -58v-231c0 -52.667 -24 -79 -72 -79c-46.667 0 -70 26.333 -70 79zM201.999 46.9932l228.001 649.002
c14 39.333 40 53 78 41c17.333 -5.33301 28.666 -16 33.999 -32s4.66602 -31.667 -2.00098 -47l-227 -647c-15.333 -43.333 -41.333 -59 -78 -47c-18 5.33301 -29.667 16.666 -35 33.999s-4.66602 33.666 2.00098 48.999z" />
    <glyph glyph-name="threequarters" unicode="&#xbe;" horiz-adv-x="804" 
d="M102 442c25.333 -8 44.668 -12.0029 58.001 -12.0029c18.667 0 28 6 28 18c0 8 -4.33301 13.667 -13 17s-26 5 -52 5c-28.667 0 -43 12 -43 36c0 18.667 9.33301 32 28 40l60 28h-59c-46 0 -69 19.333 -69 58s23 58 69 58h139c51.333 0 77 -19.333 77 -58
c0 -23.333 -12.667 -42.333 -38 -57l-50 -28c31.333 -3.33301 56 -14.5 74 -33.5s27 -41.167 27 -66.5c0 -46 -15.333 -80.333 -46 -103s-72 -34 -124 -34c-45.333 0 -82 8.66699 -110 26c-16.667 10 -26.834 23.333 -30.501 40s-2.16699 30.334 4.5 41.001
c6.66699 14.667 17.5 23.834 32.5 27.501s27.5 2.83398 37.5 -2.49902zM736.002 82.9971v-12.001c0 -47.333 -21 -71 -63 -71c-41.333 0 -62 23.667 -62 71v12h-98c-30.667 0 -50.667 12.333 -60 37s-4 49.334 16 74.001l131 155c7.33301 9.33301 13.5 16.333 18.5 21
s12.333 9.16699 22 13.5s20.167 6.5 31.5 6.5c25.333 0 42.333 -7.33301 51 -22s13 -34 13 -58v-130h4c36 0 54 -16.333 54 -49c0 -32 -18 -48 -54 -48h-4zM621.002 234.996l-51 -55h51v55zM251.002 46.9961l228.001 649.002c14 39.333 40 53 78 41
c17.333 -5.33301 28.666 -16 33.999 -32s4.66602 -31.667 -2.00098 -47l-227 -647c-15.333 -43.333 -41.333 -59 -78 -47c-18 5.33301 -29.667 16.666 -35 33.999s-4.66602 33.666 2.00098 48.999z" />
    <glyph glyph-name="questiondown" unicode="&#xbf;" horiz-adv-x="419" 
d="M197 -10c-64 0 -111.833 14.833 -143.5 44.5s-47.5 65.167 -47.5 106.5c0 31.333 7.16699 58 21.5 80s36.833 46 67.5 72c39.333 34 59 68.333 59 103c0 48.667 24.667 73 74 73c47.333 0 71 -25 71 -75c0 -51.333 -19.667 -97 -59 -137
c-22.667 -23.333 -38.167 -41.333 -46.5 -54s-12.5 -25.667 -12.5 -39c0 -22.667 14.667 -34 44 -34c19.333 0 43.666 7 72.999 21c18.667 9.33301 36.334 12.166 53.001 8.49902s29.334 -13.5 38.001 -29.5c8.66699 -12.667 10.167 -29.167 4.5 -49.5
s-19.5 -37.166 -41.5 -50.499c-42.667 -26.667 -94.334 -40 -155.001 -40zM319 606c0 -26 -8.16699 -46.666 -24.5 -61.999s-39.5 -23 -69.5 -23s-53.333 7.66699 -70 23s-25 36 -25 62s8.33301 46.5 25 61.5s40 22.5 70 22.5c30.667 0 54 -7.33301 70 -22
s24 -35.334 24 -62.001z" />
    <glyph glyph-name="Agrave" unicode="&#xc0;" horiz-adv-x="619" 
d="M457 69l-38.001 101h-221l-31 -89c-10 -30 -25 -52.667 -45 -68s-45.333 -17.333 -76 -6c-22.667 8 -36 23.833 -40 47.5s-0.333008 47.834 11 72.501l210 508c17.333 43.333 46.666 65 87.999 65c40 0 68.333 -19.333 85 -58l216 -512
c10.667 -21.333 12.834 -44.5 6.50098 -69.5s-21.5 -42.5 -45.5 -52.5c-27.333 -10.667 -51.666 -10.334 -72.999 0.999023s-37 31.333 -47 60zM306.999 470l-64 -166h129zM290.999 736l-114.999 51c-44 19.333 -58.333 47 -43 83c14.667 35.333 45 43 91 23l115 -53
c44 -20.667 57.667 -48 41 -82s-46.334 -41.333 -89.001 -22z" />
    <glyph glyph-name="Aacute" unicode="&#xc1;" horiz-adv-x="619" 
d="M457 69l-38.001 101h-221l-31 -89c-10 -30 -25 -52.667 -45 -68s-45.333 -17.333 -76 -6c-22.667 8 -36 23.833 -40 47.5s-0.333008 47.834 11 72.501l210 508c17.333 43.333 46.666 65 87.999 65c40 0 68.333 -19.333 85 -58l216 -512
c10.667 -21.333 12.834 -44.5 6.50098 -69.5s-21.5 -42.5 -45.5 -52.5c-27.333 -10.667 -51.666 -10.334 -72.999 0.999023s-37 31.333 -47 60zM306.999 470l-64 -166h129zM473.999 787l-115 -50.999c-44.667 -20 -74.334 -12.667 -89.001 22
c-15.333 34.667 -1.66602 62 41.001 82l115 53c44 19.333 74.333 11.666 91 -23.001c8 -18 8.16699 -34.167 0.5 -48.5s-22.167 -25.833 -43.5 -34.5z" />
    <glyph glyph-name="Acircumflex" unicode="&#xc2;" horiz-adv-x="619" 
d="M178 830l96 52c23.333 12 47.333 12 72 0l99 -50c44.667 -22 59 -50 43 -84c-8 -16.667 -20.167 -26.5 -36.5 -29.5s-33.5 0.833008 -51.5 11.5l-89 48l-91 -48c-20.667 -10.667 -39 -14 -55 -10s-27 13.667 -33 29c-13.333 31.333 2 58.333 46 81zM457 69l-38.001 101
h-221l-31 -89c-10 -30 -25 -52.667 -45 -68s-45.333 -17.333 -76 -6c-22.667 8 -36 23.833 -40 47.5s-0.333008 47.834 11 72.501l210 508c17.333 43.333 46.666 65 87.999 65c40 0 68.333 -19.333 85 -58l216 -512c10.667 -21.333 12.834 -44.5 6.50098 -69.5
s-21.5 -42.5 -45.5 -52.5c-27.333 -10.667 -51.666 -10.334 -72.999 0.999023s-37 31.333 -47 60zM306.999 470l-64 -166h129z" />
    <glyph glyph-name="Atilde" unicode="&#xc3;" horiz-adv-x="619" 
d="M457 69l-38.001 101h-221l-31 -89c-10 -30 -25 -52.667 -45 -68s-45.333 -17.333 -76 -6c-22.667 8 -36 23.833 -40 47.5s-0.333008 47.834 11 72.501l210 508c17.333 43.333 46.666 65 87.999 65c40 0 68.333 -19.333 85 -58l216 -512
c10.667 -21.333 12.834 -44.5 6.50098 -69.5s-21.5 -42.5 -45.5 -52.5c-27.333 -10.667 -51.666 -10.334 -72.999 0.999023s-37 31.333 -47 60zM306.999 470l-64 -166h129zM389.999 826c9.33301 0 19.335 3.66699 30.002 11c30 22.667 55 24 75 4
c11.333 -10.667 16.166 -23.667 14.499 -39s-8.83398 -30 -21.501 -44c-27.333 -30 -59.333 -45 -96 -45c-20 0 -46 5.66699 -78 17s-52.667 17 -62 17c-10.667 0 -23.334 -5 -38.001 -15c-25.333 -18 -48 -19 -68 -3c-11.333 9.33301 -16.666 22.5 -15.999 39.5
s8 32.5 22 46.5c28.667 28 60.667 42 96 42c22 0 49.5 -5.16699 82.5 -15.5s52.833 -15.5 59.5 -15.5z" />
    <glyph glyph-name="Adieresis" unicode="&#xc4;" horiz-adv-x="619" 
d="M457 69l-38.001 101h-221l-31 -89c-10 -30 -25 -52.667 -45 -68s-45.333 -17.333 -76 -6c-22.667 8 -36 23.833 -40 47.5s-0.333008 47.834 11 72.501l210 508c17.333 43.333 46.666 65 87.999 65c40 0 68.333 -19.333 85 -58l216 -512
c10.667 -21.333 12.834 -44.5 6.50098 -69.5s-21.5 -42.5 -45.5 -52.5c-27.333 -10.667 -51.666 -10.334 -72.999 0.999023s-37 31.333 -47 60zM306.999 470l-64 -166h129zM104.999 781c0 24 9.33203 41.5 27.999 52.5s42.334 16.5 71.001 16.5c66.667 0 100 -23 100 -69
c0 -45.333 -33.333 -68 -100 -68c-66 0 -99 22.667 -99 68zM334.998 781c0 46 33 69 99 69c29.333 0 53.333 -5.5 72 -16.5s28 -28.5 28 -52.5c0 -45.333 -33.333 -68 -100 -68c-66 0 -99 22.667 -99 68z" />
    <glyph glyph-name="Aring" unicode="&#xc5;" horiz-adv-x="619" 
d="M457 70l-36.002 100.001h-223l-31 -89c-10 -30 -25 -52.667 -45 -68s-45.333 -17.333 -76 -6c-22.667 8 -36 23.833 -40 47.5s-0.333008 47.834 11 72.501l212 515c4 10.667 9 19.667 15 27c-42 14 -63 41.667 -63 83c0 61.333 44.667 92 134 92
c90 0 135 -30.667 135 -92c0 -43.333 -21.667 -71.333 -65 -84c6 -6.66699 11 -15.334 15 -26.001l216 -511c10.667 -21.333 12.834 -44.5 6.50098 -69.5s-21.5 -42.5 -45.5 -52.5c-27.333 -10.667 -51.666 -10.334 -72.999 0.999023s-37 31.333 -47 60zM306.998 473.001
l-64 -169h131zM280.998 752.001c0 -21.333 11.333 -32 34 -32c23.333 0 35 10.667 35 32s-11.667 32 -35 32c-22.667 0 -34 -10.667 -34 -32z" />
    <glyph glyph-name="AE" unicode="&#xc6;" horiz-adv-x="854" 
d="M365 93l-0.00195312 36.999h-169l-44 -75c-9.33301 -15.333 -20.166 -27.666 -32.499 -36.999s-27.166 -15.333 -44.499 -18s-35.333 3 -54 17c-14.667 10 -24 22.833 -28 38.5s-4 30.667 0 45s10.667 28.166 20 41.499l349 498c22 33.333 51.333 50 88 50h304
c27.333 0 48.833 -7 64.5 -21s23.5 -33.667 23.5 -59c0 -24 -7.83301 -43.333 -23.5 -58s-37.167 -22 -64.5 -22h-221v-100h170c27.333 0 48.833 -7 64.5 -21s23.5 -33.667 23.5 -59c0 -24 -7.83301 -43.333 -23.5 -58s-37.167 -22 -64.5 -22h-170v-110h230
c27.333 0 48.833 -7 64.5 -21s23.5 -33.667 23.5 -59c0 -24 -7.83301 -43.333 -23.5 -58s-37.167 -22 -64.5 -22h-304c-27.333 0 -49.833 8.83301 -67.5 26.5s-26.5 39.834 -26.5 66.501zM364.998 403.999l-92 -143h92v143z" />
    <glyph glyph-name="Ccedilla" unicode="&#xc7;" horiz-adv-x="629" 
d="M361 540c-42.667 0 -76.168 -17.3359 -100.501 -52.0029s-36.5 -83 -36.5 -145c0 -62.667 13.5 -110.5 40.5 -143.5s60.833 -49.5 101.5 -49.5c14 0 28.333 2 43 6s25.834 7.83301 33.501 11.5s20.5 10.167 38.5 19.5c46 23.333 81 20 105 -10
c13.333 -15.333 17.166 -35.666 11.499 -60.999s-20.834 -47.666 -45.501 -66.999c-41.333 -33.333 -96 -52.333 -164 -57l-9 -38c40 0.666992 68.833 -8 86.5 -26s26.5 -40 26.5 -66c0 -27.333 -10.833 -51 -32.5 -71s-57.167 -30 -106.5 -30
c-45.333 0 -81 5.66699 -107 17c-12 5.33301 -20.167 12.5 -24.5 21.5s-4.16602 19.167 0.500977 30.5c6.66699 14.667 19.667 19 39 13c20.667 -6 37 -9 49 -9c25.333 0 38 11.333 38 34c0 15.333 -14.333 26 -43 32c-22 5.33301 -30 20.333 -24 45l10 49
c-84.667 11.333 -148.667 47.333 -192 108s-65 141.334 -65 242.001c0 108.667 29.333 195.167 88 259.5s137 96.5 235 96.5c82.667 0 146 -17 190 -51c18.667 -14.667 29.834 -32 33.501 -52s1.5 -36 -6.5 -48c-18 -36.667 -52 -46.667 -102 -30c-42 14 -79 21 -111 21z
" />
    <glyph glyph-name="Egrave" unicode="&#xc8;" horiz-adv-x="579" 
d="M60 91v508c0 26.667 7.83301 48.5 23.5 65.5s37.834 25.5 66.501 25.5h318c27.333 0 48.833 -7 64.5 -21s23.5 -33.667 23.5 -59c0 -24 -7.83301 -43.333 -23.5 -58s-37.167 -22 -64.5 -22h-228v-100h177c27.333 0 48.833 -7 64.5 -21s23.5 -33.667 23.5 -59
c0 -24 -7.83301 -43.333 -23.5 -58s-37.167 -22 -64.5 -22h-177v-110h237c27.333 0 48.833 -7 64.5 -21s23.5 -33.667 23.5 -59c0 -24 -7.83301 -43.333 -23.5 -58s-37.167 -22 -64.5 -22h-327c-28.667 0 -50.834 8.5 -66.501 25.5s-23.5 38.833 -23.5 65.5zM311 736
l-114.999 51c-44 19.333 -58.333 47 -43 83c14.667 35.333 45 43 91 23l115 -53c44 -20.667 57.667 -48 41 -82s-46.334 -41.333 -89.001 -22z" />
    <glyph glyph-name="Eacute" unicode="&#xc9;" horiz-adv-x="579" 
d="M60 91v508c0 26.667 7.83301 48.5 23.5 65.5s37.834 25.5 66.501 25.5h318c27.333 0 48.833 -7 64.5 -21s23.5 -33.667 23.5 -59c0 -24 -7.83301 -43.333 -23.5 -58s-37.167 -22 -64.5 -22h-228v-100h177c27.333 0 48.833 -7 64.5 -21s23.5 -33.667 23.5 -59
c0 -24 -7.83301 -43.333 -23.5 -58s-37.167 -22 -64.5 -22h-177v-110h237c27.333 0 48.833 -7 64.5 -21s23.5 -33.667 23.5 -59c0 -24 -7.83301 -43.333 -23.5 -58s-37.167 -22 -64.5 -22h-327c-28.667 0 -50.834 8.5 -66.501 25.5s-23.5 38.833 -23.5 65.5zM434 787
l-115 -50.999c-44.667 -20 -74.334 -12.667 -89.001 22c-15.333 34.667 -1.66602 62 41.001 82l115 53c44 19.333 74.333 11.666 91 -23.001c8 -18 8.16699 -34.167 0.5 -48.5s-22.167 -25.833 -43.5 -34.5z" />
    <glyph glyph-name="Ecircumflex" unicode="&#xca;" horiz-adv-x="579" 
d="M60 91v508c0 26.667 7.83301 48.5 23.5 65.5s37.834 25.5 66.501 25.5h318c27.333 0 48.833 -7 64.5 -21s23.5 -33.667 23.5 -59c0 -24 -7.83301 -43.333 -23.5 -58s-37.167 -22 -64.5 -22h-228v-100h177c27.333 0 48.833 -7 64.5 -21s23.5 -33.667 23.5 -59
c0 -24 -7.83301 -43.333 -23.5 -58s-37.167 -22 -64.5 -22h-177v-110h237c27.333 0 48.833 -7 64.5 -21s23.5 -33.667 23.5 -59c0 -24 -7.83301 -43.333 -23.5 -58s-37.167 -22 -64.5 -22h-327c-28.667 0 -50.834 8.5 -66.501 25.5s-23.5 38.833 -23.5 65.5zM179 830l96 52
c23.333 12 47.333 12 72 0l99 -50c44.667 -22 59 -50 43 -84c-8 -16.667 -20.167 -26.5 -36.5 -29.5s-33.5 0.833008 -51.5 11.5l-89 48l-91 -48c-20.667 -10.667 -39 -14 -55 -10s-27 13.667 -33 29c-13.333 31.333 2 58.333 46 81z" />
    <glyph glyph-name="Edieresis" unicode="&#xcb;" horiz-adv-x="579" 
d="M60 91v508c0 26.667 7.83301 48.5 23.5 65.5s37.834 25.5 66.501 25.5h318c27.333 0 48.833 -7 64.5 -21s23.5 -33.667 23.5 -59c0 -24 -7.83301 -43.333 -23.5 -58s-37.167 -22 -64.5 -22h-228v-100h177c27.333 0 48.833 -7 64.5 -21s23.5 -33.667 23.5 -59
c0 -24 -7.83301 -43.333 -23.5 -58s-37.167 -22 -64.5 -22h-177v-110h237c27.333 0 48.833 -7 64.5 -21s23.5 -33.667 23.5 -59c0 -24 -7.83301 -43.333 -23.5 -58s-37.167 -22 -64.5 -22h-327c-28.667 0 -50.834 8.5 -66.501 25.5s-23.5 38.833 -23.5 65.5zM92 781
c0 24 9.33203 41.5 27.999 52.5s42.334 16.5 71.001 16.5c66.667 0 100 -23 100 -69c0 -45.333 -33.333 -68 -100 -68c-66 0 -99 22.667 -99 68zM321.999 781c0 46 33 69 99 69c29.333 0 53.333 -5.5 72 -16.5s28 -28.5 28 -52.5c0 -45.333 -33.333 -68 -100 -68
c-66 0 -99 22.667 -99 68z" />
    <glyph glyph-name="Igrave" unicode="&#xcc;" horiz-adv-x="310" 
d="M141 736l-114.999 51c-44 19.333 -58.333 47 -43 83c14.667 35.333 45 43 91 23l115 -53c44 -20.667 57.667 -48 41 -82s-46.334 -41.333 -89.001 -22zM88.001 91v508c0 26.667 7.83301 48.5 23.5 65.5s37.834 25.5 66.501 25.5s50.834 -8.5 66.501 -25.5
s23.5 -38.833 23.5 -65.5v-508c0 -26.667 -7.83301 -48.5 -23.5 -65.5s-37.834 -25.5 -66.501 -25.5s-50.834 8.5 -66.501 25.5s-23.5 38.833 -23.5 65.5z" />
    <glyph glyph-name="Iacute" unicode="&#xcd;" horiz-adv-x="310" 
d="M288 787l-115 -50.999c-44.667 -20 -74.334 -12.667 -89.001 22c-15.333 34.667 -1.66602 62 41.001 82l115 53c44 19.333 74.333 11.666 91 -23.001c8 -18 8.16699 -34.167 0.5 -48.5s-22.167 -25.833 -43.5 -34.5zM88 91.001v508c0 26.667 7.83301 48.5 23.5 65.5
s37.834 25.5 66.501 25.5s50.834 -8.5 66.501 -25.5s23.5 -38.833 23.5 -65.5v-508c0 -26.667 -7.83301 -48.5 -23.5 -65.5s-37.834 -25.5 -66.501 -25.5s-50.834 8.5 -66.501 25.5s-23.5 38.833 -23.5 65.5z" />
    <glyph glyph-name="Icircumflex" unicode="&#xce;" horiz-adv-x="310" 
d="M40 830l96 52c23.333 12 47.333 12 72 0l99 -50c44.667 -22 59 -50 43 -84c-8 -16.667 -20.167 -26.5 -36.5 -29.5s-33.5 0.833008 -51.5 11.5l-89 48l-91 -48c-20.667 -10.667 -39 -14 -55 -10s-27 13.667 -33 29c-13.333 31.333 2 58.333 46 81zM85 91v508
c0 26.667 7.83301 48.5 23.5 65.5s37.834 25.5 66.501 25.5s50.834 -8.5 66.501 -25.5s23.5 -38.833 23.5 -65.5v-508c0 -26.667 -7.83301 -48.5 -23.5 -65.5s-37.834 -25.5 -66.501 -25.5s-50.834 8.5 -66.501 25.5s-23.5 38.833 -23.5 65.5z" />
    <glyph glyph-name="Idieresis" unicode="&#xcf;" horiz-adv-x="310" 
d="M65 91v508c0 26.667 7.83301 48.5 23.5 65.5s37.834 25.5 66.501 25.5s50.834 -8.5 66.501 -25.5s23.5 -38.833 23.5 -65.5v-508c0 -26.667 -7.83301 -48.5 -23.5 -65.5s-37.834 -25.5 -66.501 -25.5s-50.834 8.5 -66.501 25.5s-23.5 38.833 -23.5 65.5zM-59 781
c0 24 9.33203 41.5 27.999 52.5s42.334 16.5 71.001 16.5c66.667 0 100 -23 100 -69c0 -45.333 -33.333 -68 -100 -68c-66 0 -99 22.667 -99 68zM170.999 781c0 46 33 69 99 69c29.333 0 53.333 -5.5 72 -16.5s28 -28.5 28 -52.5c0 -45.333 -33.333 -68 -100 -68
c-66 0 -99 22.667 -99 68z" />
    <glyph glyph-name="Eth" unicode="&#xd0;" horiz-adv-x="702" 
d="M61 405l0.000976562 177.999c0 27.333 6 49.333 18 66s33 27.667 63 33c44.667 8.66699 98.667 13 162 13c117.333 0 206.666 -29.333 267.999 -88s92 -144.667 92 -258c0 -109.333 -30.833 -195.666 -92.5 -258.999s-150.167 -95 -265.5 -95
c-70.667 0 -124.667 3.33301 -162 10c-55.333 9.33301 -83 40.333 -83 93v207h-21c-37.333 0 -56 16.667 -56 50s18.667 50 56 50h21zM311.001 154.999c53.333 0 93.833 16.999 121.5 50.999s41.5 81.667 41.5 143c0 58.667 -14 104.334 -42 137.001s-69 49 -123 49
c-25.333 0 -48 -1 -68 -3v-127h108c37.333 0 56 -16.667 56 -50s-18.667 -50 -56 -50h-108v-148c24 -1.33301 47.333 -2 70 -2z" />
    <glyph glyph-name="Ntilde" unicode="&#xd1;" horiz-adv-x="717" 
d="M487 302v297c0 26.667 6.66699 48.5 20 65.5s34.333 25.5 63 25.5c55.333 0 83 -30.333 83 -91v-508c0 -27.333 -7.5 -49.333 -22.5 -66s-35.5 -25 -61.5 -25c-30 0 -56 14.667 -78 44l-261 329v-282c0 -60.667 -28 -91 -84 -91c-54.667 -0 -82 30.333 -82 91v508
c0 60.667 27.333 91 82 91c32.667 0 61 -16 85 -48zM427 826c9.33301 0 19.335 3.66699 30.002 11c30 22.667 55 24 75 4c11.333 -10.667 16.166 -23.667 14.499 -39s-8.83398 -30 -21.501 -44c-27.333 -30 -59.333 -45 -96 -45c-19.333 0 -45 5.66699 -77 17s-53 17 -63 17
c-10.667 0 -23.334 -5 -38.001 -15c-25.333 -18 -48 -19 -68 -3c-11.333 9.33301 -16.666 22.5 -15.999 39.5s8 32.5 22 46.5c28.667 28 60.667 42 96 42c22 0 49.5 -5.16699 82.5 -15.5s52.833 -15.5 59.5 -15.5z" />
    <glyph glyph-name="Ograve" unicode="&#xd2;" horiz-adv-x="744" 
d="M30 345c0 104 29.5 189.167 88.5 255.5s142.167 99.5 249.5 99.5s190.5 -33.167 249.5 -99.5s88.5 -151.5 88.5 -255.5s-29.5 -189.167 -88.5 -255.5s-142.167 -99.5 -249.5 -99.5s-190.5 33.167 -249.5 99.5s-88.5 151.5 -88.5 255.5zM220 345
c0 -58 12.333 -105 37 -141s61.667 -54 111 -54s86.333 18 111 54s37 83 37 141s-12.333 105 -37 141s-61.667 54 -111 54s-86.333 -18 -111 -54s-37 -83 -37 -141zM369 736l-114.999 51c-44 19.333 -58.333 47 -43 83c14.667 35.333 45 43 91 23l115 -53
c44 -20.667 57.667 -48 41 -82s-46.334 -41.333 -89.001 -22z" />
    <glyph glyph-name="Oacute" unicode="&#xd3;" horiz-adv-x="744" 
d="M30 345c0 104 29.5 189.167 88.5 255.5s142.167 99.5 249.5 99.5s190.5 -33.167 249.5 -99.5s88.5 -151.5 88.5 -255.5s-29.5 -189.167 -88.5 -255.5s-142.167 -99.5 -249.5 -99.5s-190.5 33.167 -249.5 99.5s-88.5 151.5 -88.5 255.5zM220 345
c0 -58 12.333 -105 37 -141s61.667 -54 111 -54s86.333 18 111 54s37 83 37 141s-12.333 105 -37 141s-61.667 54 -111 54s-86.333 -18 -111 -54s-37 -83 -37 -141zM492 787l-115 -50.999c-44.667 -20 -74.334 -12.667 -89.001 22c-15.333 34.667 -1.66602 62 41.001 82
l115 53c44 19.333 74.333 11.666 91 -23.001c8 -18 8.16699 -34.167 0.5 -48.5s-22.167 -25.833 -43.5 -34.5z" />
    <glyph glyph-name="Ocircumflex" unicode="&#xd4;" horiz-adv-x="744" 
d="M237 830l96 52c23.333 12 47.333 12 72 0l99 -50c44.667 -22 59 -50 43 -84c-8 -16.667 -20.167 -26.5 -36.5 -29.5s-33.5 0.833008 -51.5 11.5l-89 48l-91 -48c-20.667 -10.667 -39 -14 -55 -10s-27 13.667 -33 29c-13.333 31.333 2 58.333 46 81zM30 345
c0 104 29.5 189.167 88.5 255.5s142.167 99.5 249.5 99.5s190.5 -33.167 249.5 -99.5s88.5 -151.5 88.5 -255.5s-29.5 -189.167 -88.5 -255.5s-142.167 -99.5 -249.5 -99.5s-190.5 33.167 -249.5 99.5s-88.5 151.5 -88.5 255.5zM220 345c0 -58 12.333 -105 37 -141
s61.667 -54 111 -54s86.333 18 111 54s37 83 37 141s-12.333 105 -37 141s-61.667 54 -111 54s-86.333 -18 -111 -54s-37 -83 -37 -141z" />
    <glyph glyph-name="Otilde" unicode="&#xd5;" horiz-adv-x="744" 
d="M30 345c0 104 29.5 189.167 88.5 255.5s142.167 99.5 249.5 99.5s190.5 -33.167 249.5 -99.5s88.5 -151.5 88.5 -255.5s-29.5 -189.167 -88.5 -255.5s-142.167 -99.5 -249.5 -99.5s-190.5 33.167 -249.5 99.5s-88.5 151.5 -88.5 255.5zM220 345
c0 -58 12.333 -105 37 -141s61.667 -54 111 -54s86.333 18 111 54s37 83 37 141s-12.333 105 -37 141s-61.667 54 -111 54s-86.333 -18 -111 -54s-37 -83 -37 -141zM448 826c9.33301 0 19.335 3.66699 30.002 11c30 22.667 55 24 75 4
c11.333 -10.667 16.166 -23.667 14.499 -39s-8.83398 -30 -21.501 -44c-26.667 -30 -58.667 -45 -96 -45c-20 0 -46 5.66699 -78 17s-52.667 17 -62 17c-10.667 0 -23.334 -5 -38.001 -15c-25.333 -18 -48 -19 -68 -3c-11.333 9.33301 -16.666 22.5 -15.999 39.5
s8 32.5 22 46.5c28.667 28 60.667 42 96 42c22 0 49.5 -5.16699 82.5 -15.5s52.833 -15.5 59.5 -15.5z" />
    <glyph glyph-name="Odieresis" unicode="&#xd6;" horiz-adv-x="744" 
d="M30 345c0 104 29.5 189.167 88.5 255.5s142.167 99.5 249.5 99.5s190.5 -33.167 249.5 -99.5s88.5 -151.5 88.5 -255.5s-29.5 -189.167 -88.5 -255.5s-142.167 -99.5 -249.5 -99.5s-190.5 33.167 -249.5 99.5s-88.5 151.5 -88.5 255.5zM220 345
c0 -58 12.333 -105 37 -141s61.667 -54 111 -54s86.333 18 111 54s37 83 37 141s-12.333 105 -37 141s-61.667 54 -111 54s-86.333 -18 -111 -54s-37 -83 -37 -141zM158 781c0 24 9.33203 41.5 27.999 52.5s42.334 16.5 71.001 16.5c66.667 0 100 -23 100 -69
c0 -45.333 -33.333 -68 -100 -68c-66 0 -99 22.667 -99 68zM387.999 781c0 46 33 69 99 69c29.333 0 53.333 -5.5 72 -16.5s28 -28.5 28 -52.5c0 -45.333 -33.333 -68 -100 -68c-66 0 -99 22.667 -99 68z" />
    <glyph glyph-name="multiply" unicode="&#xd7;" horiz-adv-x="533" 
d="M275 463l44.999 -44.001l44 45c16.667 16.667 34.5 25.834 53.5 27.501s36.833 -5.16602 53.5 -20.499c32.667 -31.333 30.334 -66.333 -6.99902 -105l-44 -45l43 -42c41.333 -41.333 45 -79.666 11 -114.999c-34.667 -37.333 -73 -35.666 -115 5.00098l-45 44l-44 -45
c-37.333 -38.667 -73.333 -41.334 -108 -8.00098c-32 32 -29.333 67.333 8 106l44 45l-43 42c-41.333 41.333 -45 79.666 -11 114.999c34.667 37.333 73 35.666 115 -5.00098z" />
    <glyph glyph-name="Oslash" unicode="&#xd8;" horiz-adv-x="744" 
d="M34 345c0 103.333 29.5029 188.333 88.5029 255s142.167 100 249.5 100c10 0 23.667 -0.666992 41 -2l6 17c16.667 47.333 47.667 64 93 50c21.333 -6.66699 34.333 -19.5 39 -38.5s3 -37.5 -5 -55.5l-4 -11c53.333 -29.333 94.666 -71.833 123.999 -127.5
s44 -118.167 44 -187.5c0 -103.333 -29.5 -188.333 -88.5 -255s-142.167 -100 -249.5 -100c-20.667 0 -42 1.66699 -64 5l-7 -21c-7.33301 -20 -19 -34.833 -35 -44.5s-35 -10.834 -57 -3.50098c-20.667 6.66699 -33.834 19.334 -39.501 38.001s-4.5 37 3.5 55l8 23
c-46.667 30.667 -82.834 72.667 -108.501 126s-38.5 112.333 -38.5 177zM520.003 345c0 64 -16.667 115.334 -50 154.001l-122 -347c9.33301 -1.33301 17.333 -2 24 -2c48.667 0 85.5 18.167 110.5 54.5s37.5 83.166 37.5 140.499zM224.003 345.001
c0 -48 11.333 -91.334 34 -130.001l114 325c-48.667 0 -85.5 -18.167 -110.5 -54.5s-37.5 -83.166 -37.5 -140.499z" />
    <glyph glyph-name="Ugrave" unicode="&#xd9;" horiz-adv-x="686" 
d="M344 -10c-98 0 -169.167 26.667 -213.5 80s-66.5 124 -66.5 212v317c0 26.667 7.66699 48.5 23 65.5s37.333 25.5 66 25.5s51 -8.5 67 -25.5s24 -38.833 24 -65.5v-330c0 -36 8.83301 -64.833 26.5 -86.5s43.5 -32.5 77.5 -32.5s59.833 10.833 77.5 32.5
s26.5 50.5 26.5 86.5v330c0 26.667 7.33301 48.5 22 65.5s36 25.5 64 25.5s49 -8.33301 63 -25s21 -38.667 21 -66v-317c0 -88 -21.833 -158.667 -65.5 -212s-114.5 -80 -212.5 -80zM359 736l-114.999 51c-44 19.333 -58.333 47 -43 83c14.667 35.333 45 43 91 23l115 -53
c44 -20.667 57.667 -48 41 -82s-46.334 -41.333 -89.001 -22z" />
    <glyph glyph-name="Uacute" unicode="&#xda;" horiz-adv-x="686" 
d="M344 -10c-98 0 -169.167 26.667 -213.5 80s-66.5 124 -66.5 212v317c0 26.667 7.66699 48.5 23 65.5s37.333 25.5 66 25.5s51 -8.5 67 -25.5s24 -38.833 24 -65.5v-330c0 -36 8.83301 -64.833 26.5 -86.5s43.5 -32.5 77.5 -32.5s59.833 10.833 77.5 32.5
s26.5 50.5 26.5 86.5v330c0 26.667 7.33301 48.5 22 65.5s36 25.5 64 25.5s49 -8.33301 63 -25s21 -38.667 21 -66v-317c0 -88 -21.833 -158.667 -65.5 -212s-114.5 -80 -212.5 -80zM482 787l-115 -50.999c-44.667 -20 -74.334 -12.667 -89.001 22
c-15.333 34.667 -1.66602 62 41.001 82l115 53c44 19.333 74.333 11.666 91 -23.001c8 -18 8.16699 -34.167 0.5 -48.5s-22.167 -25.833 -43.5 -34.5z" />
    <glyph glyph-name="Ucircumflex" unicode="&#xdb;" horiz-adv-x="686" 
d="M208 830l96 52c23.333 12 47.333 12 72 0l99 -50c44.667 -22 59 -50 43 -84c-8 -16.667 -20.167 -26.5 -36.5 -29.5s-33.5 0.833008 -51.5 11.5l-89 48l-91 -48c-20.667 -10.667 -39 -14 -55 -10s-27 13.667 -33 29c-13.333 31.333 2 58.333 46 81zM344 -10
c-98 0 -169.167 26.667 -213.5 80s-66.5 124 -66.5 212v317c0 26.667 7.66699 48.5 23 65.5s37.333 25.5 66 25.5s51 -8.5 67 -25.5s24 -38.833 24 -65.5v-330c0 -36 8.83301 -64.833 26.5 -86.5s43.5 -32.5 77.5 -32.5s59.833 10.833 77.5 32.5s26.5 50.5 26.5 86.5v330
c0 26.667 7.33301 48.5 22 65.5s36 25.5 64 25.5s49 -8.33301 63 -25s21 -38.667 21 -66v-317c0 -88 -21.833 -158.667 -65.5 -212s-114.5 -80 -212.5 -80z" />
    <glyph glyph-name="Udieresis" unicode="&#xdc;" horiz-adv-x="686" 
d="M344 -10c-98 0 -169.167 26.667 -213.5 80s-66.5 124 -66.5 212v317c0 26.667 7.66699 48.5 23 65.5s37.333 25.5 66 25.5s51 -8.5 67 -25.5s24 -38.833 24 -65.5v-330c0 -36 8.83301 -64.833 26.5 -86.5s43.5 -32.5 77.5 -32.5s59.833 10.833 77.5 32.5
s26.5 50.5 26.5 86.5v330c0 26.667 7.33301 48.5 22 65.5s36 25.5 64 25.5s49 -8.33301 63 -25s21 -38.667 21 -66v-317c0 -88 -21.833 -158.667 -65.5 -212s-114.5 -80 -212.5 -80zM130 781c0 24 9.33203 41.5 27.999 52.5s42.334 16.5 71.001 16.5
c66.667 0 100 -23 100 -69c0 -45.333 -33.333 -68 -100 -68c-66 0 -99 22.667 -99 68zM359.999 781c0 46 33 69 99 69c29.333 0 53.333 -5.5 72 -16.5s28 -28.5 28 -52.5c0 -45.333 -33.333 -68 -100 -68c-66 0 -99 22.667 -99 68z" />
    <glyph glyph-name="Yacute" unicode="&#xdd;" horiz-adv-x="575" 
d="M40 674c-22 -14 -34.0039 -34.498 -36.0039 -61.498s4 -49.167 18 -66.5l179 -252v-203c0 -26.667 7.83301 -48.5 23.5 -65.5s37.834 -25.5 66.501 -25.5s50.834 8.5 66.501 25.5s23.5 38.833 23.5 65.5v207l179 259c14 19.333 20.167 40.666 18.5 63.999
s-12.5 41.333 -32.5 54c-47.333 30 -89.666 16 -126.999 -42l-121 -184l-128 188c-16.667 25.333 -35.667 41.666 -57 48.999s-45.666 3.33301 -72.999 -12zM436.996 787.002l-115 -50.999c-44.667 -20 -74.334 -12.667 -89.001 22c-15.333 34.667 -1.66602 62 41.001 82
l115 53c44 19.333 74.333 11.666 91 -23.001c8 -18 8.16699 -34.167 0.5 -48.5s-22.167 -25.833 -43.5 -34.5z" />
    <glyph glyph-name="Thorn" unicode="&#xde;" horiz-adv-x="606" 
d="M64 91l0.000976562 508c0 26.667 7.83301 48.5 23.5 65.5s37.834 25.5 66.501 25.5c24 0 43.5 -6.16699 58.5 -18.5s24.5 -28.5 28.5 -48.5c30.667 2.66699 53.667 4 69 4c86 0 153.667 -18.333 203 -55s74 -95 74 -175s-25.667 -139.833 -77 -179.5
s-118 -59.5 -200 -59.5c-25.333 0 -47.333 1.33301 -66 4v-71c0 -26.667 -7.83301 -48.5 -23.5 -65.5s-37.834 -25.5 -66.501 -25.5s-50.834 8.5 -66.501 25.5s-23.5 38.833 -23.5 65.5zM300.001 313c64.667 0 97 27.667 97 83c0 50.667 -31.333 76 -94 76
c-22 0 -41.667 -1 -59 -3v-154c21.333 -1.33301 40 -2 56 -2z" />
    <glyph glyph-name="germandbls" unicode="&#xdf;" horiz-adv-x="604" 
d="M519 537c0 -25.333 -7.16797 -49.3301 -21.501 -71.9971s-28.5 -42.167 -42.5 -58.5s-21 -29.166 -21 -38.499c0 -8 5.33301 -16.5 16 -25.5s23.667 -18.5 39 -28.5s30.666 -21.5 45.999 -34.5s28.333 -30.333 39 -52s16 -45.834 16 -72.501
c0 -48 -14.667 -87.5 -44 -118.5s-78.333 -46.5 -147 -46.5c-48 0 -85 8.33301 -111 25c-16.667 10.667 -27.5 24.334 -32.5 41.001s-4.16699 32 2.5 46c12 29.333 36 39.666 72 30.999c34.667 -8.66699 54 -13 58 -13c9.33301 0 17 3.16699 23 9.5s9 13.833 9 22.5
c0 16 -8.16699 31.167 -24.5 45.5s-34.166 26.666 -53.499 36.999s-37.166 25.166 -53.499 44.499s-24.5 41.333 -24.5 66c0 24 7.16699 46 21.5 66s28.5 38.667 42.5 56s21 34.666 21 51.999c0 27.333 -20 41 -60 41c-46.667 0 -70 -22.667 -70 -68v-607
c0 -24.667 -7.33301 -45 -22 -61s-35.667 -24 -63 -24c-26.667 0 -47.5 8 -62.5 24s-22.5 36.333 -22.5 61v584c0 71.333 17.333 126.333 52 165c39.333 44 101.333 66 186 66c70 0 126.167 -13.667 168.5 -41s63.5 -68 63.5 -122z" />
    <glyph glyph-name="agrave" unicode="&#xe0;" horiz-adv-x="513" 
d="M16 136c0 56.667 19.333 98 58 124s89.334 39 152.001 39c12 0 24.5 -0.5 37.5 -1.5s23.167 -2.16699 30.5 -3.5l10 -2v26c0 16 -4.83301 27.833 -14.5 35.5s-27.834 11.5 -54.501 11.5c-10.667 0 -21.667 -1 -33 -3s-24.333 -4.5 -39 -7.5s-27.667 -5.5 -39 -7.5
c-36.667 -6 -59.334 6 -68.001 36c-11.333 40 6.66699 70.667 54 92c36.667 16.667 86.334 25 149.001 25c67.333 0 118.333 -17.5 153 -52.5s52 -82.5 52 -142.5v-220c0 -24.667 -6.83301 -45 -20.5 -61s-34.167 -24 -61.5 -24c-36 0 -61.333 15 -76 45
c-30.667 -36.667 -74.334 -55 -131.001 -55c-51.333 0 -90.666 13.167 -117.999 39.5s-41 61.833 -41 106.5zM229 115c19.333 0 36.666 6.33301 51.999 19s23 29 23 49v24c-18.667 3.33301 -36.667 5 -54 5c-46 0 -69 -18.333 -69 -55c0 -12 4.33301 -22 13 -30
s20.334 -12 35.001 -12zM233 554l-91.001 57.001c-19.333 12 -30.833 26.667 -34.5 44s-0.5 32.666 9.5 45.999c20.667 32.667 51.334 36 92.001 10l89 -58c38.667 -25.333 48 -54.333 28 -87c-20.667 -34 -51.667 -38 -93 -12z" />
    <glyph glyph-name="aacute" unicode="&#xe1;" horiz-adv-x="513" 
d="M16 136c0 56.667 19.333 98 58 124s89.334 39 152.001 39c12 0 24.5 -0.5 37.5 -1.5s23.167 -2.16699 30.5 -3.5l10 -2v26c0 16 -4.83301 27.833 -14.5 35.5s-27.834 11.5 -54.501 11.5c-10.667 0 -21.667 -1 -33 -3s-24.333 -4.5 -39 -7.5s-27.667 -5.5 -39 -7.5
c-36.667 -6 -59.334 6 -68.001 36c-11.333 40 6.66699 70.667 54 92c36.667 16.667 86.334 25 149.001 25c67.333 0 118.333 -17.5 153 -52.5s52 -82.5 52 -142.5v-220c0 -24.667 -6.83301 -45 -20.5 -61s-34.167 -24 -61.5 -24c-36 0 -61.333 15 -76 45
c-30.667 -36.667 -74.334 -55 -131.001 -55c-51.333 0 -90.666 13.167 -117.999 39.5s-41 61.833 -41 106.5zM229 115c19.333 0 36.666 6.33301 51.999 19s23 29 23 49v24c-18.667 3.33301 -36.667 5 -54 5c-46 0 -69 -18.333 -69 -55c0 -12 4.33301 -22 13 -30
s20.334 -12 35.001 -12zM368 611l-89 -56.999c-18.667 -12 -36.667 -17 -54 -15s-30.333 10.667 -39 26c-20 34 -11 63.333 27 88l89 57c40 25.333 70.667 21.666 92 -11.001c10 -12 13.167 -26.5 9.5 -43.5s-15.5 -31.833 -35.5 -44.5z" />
    <glyph glyph-name="acircumflex" unicode="&#xe2;" horiz-adv-x="513" 
d="M16 136c0 56.667 19.333 98 58 124s89.334 39 152.001 39c12 0 24.5 -0.5 37.5 -1.5s23.167 -2.16699 30.5 -3.5l10 -2v26c0 16 -4.83301 27.833 -14.5 35.5s-27.834 11.5 -54.501 11.5c-10.667 0 -21.667 -1 -33 -3s-24.333 -4.5 -39 -7.5s-27.667 -5.5 -39 -7.5
c-36.667 -6 -59.334 6 -68.001 36c-11.333 40 6.66699 70.667 54 92c36.667 16.667 86.334 25 149.001 25c67.333 0 118.333 -17.5 153 -52.5s52 -82.5 52 -142.5v-220c0 -24.667 -6.83301 -45 -20.5 -61s-34.167 -24 -61.5 -24c-36 0 -61.333 15 -76 45
c-30.667 -36.667 -74.334 -55 -131.001 -55c-51.333 0 -90.666 13.167 -117.999 39.5s-41 61.833 -41 106.5zM229 115c19.333 0 36.666 6.33301 51.999 19s23 29 23 49v24c-18.667 3.33301 -36.667 5 -54 5c-46 0 -69 -18.333 -69 -55c0 -12 4.33301 -22 13 -30
s20.334 -12 35.001 -12zM115 633l94 68.001c28.667 21.333 58 22 88 2l94 -64c18 -12.667 28.833 -26.667 32.5 -42s0.5 -29.333 -9.5 -42c-12 -14.667 -25.5 -22 -40.5 -22s-30.5 6 -46.5 18l-77 54l-75 -54c-19.333 -12.667 -36 -18.334 -50 -17.001
s-24.667 7.66602 -32 18.999c-20 28.667 -12.667 55.334 22 80.001z" />
    <glyph glyph-name="atilde" unicode="&#xe3;" horiz-adv-x="513" 
d="M16 136c0 56.667 19.333 98 58 124s89.334 39 152.001 39c12 0 24.5 -0.5 37.5 -1.5s23.167 -2.16699 30.5 -3.5l10 -2v26c0 16 -4.83301 27.833 -14.5 35.5s-27.834 11.5 -54.501 11.5c-10.667 0 -21.667 -1 -33 -3s-24.333 -4.5 -39 -7.5s-27.667 -5.5 -39 -7.5
c-36.667 -6 -59.334 6 -68.001 36c-11.333 40 6.66699 70.667 54 92c36.667 16.667 86.334 25 149.001 25c67.333 0 118.333 -17.5 153 -52.5s52 -82.5 52 -142.5v-220c0 -24.667 -6.83301 -45 -20.5 -61s-34.167 -24 -61.5 -24c-36 0 -61.333 15 -76 45
c-30.667 -36.667 -74.334 -55 -131.001 -55c-51.333 0 -90.666 13.167 -117.999 39.5s-41 61.833 -41 106.5zM229 115c19.333 0 36.666 6.33301 51.999 19s23 29 23 49v24c-18.667 3.33301 -36.667 5 -54 5c-46 0 -69 -18.333 -69 -55c0 -12 4.33301 -22 13 -30
s20.334 -12 35.001 -12zM316 651c9.33301 0 20.333 4.33301 33 13c30 22 55.667 23 77 3c24 -22.667 21.333 -51 -8 -85c-29.333 -30 -62.333 -45 -99 -45c-19.333 0 -42 5.33301 -68 16s-44.333 16 -55 16c-10 0 -22.667 -5.33301 -38 -16c-28 -18 -51.333 -18.333 -70 -1
c-11.333 8.66699 -16.5 22 -15.5 40s8.83301 34 23.5 48c28 28.667 60.333 43 97 43c22.667 0 47 -5.33301 73 -16s42.667 -16 50 -16z" />
    <glyph glyph-name="adieresis" unicode="&#xe4;" horiz-adv-x="513" 
d="M16 136c0 56.667 19.333 98 58 124s89.334 39 152.001 39c12 0 24.5 -0.5 37.5 -1.5s23.167 -2.16699 30.5 -3.5l10 -2v26c0 16 -4.83301 27.833 -14.5 35.5s-27.834 11.5 -54.501 11.5c-10.667 0 -21.667 -1 -33 -3s-24.333 -4.5 -39 -7.5s-27.667 -5.5 -39 -7.5
c-36.667 -6 -59.334 6 -68.001 36c-11.333 40 6.66699 70.667 54 92c36.667 16.667 86.334 25 149.001 25c67.333 0 118.333 -17.5 153 -52.5s52 -82.5 52 -142.5v-220c0 -24.667 -6.83301 -45 -20.5 -61s-34.167 -24 -61.5 -24c-36 0 -61.333 15 -76 45
c-30.667 -36.667 -74.334 -55 -131.001 -55c-51.333 0 -90.666 13.167 -117.999 39.5s-41 61.833 -41 106.5zM229 115c19.333 0 36.666 6.33301 51.999 19s23 29 23 49v24c-18.667 3.33301 -36.667 5 -54 5c-46 0 -69 -18.333 -69 -55c0 -12 4.33301 -22 13 -30
s20.334 -12 35.001 -12zM65 620c0 25.333 7.33301 45 22 59s35.334 21 62.001 21c26 0 46.5 -7 61.5 -21s22.5 -33.667 22.5 -59c0 -26 -7.33301 -45.833 -22 -59.5s-35.334 -20.5 -62.001 -20.5c-56 0 -84 26.667 -84 80zM281 620c0 25.333 7.33301 45 22 59
s35.334 21 62.001 21c26 0 46.5 -7 61.5 -21s22.5 -33.667 22.5 -59c0 -26 -7.33301 -45.833 -22 -59.5s-35.334 -20.5 -62.001 -20.5c-56 0 -84 26.667 -84 80z" />
    <glyph glyph-name="aring" unicode="&#xe5;" horiz-adv-x="513" 
d="M16 136c0 56.667 19.333 98 58 124s89.334 39 152.001 39c12 0 24.5 -0.5 37.5 -1.5s23.167 -2.16699 30.5 -3.5l10 -2v26c0 16 -4.83301 27.833 -14.5 35.5s-27.834 11.5 -54.501 11.5c-10.667 0 -21.667 -1 -33 -3s-24.333 -4.5 -39 -7.5s-27.667 -5.5 -39 -7.5
c-36.667 -6 -59.334 6 -68.001 36c-11.333 40 6.66699 70.667 54 92c36.667 16.667 86.334 25 149.001 25c67.333 0 118.333 -17.5 153 -52.5s52 -82.5 52 -142.5v-220c0 -24.667 -6.83301 -45 -20.5 -61s-34.167 -24 -61.5 -24c-36 0 -61.333 15 -76 45
c-30.667 -36.667 -74.334 -55 -131.001 -55c-51.333 0 -90.666 13.167 -117.999 39.5s-41 61.833 -41 106.5zM229 115c19.333 0 36.666 6.33301 51.999 19s23 29 23 49v24c-18.667 3.33301 -36.667 5 -54 5c-46 0 -69 -18.333 -69 -55c0 -12 4.33301 -22 13 -30
s20.334 -12 35.001 -12zM249 728c36.667 0 65.834 -8.33301 87.501 -25s32.5 -41.334 32.5 -74.001s-10.833 -57.167 -32.5 -73.5s-50.834 -24.5 -87.501 -24.5s-65.834 8.16699 -87.501 24.5s-32.5 40.833 -32.5 73.5s10.833 57.334 32.5 74.001s50.834 25 87.501 25z
M209 629c0 -22 13.333 -33 40 -33s40 11 40 33c0 22.667 -13.333 34 -40 34s-40 -11.333 -40 -34z" />
    <glyph glyph-name="ae" unicode="&#xe6;" horiz-adv-x="750" 
d="M-1 136c0 104 70.001 155.996 210.001 155.996h74v26c0 30.667 -21 46.334 -63 47.001c-12.667 0 -24.167 -0.666992 -34.5 -2s-24 -4.16602 -41 -8.49902l-37.5 -9.5c-16 -3.33301 -30.333 -1.66602 -43 5.00098s-21.334 17.667 -26.001 33
c-12.667 39.333 5.33301 70 54 92c36.667 16.667 85.667 25 147 25c64.667 0 110.667 -15.667 138 -47c39.333 31.333 87.333 47 144 47c66.667 0 117.5 -18.167 152.5 -54.5s52.5 -86.166 52.5 -149.499c0 -59.333 -28.667 -89 -86 -89h-208
c-0.666992 -28 7.33301 -49.5 24 -64.5s38.667 -22.5 66 -22.5c20.667 0 49.667 6.66699 87 20c40.667 14 68.334 7.33301 83.001 -20c8 -12.667 9.66699 -28 5 -46s-16 -33 -34 -45c-41.333 -26 -94 -39 -158 -39c-74.667 0 -132 26.667 -172 80
c-20.667 -27.333 -44.334 -47.5 -71.001 -60.5s-62 -19.5 -106 -19.5c-50.667 0 -89.5 13.667 -116.5 41s-40.5 62.333 -40.5 105zM210.001 114.996c20.667 0 38 6.66699 52 20s21 30.333 21 51v21h-50c-46 0 -69 -17.333 -69 -52c0 -12 4.16699 -21.667 12.5 -29
s19.5 -11 33.5 -11zM510.001 369.996c-48 0 -73.333 -26 -76 -78h135c1.33301 8 2 15.667 2 23c0 16 -5.16699 29.167 -15.5 39.5s-25.5 15.5 -45.5 15.5z" />
    <glyph glyph-name="ccedilla" unicode="&#xe7;" horiz-adv-x="455" 
d="M415 36c-31.333 -26 -73.002 -40.999 -125.002 -44.999l-7 -37c40 0.666992 68.833 -8 86.5 -26s26.5 -40 26.5 -66c0 -27.333 -10.833 -51 -32.5 -71s-57.167 -30 -106.5 -30c-45.333 0 -81 5.66699 -107 17c-12 5.33301 -20.167 12.5 -24.5 21.5
s-4.16602 19.167 0.500977 30.5c6.66699 14.667 19.667 19 39 13c20.667 -6 37 -9 49 -9c25.333 0 38 11.333 38 34c0 15.333 -14.333 26 -43 32c-22 5.33301 -30 20.333 -24 45l11 52c-53.333 12 -95.333 39 -126 81s-46 97 -46 165c0 79.333 22.167 142 66.5 188
s102.5 69 174.5 69c55.333 0 99 -9 131 -27c36 -20.667 48.333 -50.667 37 -90c-10.667 -34.667 -41.667 -47.667 -93 -39c-25.333 4 -44.333 6 -57 6c-56 0 -84 -36.667 -84 -110c0 -32 7.83301 -56.667 23.5 -74s34.834 -26 57.501 -26c14.667 0 39 6.33301 73 19
c41.333 15.333 71 8 89 -22c9.33301 -13.333 11.5 -29.833 6.5 -49.5s-16.167 -36.834 -33.5 -51.501z" />
    <glyph glyph-name="egrave" unicode="&#xe8;" horiz-adv-x="509" 
d="M404 197h-211.999c2.66699 -24 12.167 -42.833 28.5 -56.5s36.833 -20.5 61.5 -20.5c20 0 50.333 7.33301 91 22c40 14.667 68 7.66699 84 -21c8.66699 -12 10.5 -27.5 5.5 -46.5s-16.833 -34.5 -35.5 -46.5c-38.667 -25.333 -91.334 -38 -158.001 -38
c-73.333 0 -132.5 22.5 -177.5 67.5s-67.5 108.167 -67.5 189.5c0 78.667 22.5 140.5 67.5 185.5s103.167 67.5 174.5 67.5c66.667 0 120.667 -18.333 162 -55s62 -87.667 62 -153c0 -14 -1.33301 -27 -4 -39c-8.66699 -37.333 -36 -56 -82 -56zM271.001 370
c-23.333 0 -42 -7.16602 -56 -21.499s-22 -34.833 -24 -61.5h142c1.33301 8 2 15.667 2 23c0 17.333 -5.5 31.666 -16.5 42.999s-26.833 17 -47.5 17zM262.001 554.001l-91.001 57.001c-19.333 12 -30.833 26.667 -34.5 44s-0.5 32.666 9.5 45.999
c20.667 32.667 51.334 36 92.001 10l89 -58c38.667 -25.333 48 -54.333 28 -87c-20.667 -34 -51.667 -38 -93 -12z" />
    <glyph glyph-name="eacute" unicode="&#xe9;" horiz-adv-x="509" 
d="M404 197h-211.999c2.66699 -24 12.167 -42.833 28.5 -56.5s36.833 -20.5 61.5 -20.5c20 0 50.333 7.33301 91 22c40 14.667 68 7.66699 84 -21c8.66699 -12 10.5 -27.5 5.5 -46.5s-16.833 -34.5 -35.5 -46.5c-38.667 -25.333 -91.334 -38 -158.001 -38
c-73.333 0 -132.5 22.5 -177.5 67.5s-67.5 108.167 -67.5 189.5c0 78.667 22.5 140.5 67.5 185.5s103.167 67.5 174.5 67.5c66.667 0 120.667 -18.333 162 -55s62 -87.667 62 -153c0 -14 -1.33301 -27 -4 -39c-8.66699 -37.333 -36 -56 -82 -56zM271.001 370
c-23.333 0 -42 -7.16602 -56 -21.499s-22 -34.833 -24 -61.5h142c1.33301 8 2 15.667 2 23c0 17.333 -5.5 31.666 -16.5 42.999s-26.833 17 -47.5 17zM377.001 611.001l-89 -56.999c-18.667 -12 -36.667 -17 -54 -15s-30.333 10.667 -39 26c-20 34 -11 63.333 27 88l89 57
c40 25.333 70.667 21.666 92 -11.001c10 -12 13.167 -26.5 9.5 -43.5s-15.5 -31.833 -35.5 -44.5z" />
    <glyph glyph-name="ecircumflex" unicode="&#xea;" horiz-adv-x="509" 
d="M404 197h-211.999c2.66699 -24 12.167 -42.833 28.5 -56.5s36.833 -20.5 61.5 -20.5c20 0 50.333 7.33301 91 22c40 14.667 68 7.66699 84 -21c8.66699 -12 10.5 -27.5 5.5 -46.5s-16.833 -34.5 -35.5 -46.5c-38.667 -25.333 -91.334 -38 -158.001 -38
c-73.333 0 -132.5 22.5 -177.5 67.5s-67.5 108.167 -67.5 189.5c0 78.667 22.5 140.5 67.5 185.5s103.167 67.5 174.5 67.5c66.667 0 120.667 -18.333 162 -55s62 -87.667 62 -153c0 -14 -1.33301 -27 -4 -39c-8.66699 -37.333 -36 -56 -82 -56zM271.001 370
c-23.333 0 -42 -7.16602 -56 -21.499s-22 -34.833 -24 -61.5h142c1.33301 8 2 15.667 2 23c0 17.333 -5.5 31.666 -16.5 42.999s-26.833 17 -47.5 17zM126.001 633.001l94 68.001c28.667 21.333 58 22 88 2l94 -64c18 -12.667 28.833 -26.667 32.5 -42s0.5 -29.333 -9.5 -42
c-12 -14.667 -25.5 -22 -40.5 -22s-30.5 6 -46.5 18l-77 54l-75 -54c-19.333 -12.667 -36 -18.334 -50 -17.001s-24.667 7.66602 -32 18.999c-20 28.667 -12.667 55.334 22 80.001z" />
    <glyph glyph-name="edieresis" unicode="&#xeb;" horiz-adv-x="509" 
d="M404 197h-211.999c2.66699 -24 12.167 -42.833 28.5 -56.5s36.833 -20.5 61.5 -20.5c20 0 50.333 7.33301 91 22c40 14.667 68 7.66699 84 -21c8.66699 -12 10.5 -27.5 5.5 -46.5s-16.833 -34.5 -35.5 -46.5c-38.667 -25.333 -91.334 -38 -158.001 -38
c-73.333 0 -132.5 22.5 -177.5 67.5s-67.5 108.167 -67.5 189.5c0 78.667 22.5 140.5 67.5 185.5s103.167 67.5 174.5 67.5c66.667 0 120.667 -18.333 162 -55s62 -87.667 62 -153c0 -14 -1.33301 -27 -4 -39c-8.66699 -37.333 -36 -56 -82 -56zM271.001 370
c-23.333 0 -42 -7.16602 -56 -21.499s-22 -34.833 -24 -61.5h142c1.33301 8 2 15.667 2 23c0 17.333 -5.5 31.666 -16.5 42.999s-26.833 17 -47.5 17zM75.001 620.001c0 25.333 7.33301 45 22 59s35.334 21 62.001 21c26 0 46.5 -7 61.5 -21s22.5 -33.667 22.5 -59
c0 -26 -7.33301 -45.833 -22 -59.5s-35.334 -20.5 -62.001 -20.5c-56 0 -84 26.667 -84 80zM291.001 620.001c0 25.333 7.33301 45 22 59s35.334 21 62.001 21c26 0 46.5 -7 61.5 -21s22.5 -33.667 22.5 -59c0 -26 -7.33301 -45.833 -22 -59.5s-35.334 -20.5 -62.001 -20.5
c-56 0 -84 26.667 -84 80z" />
    <glyph glyph-name="igrave" unicode="&#xec;" horiz-adv-x="278" 
d="M123 554l-91.001 57.001c-19.333 12 -30.833 26.667 -34.5 44s-0.5 32.666 9.5 45.999c20.667 32.667 51.334 36 92.001 10l89 -58c38.667 -25.333 48 -54.333 28 -87c-20.667 -34 -51.667 -38 -93 -12zM59.999 85.001v321c0 24 7.5 44 22.5 60s35.833 24 62.5 24
s47.5 -8 62.5 -24s22.5 -36 22.5 -60v-321c0 -24.667 -7.33301 -45 -22 -61s-35.667 -24 -63 -24c-26.667 0 -47.5 8 -62.5 24s-22.5 36.333 -22.5 61z" />
    <glyph glyph-name="iacute" unicode="&#xed;" horiz-adv-x="278" 
d="M266 611l-89 -56.999c-18.667 -12 -36.667 -17 -54 -15s-30.333 10.667 -39 26c-20 34 -11 63.333 27 88l89 57c40 25.333 70.667 21.666 92 -11.001c10 -12 13.167 -26.5 9.5 -43.5s-15.5 -31.833 -35.5 -44.5zM66 85.001v321c0 24 7.5 44 22.5 60s35.833 24 62.5 24
s47.5 -8 62.5 -24s22.5 -36 22.5 -60v-321c0 -24.667 -7.33301 -45 -22 -61s-35.667 -24 -63 -24c-26.667 0 -47.5 8 -62.5 24s-22.5 36.333 -22.5 61z" />
    <glyph glyph-name="icircumflex" unicode="&#xee;" horiz-adv-x="278" 
d="M29 633l94 68.001c28.667 21.333 58 22 88 2l94 -64c18 -12.667 28.833 -26.667 32.5 -42s0.5 -29.333 -9.5 -42c-12 -14.667 -25.5 -22 -40.5 -22s-30.5 6 -46.5 18l-77 54l-75 -54c-19.333 -12.667 -36 -18.334 -50 -17.001s-24.667 7.66602 -32 18.999
c-20 28.667 -12.667 55.334 22 80.001zM84 85.001v321c0 24 7.5 44 22.5 60s35.833 24 62.5 24s47.5 -8 62.5 -24s22.5 -36 22.5 -60v-321c0 -24.667 -7.33301 -45 -22 -61s-35.667 -24 -63 -24c-26.667 0 -47.5 8 -62.5 24s-22.5 36.333 -22.5 61z" />
    <glyph glyph-name="idieresis" unicode="&#xef;" horiz-adv-x="278" 
d="M54 85v321c0 24 7.5 44 22.5 60s35.833 24 62.5 24s47.5 -8 62.5 -24s22.5 -36 22.5 -60v-321c0 -24.667 -7.33301 -45 -22 -61s-35.667 -24 -63 -24c-26.667 0 -47.5 8 -62.5 24s-22.5 36.333 -22.5 61zM-53 620c0 25.333 7.33301 45 22 59s35.334 21 62.001 21
c26 0 46.5 -7 61.5 -21s22.5 -33.667 22.5 -59c0 -26 -7.33301 -45.833 -22 -59.5s-35.334 -20.5 -62.001 -20.5c-56 0 -84 26.667 -84 80zM163 620c0 25.333 7.33301 45 22 59s35.334 21 62.001 21c26 0 46.5 -7 61.5 -21s22.5 -33.667 22.5 -59
c0 -26 -7.33301 -45.833 -22 -59.5s-35.334 -20.5 -62.001 -20.5c-56 0 -84 26.667 -84 80z" />
    <glyph glyph-name="eth" unicode="&#xf0;" horiz-adv-x="533" 
d="M360 670l-15 -17.9941c59.333 -33.333 101.5 -77.333 126.5 -132s37.5 -121.334 37.5 -200.001c0 -101.333 -20.5 -181.666 -61.5 -240.999s-101.5 -89 -181.5 -89c-76 0 -135.333 21.667 -178 65s-64 105.333 -64 186c0 71.333 16.5 128.833 49.5 172.5
s81.5 65.5 145.5 65.5c58 0 102.333 -14.333 133 -43c0 18 -7.66699 38.167 -23 60.5s-38.666 39.166 -69.999 50.499l-29 -36c-6.66699 -8 -14.667 -13.333 -24 -16s-20 -0.333984 -32 6.99902c-9.33301 8 -13.833 16.833 -13.5 26.5s4.16602 19.167 11.499 28.5l9 11
l-40 7c-46.667 8 -67.334 32.333 -62.001 73c2.66699 18 10.334 31.333 23.001 40s33 12.667 61 12c40 -0.666992 77.667 -6.33398 113 -17.001l29 35c6 7.33301 13.5 11.666 22.5 12.999s18.833 -1.33398 29.5 -8.00098c9.33301 -8.66699 13.833 -17.834 13.5 -27.501
s-3.83301 -18.167 -10.5 -25.5zM265 130.006c26 0 44.501 13 55.501 39s16.5 67.333 16.5 124c-14.667 30.667 -38.334 46 -71.001 46c-44.667 0 -67 -33 -67 -99c0 -73.333 22 -110 66 -110z" />
    <glyph glyph-name="ntilde" unicode="&#xf1;" horiz-adv-x="562" 
d="M343 85v207.999c0 18.667 -4.33301 33.667 -13 45s-20.334 17 -35.001 17c-29.333 0 -49.333 -13.167 -60 -39.5s-16 -62.833 -16 -109.5v-121c0 -25.333 -7.5 -45.833 -22.5 -61.5s-35.833 -23.5 -62.5 -23.5s-47.5 7.83301 -62.5 23.5s-22.5 36.167 -22.5 61.5v321
c0 24.667 7.66699 44.834 23 60.501s36 23.5 62 23.5c36.667 0 62.334 -15 77.001 -45c32.667 36.667 75 55 127 55c61.333 0 105.833 -18.333 133.5 -55s41.5 -90 41.5 -160v-200c0 -25.333 -7.5 -45.833 -22.5 -61.5s-35.833 -23.5 -62.5 -23.5s-47.5 7.83301 -62.5 23.5
s-22.5 36.167 -22.5 61.5zM336 650.999c9.33301 0 20.333 4.33301 33 13c30 22 55.667 23 77 3c24 -22.667 21.333 -51 -8 -85c-29.333 -30 -62.333 -45 -99 -45c-19.333 0 -42 5.33301 -68 16s-44.333 16 -55 16c-10 0 -22.667 -5.33301 -38 -16
c-28 -18 -51.333 -18.333 -70 -1c-11.333 8.66699 -16.5 22 -15.5 40s8.83301 34 23.5 48c28 28.667 60.333 43 97 43c22.667 0 47 -5.33301 73 -16s42.667 -16 50 -16z" />
    <glyph glyph-name="ograve" unicode="&#xf2;" horiz-adv-x="538" 
d="M24 245c0 76.667 21.833 138.333 65.5 185s103.5 70 179.5 70s135.833 -23.5 179.5 -70.5s65.5 -108.5 65.5 -184.5c0 -76.667 -21.833 -138.334 -65.5 -185.001s-103.5 -70 -179.5 -70s-135.833 23.333 -179.5 70s-65.5 108.334 -65.5 185.001zM199 244.999
c0 -32 5.66699 -59.167 17 -81.5s29 -33.5 53 -33.5c46.667 0 70 38.333 70 115s-23.333 115 -70 115s-70 -38.333 -70 -115zM251 553.999l-91.001 57.001c-19.333 12 -30.833 26.667 -34.5 44s-0.5 32.666 9.5 45.999c20.667 32.667 51.334 36 92.001 10l89 -58
c38.667 -25.333 48 -54.333 28 -87c-20.667 -34 -51.667 -38 -93 -12z" />
    <glyph glyph-name="oacute" unicode="&#xf3;" horiz-adv-x="538" 
d="M24 245c0 76.667 21.833 138.333 65.5 185s103.5 70 179.5 70s135.833 -23.5 179.5 -70.5s65.5 -108.5 65.5 -184.5c0 -76.667 -21.833 -138.334 -65.5 -185.001s-103.5 -70 -179.5 -70s-135.833 23.333 -179.5 70s-65.5 108.334 -65.5 185.001zM199 244.999
c0 -32 5.66699 -59.167 17 -81.5s29 -33.5 53 -33.5c46.667 0 70 38.333 70 115s-23.333 115 -70 115s-70 -38.333 -70 -115zM397 610.999l-89 -56.999c-18.667 -12 -36.667 -17 -54 -15s-30.333 10.667 -39 26c-20 34 -11 63.333 27 88l89 57
c40 25.333 70.667 21.666 92 -11.001c10 -12 13.167 -26.5 9.5 -43.5s-15.5 -31.833 -35.5 -44.5z" />
    <glyph glyph-name="ocircumflex" unicode="&#xf4;" horiz-adv-x="538" 
d="M24 245c0 76.667 21.833 138.333 65.5 185s103.5 70 179.5 70s135.833 -23.5 179.5 -70.5s65.5 -108.5 65.5 -184.5c0 -76.667 -21.833 -138.334 -65.5 -185.001s-103.5 -70 -179.5 -70s-135.833 23.333 -179.5 70s-65.5 108.334 -65.5 185.001zM199 244.999
c0 -32 5.66699 -59.167 17 -81.5s29 -33.5 53 -33.5c46.667 0 70 38.333 70 115s-23.333 115 -70 115s-70 -38.333 -70 -115zM129 632.999l94 68.001c28.667 21.333 58 22 88 2l94 -64c18 -12.667 28.833 -26.667 32.5 -42s0.5 -29.333 -9.5 -42
c-12 -14.667 -25.5 -22 -40.5 -22s-30.5 6 -46.5 18l-77 54l-75 -54c-19.333 -12.667 -36 -18.334 -50 -17.001s-24.667 7.66602 -32 18.999c-20 28.667 -12.667 55.334 22 80.001z" />
    <glyph glyph-name="otilde" unicode="&#xf5;" horiz-adv-x="538" 
d="M24 245c0 76.667 21.833 138.333 65.5 185s103.5 70 179.5 70s135.833 -23.5 179.5 -70.5s65.5 -108.5 65.5 -184.5c0 -76.667 -21.833 -138.334 -65.5 -185.001s-103.5 -70 -179.5 -70s-135.833 23.333 -179.5 70s-65.5 108.334 -65.5 185.001zM199 244.999
c0 -32 5.66699 -59.167 17 -81.5s29 -33.5 53 -33.5c46.667 0 70 38.333 70 115s-23.333 115 -70 115s-70 -38.333 -70 -115zM328 650.999c9.33301 0 20.333 4.33301 33 13c30 22 55.667 23 77 3c24 -22.667 21.333 -51 -8 -85c-29.333 -30 -62.333 -45 -99 -45
c-19.333 0 -42 5.33301 -68 16s-44.333 16 -55 16c-10 0 -22.667 -5.33301 -38 -16c-28 -18 -51.333 -18.333 -70 -1c-11.333 8.66699 -16.5 22 -15.5 40s8.83301 34 23.5 48c28 28.667 60.333 43 97 43c22.667 0 47 -5.33301 73 -16s42.667 -16 50 -16z" />
    <glyph glyph-name="odieresis" unicode="&#xf6;" horiz-adv-x="538" 
d="M24 245c0 76.667 21.833 138.333 65.5 185s103.5 70 179.5 70s135.833 -23.5 179.5 -70.5s65.5 -108.5 65.5 -184.5c0 -76.667 -21.833 -138.334 -65.5 -185.001s-103.5 -70 -179.5 -70s-135.833 23.333 -179.5 70s-65.5 108.334 -65.5 185.001zM199 244.999
c0 -32 5.66699 -59.167 17 -81.5s29 -33.5 53 -33.5c46.667 0 70 38.333 70 115s-23.333 115 -70 115s-70 -38.333 -70 -115zM77 619.999c0 25.333 7.33301 45 22 59s35.334 21 62.001 21c26 0 46.5 -7 61.5 -21s22.5 -33.667 22.5 -59c0 -26 -7.33301 -45.833 -22 -59.5
s-35.334 -20.5 -62.001 -20.5c-56 0 -84 26.667 -84 80zM293 619.999c0 25.333 7.33301 45 22 59s35.334 21 62.001 21c26 0 46.5 -7 61.5 -21s22.5 -33.667 22.5 -59c0 -26 -7.33301 -45.833 -22 -59.5s-35.334 -20.5 -62.001 -20.5c-56 0 -84 26.667 -84 80z" />
    <glyph glyph-name="divide" unicode="&#xf7;" horiz-adv-x="533" 
d="M171 515c0 26.667 8.33301 48.333 25 65s40 25 70 25c29.333 0 52.5 -8.5 69.5 -25.5s25.5 -38.5 25.5 -64.5c0 -26.667 -8.33301 -48.167 -25 -64.5s-40 -24.5 -70 -24.5s-53.333 8.16699 -70 24.5s-25 37.833 -25 64.5zM171 115.999c0 26.667 8.33301 48.334 25 65.001
s40 25 70 25c29.333 0 52.5 -8.33301 69.5 -25s25.5 -38.334 25.5 -65.001s-8.33301 -48.167 -25 -64.5s-40 -24.5 -70 -24.5s-53.333 8.16699 -70 24.5s-25 37.833 -25 64.5zM405 245.999h-277c-52.667 0 -79 23.333 -79 70c0 22.667 7.16699 40 21.5 52s33.5 18 57.5 18
h277c24.667 0 44 -6 58 -18s21 -29.333 21 -52c0 -46.667 -26.333 -70 -79 -70z" />
    <glyph glyph-name="oslash" unicode="&#xf8;" horiz-adv-x="538" 
d="M24 245c0 76 21.668 137.5 65.001 184.5s103.333 70.5 180 70.5h14l7 20c16.667 47.333 47.667 64 93 50c20 -6 32.667 -18.667 38 -38s4 -38 -4 -56l-6 -17c32 -22.667 57.167 -52.5 75.5 -89.5s27.5 -78.5 27.5 -124.5c0 -76 -21.667 -137.5 -65 -184.5
s-103.333 -70.5 -180 -70.5c-2.66699 0 -6.5 0.166992 -11.5 0.5s-8.5 0.5 -10.5 0.5l-7 -22c-7.33301 -20 -19 -34.833 -35 -44.5s-35 -10.834 -57 -3.50098c-20.667 6.66699 -33.834 19.334 -39.501 38.001s-4.5 37 3.5 55l7 22c-29.333 22.667 -52.5 52.167 -69.5 88.5
s-25.5 76.5 -25.5 120.5zM341.001 245c0 26 -4.33398 48.333 -13.001 67l-64 -187h5c24.667 0 42.834 11.5 54.501 34.5s17.5 51.5 17.5 85.5zM197 249c0 -27.333 3.33301 -46 10 -56l57 171c-23.333 0 -40.333 -10.833 -51 -32.5s-16 -49.167 -16 -82.5z" />
    <glyph glyph-name="ugrave" unicode="&#xf9;" horiz-adv-x="562" 
d="M219 405v-207.999c0 -18.667 4.33301 -33.667 13 -45s20.334 -17 35.001 -17c29.333 0 49.333 13.5 60 40.5s16 63.833 16 110.5v119c0 25.333 7.5 45.833 22.5 61.5s35.833 23.5 62.5 23.5s47.5 -7.83301 62.5 -23.5s22.5 -36.167 22.5 -61.5v-321
c0 -24.667 -7.66699 -44.834 -23 -60.501s-36 -23.5 -62 -23.5c-36.667 0 -62.334 15 -77.001 45c-13.333 -16 -31.333 -29.167 -54 -39.5s-47.334 -15.5 -74.001 -15.5c-61.333 0 -105.666 18.167 -132.999 54.5s-41 89.833 -41 160.5v200c0 25.333 7.5 45.833 22.5 61.5
s35.833 23.5 62.5 23.5s47.5 -7.83301 62.5 -23.5s22.5 -36.167 22.5 -61.5zM271 554.001l-91.001 57.001c-19.333 12 -30.833 26.667 -34.5 44s-0.5 32.666 9.5 45.999c20.667 32.667 51.334 36 92.001 10l89 -58c38.667 -25.333 48 -54.333 28 -87
c-20.667 -34 -51.667 -38 -93 -12z" />
    <glyph glyph-name="uacute" unicode="&#xfa;" horiz-adv-x="562" 
d="M219 405v-207.999c0 -18.667 4.33301 -33.667 13 -45s20.334 -17 35.001 -17c29.333 0 49.333 13.5 60 40.5s16 63.833 16 110.5v119c0 25.333 7.5 45.833 22.5 61.5s35.833 23.5 62.5 23.5s47.5 -7.83301 62.5 -23.5s22.5 -36.167 22.5 -61.5v-321
c0 -24.667 -7.66699 -44.834 -23 -60.501s-36 -23.5 -62 -23.5c-36.667 0 -62.334 15 -77.001 45c-13.333 -16 -31.333 -29.167 -54 -39.5s-47.334 -15.5 -74.001 -15.5c-61.333 0 -105.666 18.167 -132.999 54.5s-41 89.833 -41 160.5v200c0 25.333 7.5 45.833 22.5 61.5
s35.833 23.5 62.5 23.5s47.5 -7.83301 62.5 -23.5s22.5 -36.167 22.5 -61.5zM414 611.001l-89 -56.999c-18.667 -12 -36.667 -17 -54 -15s-30.333 10.667 -39 26c-20 34 -11 63.333 27 88l89 57c40 25.333 70.667 21.666 92 -11.001c10 -12 13.167 -26.5 9.5 -43.5
s-15.5 -31.833 -35.5 -44.5z" />
    <glyph glyph-name="ucircumflex" unicode="&#xfb;" horiz-adv-x="562" 
d="M219 405v-207.999c0 -18.667 4.33301 -33.667 13 -45s20.334 -17 35.001 -17c29.333 0 49.333 13.5 60 40.5s16 63.833 16 110.5v119c0 25.333 7.5 45.833 22.5 61.5s35.833 23.5 62.5 23.5s47.5 -7.83301 62.5 -23.5s22.5 -36.167 22.5 -61.5v-321
c0 -24.667 -7.66699 -44.834 -23 -60.501s-36 -23.5 -62 -23.5c-36.667 0 -62.334 15 -77.001 45c-13.333 -16 -31.333 -29.167 -54 -39.5s-47.334 -15.5 -74.001 -15.5c-61.333 0 -105.666 18.167 -132.999 54.5s-41 89.833 -41 160.5v200c0 25.333 7.5 45.833 22.5 61.5
s35.833 23.5 62.5 23.5s47.5 -7.83301 62.5 -23.5s22.5 -36.167 22.5 -61.5zM147 633.001l94 68.001c28.667 21.333 58 22 88 2l94 -64c18 -12.667 28.833 -26.667 32.5 -42s0.5 -29.333 -9.5 -42c-12 -14.667 -25.5 -22 -40.5 -22s-30.5 6 -46.5 18l-77 54l-75 -54
c-19.333 -12.667 -36 -18.334 -50 -17.001s-24.667 7.66602 -32 18.999c-20 28.667 -12.667 55.334 22 80.001z" />
    <glyph glyph-name="udieresis" unicode="&#xfc;" horiz-adv-x="562" 
d="M219 405v-207.999c0 -18.667 4.33301 -33.667 13 -45s20.334 -17 35.001 -17c29.333 0 49.333 13.5 60 40.5s16 63.833 16 110.5v119c0 25.333 7.5 45.833 22.5 61.5s35.833 23.5 62.5 23.5s47.5 -7.83301 62.5 -23.5s22.5 -36.167 22.5 -61.5v-321
c0 -24.667 -7.66699 -44.834 -23 -60.501s-36 -23.5 -62 -23.5c-36.667 0 -62.334 15 -77.001 45c-13.333 -16 -31.333 -29.167 -54 -39.5s-47.334 -15.5 -74.001 -15.5c-61.333 0 -105.666 18.167 -132.999 54.5s-41 89.833 -41 160.5v200c0 25.333 7.5 45.833 22.5 61.5
s35.833 23.5 62.5 23.5s47.5 -7.83301 62.5 -23.5s22.5 -36.167 22.5 -61.5zM92 620.001c0 25.333 7.33301 45 22 59s35.334 21 62.001 21c26 0 46.5 -7 61.5 -21s22.5 -33.667 22.5 -59c0 -26 -7.33301 -45.833 -22 -59.5s-35.334 -20.5 -62.001 -20.5
c-56 0 -84 26.667 -84 80zM308 620.001c0 25.333 7.33301 45 22 59s35.334 21 62.001 21c26 0 46.5 -7 61.5 -21s22.5 -33.667 22.5 -59c0 -26 -7.33301 -45.833 -22 -59.5s-35.334 -20.5 -62.001 -20.5c-56 0 -84 26.667 -84 80z" />
    <glyph glyph-name="yacute" unicode="&#xfd;" horiz-adv-x="487" 
d="M194 -1l-167.002 363.999c-11.333 21.333 -13.833 44.333 -7.5 69s21.833 41.667 46.5 51c27.333 10 50.833 9.83301 70.5 -0.5s34.167 -29.166 43.5 -56.499l86 -220l19 53l38 107l18 53c19.333 61.333 55 83.666 107 66.999c16.667 -5.33301 28.667 -14.833 36 -28.5
s10.5 -27.834 9.5 -42.501s-4.5 -29.667 -10.5 -45l-151 -373c-30 -77.333 -59.833 -131.166 -89.5 -161.499s-66.5 -45.5 -110.5 -45.5c-34.667 0 -63.334 5.66699 -86.001 17c-20.667 10.667 -34.667 25 -42 43s-7 36.667 1 56c11.333 29.333 34.333 41 69 35
c3.33301 -0.666992 8.5 -2 15.5 -4s13.833 -3.66699 20.5 -5s13.334 -2 20.001 -2c14.667 0 26.334 5.33301 35.001 16s18.334 28.334 29.001 53.001zM378.998 610.999l-89 -56.999c-18.667 -12 -36.667 -17 -54 -15s-30.333 10.667 -39 26c-20 34 -11 63.333 27 88l89 57
c40 25.333 70.667 21.666 92 -11.001c10 -12 13.167 -26.5 9.5 -43.5s-15.5 -31.833 -35.5 -44.5z" />
    <glyph glyph-name="thorn" unicode="&#xfe;" horiz-adv-x="549" 
d="M340 500c56 0 100.834 -20.668 134.501 -62.001s50.5 -100.666 50.5 -177.999c0 -82 -18.833 -147.5 -56.5 -196.5s-91.834 -73.5 -162.501 -73.5c-36.667 0 -65.667 4 -87 12v-127c0 -24.667 -7.33301 -45 -22 -61s-35.667 -24 -63 -24c-26.667 0 -47.5 8 -62.5 24
s-22.5 36.333 -22.5 61v731c0 24 7.5 44 22.5 60s35.833 24 62.5 24s47.5 -8 62.5 -24s22.5 -36 22.5 -60v-153c30 31.333 70.333 47 121 47zM296.001 359.999c-50 0 -75.667 -43.667 -77 -131v-93c17.333 -7.33301 37.333 -11 60 -11c47.333 0 71 44.333 71 133
c0 68 -18 102 -54 102z" />
    <glyph glyph-name="ydieresis" unicode="&#xff;" horiz-adv-x="487" 
d="M194 -1l-167.002 363.999c-11.333 21.333 -13.833 44.333 -7.5 69s21.833 41.667 46.5 51c27.333 10 50.833 9.83301 70.5 -0.5s34.167 -29.166 43.5 -56.499l86 -220l19 53l38 107l18 53c19.333 61.333 55 83.666 107 66.999c16.667 -5.33301 28.667 -14.833 36 -28.5
s10.5 -27.834 9.5 -42.501s-4.5 -29.667 -10.5 -45l-151 -373c-30 -77.333 -59.833 -131.166 -89.5 -161.499s-66.5 -45.5 -110.5 -45.5c-34.667 0 -63.334 5.66699 -86.001 17c-20.667 10.667 -34.667 25 -42 43s-7 36.667 1 56c11.333 29.333 34.333 41 69 35
c3.33301 -0.666992 8.5 -2 15.5 -4s13.833 -3.66699 20.5 -5s13.334 -2 20.001 -2c14.667 0 26.334 5.33301 35.001 16s18.334 28.334 29.001 53.001zM70.998 619.999c0 25.333 7.33301 45 22 59s35.334 21 62.001 21c26 0 46.5 -7 61.5 -21s22.5 -33.667 22.5 -59
c0 -26 -7.33301 -45.833 -22 -59.5s-35.334 -20.5 -62.001 -20.5c-56 0 -84 26.667 -84 80zM286.998 619.999c0 25.333 7.33301 45 22 59s35.334 21 62.001 21c26 0 46.5 -7 61.5 -21s22.5 -33.667 22.5 -59c0 -26 -7.33301 -45.833 -22 -59.5s-35.334 -20.5 -62.001 -20.5
c-56 0 -84 26.667 -84 80z" />
    <glyph glyph-name="Amacron" unicode="&#x100;" horiz-adv-x="619" 
d="M457 69l-38.001 101h-221l-31 -89c-10 -30 -25 -52.667 -45 -68s-45.333 -17.333 -76 -6c-22.667 8 -36 23.833 -40 47.5s-0.333008 47.834 11 72.501l210 508c17.333 43.333 46.666 65 87.999 65c40 0 68.333 -19.333 85 -58l216 -512
c10.667 -21.333 12.834 -44.5 6.50098 -69.5s-21.5 -42.5 -45.5 -52.5c-27.333 -10.667 -51.666 -10.334 -72.999 0.999023s-37 31.333 -47 60zM306.999 470l-64 -166h129zM417.999 720h-219c-46.667 0 -70 18 -70 54c0 18.667 5.5 32.334 16.5 41.001s28.833 13 53.5 13
h219c24.667 0 42.5 -4.33301 53.5 -13s16.5 -22.334 16.5 -41.001c0 -36 -23.333 -54 -70 -54z" />
    <glyph glyph-name="amacron" unicode="&#x101;" horiz-adv-x="513" 
d="M16 136c0 56.667 19.333 98 58 124s89.334 39 152.001 39c12 0 24.5 -0.5 37.5 -1.5s23.167 -2.16699 30.5 -3.5l10 -2v26c0 16 -4.83301 27.833 -14.5 35.5s-27.834 11.5 -54.501 11.5c-10.667 0 -21.667 -1 -33 -3s-24.333 -4.5 -39 -7.5s-27.667 -5.5 -39 -7.5
c-36.667 -6 -59.334 6 -68.001 36c-11.333 40 6.66699 70.667 54 92c36.667 16.667 86.334 25 149.001 25c67.333 0 118.333 -17.5 153 -52.5s52 -82.5 52 -142.5v-220c0 -24.667 -6.83301 -45 -20.5 -61s-34.167 -24 -61.5 -24c-36 0 -61.333 15 -76 45
c-30.667 -36.667 -74.334 -55 -131.001 -55c-51.333 0 -90.666 13.167 -117.999 39.5s-41 61.833 -41 106.5zM229 115c19.333 0 36.666 6.33301 51.999 19s23 29 23 49v24c-18.667 3.33301 -36.667 5 -54 5c-46 0 -69 -18.333 -69 -55c0 -12 4.33301 -22 13 -30
s20.334 -12 35.001 -12zM353 545h-202c-46.667 0 -70 18.333 -70 55s23.333 55 70 55h202c46.667 0 70 -18.333 70 -55s-23.333 -55 -70 -55z" />
    <glyph glyph-name="Abreve" unicode="&#x102;" horiz-adv-x="619" 
d="M457 69l-38.001 101h-221l-31 -89c-10 -30 -25 -52.667 -45 -68s-45.333 -17.333 -76 -6c-22.667 8 -36 23.833 -40 47.5s-0.333008 47.834 11 72.501l210 508c17.333 43.333 46.666 65 87.999 65c40 0 68.333 -19.333 85 -58l216 -512
c10.667 -21.333 12.834 -44.5 6.50098 -69.5s-21.5 -42.5 -45.5 -52.5c-27.333 -10.667 -51.666 -10.334 -72.999 0.999023s-37 31.333 -47 60zM306.999 470l-64 -166h129zM316.999 717c-34.667 0 -66.833 5.49902 -96.5 16.499s-52.5 25.5 -68.5 43.5
c-10.667 12 -16 25.833 -16 41.5s5.33301 28.834 16 39.501c23.333 23.333 53.333 19.666 90 -11.001c22.667 -18.667 47.667 -28 75 -28c26.667 0 51.667 9.33301 75 28c11.333 8.66699 21 15.167 29 19.5s17.667 6.33301 29 6s22 -5.16602 32 -14.499
c11.333 -10.667 16.833 -23.667 16.5 -39s-5.83301 -29.333 -16.5 -42c-34.667 -40 -89.667 -60 -165 -60z" />
    <glyph glyph-name="abreve" unicode="&#x103;" horiz-adv-x="513" 
d="M16 136c0 56.667 19.333 98 58 124s89.334 39 152.001 39c12 0 24.5 -0.5 37.5 -1.5s23.167 -2.16699 30.5 -3.5l10 -2v26c0 16 -4.83301 27.833 -14.5 35.5s-27.834 11.5 -54.501 11.5c-10.667 0 -21.667 -1 -33 -3s-24.333 -4.5 -39 -7.5s-27.667 -5.5 -39 -7.5
c-36.667 -6 -59.334 6 -68.001 36c-11.333 40 6.66699 70.667 54 92c36.667 16.667 86.334 25 149.001 25c67.333 0 118.333 -17.5 153 -52.5s52 -82.5 52 -142.5v-220c0 -24.667 -6.83301 -45 -20.5 -61s-34.167 -24 -61.5 -24c-36 0 -61.333 15 -76 45
c-30.667 -36.667 -74.334 -55 -131.001 -55c-51.333 0 -90.666 13.167 -117.999 39.5s-41 61.833 -41 106.5zM229 115c19.333 0 36.666 6.33301 51.999 19s23 29 23 49v24c-18.667 3.33301 -36.667 5 -54 5c-46 0 -69 -18.333 -69 -55c0 -12 4.33301 -22 13 -30
s20.334 -12 35.001 -12zM256 538c-73.333 0 -124.335 19.667 -153.002 59c-10 13.333 -14.5 28 -13.5 44s7.5 28.667 19.5 38c24.667 18.667 53.334 13.334 86.001 -15.999c18 -16 38.333 -24 61 -24s43 8 61 24c32.667 29.333 61.334 34.666 86.001 15.999
c12 -9.33301 18.5 -22 19.5 -38s-3.5 -30.667 -13.5 -44c-28.667 -39.333 -79.667 -59 -153 -59z" />
    <glyph glyph-name="Aogonek" unicode="&#x104;" horiz-adv-x="619" 
d="M462 54l-43.002 116h-219l-33 -89c-10 -30 -25 -52.667 -45 -68s-45.333 -17.333 -76 -6c-22.667 8 -36 23.833 -40 47.5s-0.333008 47.834 11 72.501l210 508c17.333 43.333 46.666 65 87.999 65c40 0 68.333 -19.333 85 -58l214 -512c8 -20 12 -38.667 12 -56
c0 -23.333 -9.66699 -49.5 -29 -78.5s-29 -55.833 -29 -80.5c0 -16.667 4.66699 -28.834 14 -36.501s20 -11.5 32 -11.5c4.66699 0 10.334 0.666992 17.001 2s11.334 2 14.001 2c18 2 30.333 -4.66699 37 -20c5.33301 -10 5.83301 -21.667 1.5 -35
s-13.833 -24.333 -28.5 -33c-24.667 -14 -57.667 -21 -99 -21c-45.333 0 -81.166 11.333 -107.499 34s-39.5 52 -39.5 88c0 50.667 24.667 95.667 74 135c-8 6 -15 17.667 -21 35zM306.998 470l-62 -166h127z" />
    <glyph glyph-name="aogonek" unicode="&#x105;" horiz-adv-x="496" 
d="M289 45c-30.667 -36.667 -74.3369 -55 -131.004 -55c-51.333 0 -90.666 13.167 -117.999 39.5s-41 61.833 -41 106.5c0 56.667 19.333 98 58 124s89.334 39 152.001 39c12 0 24.5 -0.5 37.5 -1.5s22.833 -2.16699 29.5 -3.5l11 -2v26c0 16 -4.83301 27.833 -14.5 35.5
s-27.834 11.5 -54.501 11.5c-10.667 0 -21.667 -1 -33 -3s-24.333 -4.5 -39 -7.5s-27.667 -5.5 -39 -7.5c-36.667 -6 -59.334 6 -68.001 36c-11.333 40 6.66699 70.667 54 92c36.667 16.667 86.334 25 149.001 25c67.333 0 118.333 -17.5 153 -52.5s52 -82.5 52 -142.5v-228
c0 -23.333 -9.5 -50 -28.5 -80s-28.5 -57.333 -28.5 -82c0 -16.667 4.66699 -28.834 14 -36.501s20 -11.5 32 -11.5c4.66699 0 10.334 0.666992 17.001 2s11.334 2 14.001 2c18 2 30.333 -4.66699 37 -20c5.33301 -10 5.83301 -21.667 1.5 -35s-13.833 -24.333 -28.5 -33
c-25.333 -14 -58.333 -21 -99 -21c-45.333 0 -81.166 11.333 -107.499 34s-39.5 52 -39.5 88c0 50.667 24.667 95.667 74 135c-8.66699 6.66699 -14 15.334 -16 26.001zM211.997 115c19.333 0 36.666 6.33301 51.999 19s23 29 23 49v24c-18 3.33301 -36 5 -54 5
c-46 0 -69 -18.333 -69 -55c0 -12 4.33301 -22 13 -30s20.334 -12 35.001 -12z" />
    <glyph glyph-name="Cacute" unicode="&#x106;" horiz-adv-x="625" 
d="M361 540c-42.667 0 -76.167 -17.335 -100.5 -52.002s-36.5 -83 -36.5 -145c0 -62.667 13.5 -110.5 40.5 -143.5s60.833 -49.5 101.5 -49.5c14 0 28.333 2 43 6s25.834 7.83301 33.501 11.5s20.5 10.167 38.5 19.5c46 23.333 81 20 105 -10
c13.333 -15.333 17.166 -35.666 11.499 -60.999s-20.834 -47.666 -45.501 -66.999c-50 -39.333 -117.333 -59 -202 -59c-103.333 0 -181.833 31 -235.5 93s-80.5 149 -80.5 261c0 108.667 29.333 195.167 88 259.5s137 96.5 235 96.5c82.667 0 146 -17 190 -51
c18.667 -14.667 29.834 -32 33.501 -52s1.5 -36 -6.5 -48c-18 -36.667 -52 -46.667 -102 -30c-42 14 -79 21 -111 21zM485 786.998l-115 -50.999c-44.667 -20 -74.334 -12.667 -89.001 22c-15.333 34.667 -1.66602 62 41.001 82l115 53c44 19.333 74.333 11.666 91 -23.001
c8 -18 8.16699 -34.167 0.5 -48.5s-22.167 -25.833 -43.5 -34.5z" />
    <glyph glyph-name="cacute" unicode="&#x107;" horiz-adv-x="455" 
d="M415 36c-36.667 -30.667 -88.334 -45.999 -155.001 -45.999c-71.333 0 -128.5 22 -171.5 66s-64.5 106.333 -64.5 187c0 79.333 22.167 142 66.5 188s102.5 69 174.5 69c55.333 0 99 -9 131 -27c36 -20.667 48.333 -50.667 37 -90
c-10.667 -34.667 -41.667 -47.667 -93 -39c-25.333 4 -44.333 6 -57 6c-56 0 -84 -36.667 -84 -110c0 -32 7.83301 -56.667 23.5 -74s34.834 -26 57.501 -26c14.667 0 39 6.33301 73 19c41.333 15.333 71 8 89 -22c9.33301 -13.333 11.5 -29.833 6.5 -49.5
s-16.167 -36.834 -33.5 -51.501zM366 611.001l-89 -56.999c-18.667 -12 -36.667 -17 -54 -15s-30.333 10.667 -39 26c-20 34 -11 63.333 27 88l89 57c40 25.333 70.667 21.666 92 -11.001c10 -12 13.167 -26.5 9.5 -43.5s-15.5 -31.833 -35.5 -44.5z" />
    <glyph glyph-name="Ccircumflex" unicode="&#x108;" horiz-adv-x="625" 
d="M219 830l96 52c23.333 12 47.333 12 72 0l99 -50c44.667 -22 59 -50 43 -84c-8 -16.667 -20.167 -26.5 -36.5 -29.5s-33.5 0.833008 -51.5 11.5l-89 48l-91 -48c-20.667 -10.667 -39 -14 -55 -10s-27 13.667 -33 29c-13.333 31.333 2 58.333 46 81zM361 540
c-42.667 0 -76.167 -17.335 -100.5 -52.002s-36.5 -83 -36.5 -145c0 -62.667 13.5 -110.5 40.5 -143.5s60.833 -49.5 101.5 -49.5c14 0 28.333 2 43 6s25.834 7.83301 33.501 11.5s20.5 10.167 38.5 19.5c46 23.333 81 20 105 -10
c13.333 -15.333 17.166 -35.666 11.499 -60.999s-20.834 -47.666 -45.501 -66.999c-50 -39.333 -117.333 -59 -202 -59c-103.333 0 -181.833 31 -235.5 93s-80.5 149 -80.5 261c0 108.667 29.333 195.167 88 259.5s137 96.5 235 96.5c82.667 0 146 -17 190 -51
c18.667 -14.667 29.834 -32 33.501 -52s1.5 -36 -6.5 -48c-18 -36.667 -52 -46.667 -102 -30c-42 14 -79 21 -111 21z" />
    <glyph glyph-name="ccircumflex" unicode="&#x109;" horiz-adv-x="455" 
d="M415 36c-36.667 -30.667 -88.334 -45.999 -155.001 -45.999c-71.333 0 -128.5 22 -171.5 66s-64.5 106.333 -64.5 187c0 79.333 22.167 142 66.5 188s102.5 69 174.5 69c55.333 0 99 -9 131 -27c36 -20.667 48.333 -50.667 37 -90
c-10.667 -34.667 -41.667 -47.667 -93 -39c-25.333 4 -44.333 6 -57 6c-56 0 -84 -36.667 -84 -110c0 -32 7.83301 -56.667 23.5 -74s34.834 -26 57.501 -26c14.667 0 39 6.33301 73 19c41.333 15.333 71 8 89 -22c9.33301 -13.333 11.5 -29.833 6.5 -49.5
s-16.167 -36.834 -33.5 -51.501zM115 633.001l94 68.001c28.667 21.333 58 22 88 2l94 -64c18 -12.667 28.833 -26.667 32.5 -42s0.5 -29.333 -9.5 -42c-12 -14.667 -25.5 -22 -40.5 -22s-30.5 6 -46.5 18l-77 54l-75 -54c-19.333 -12.667 -36 -18.334 -50 -17.001
s-24.667 7.66602 -32 18.999c-20 28.667 -12.667 55.334 22 80.001z" />
    <glyph glyph-name="Cdotaccent" unicode="&#x10a;" horiz-adv-x="625" 
d="M361 540c-42.667 0 -76.167 -17.335 -100.5 -52.002s-36.5 -83 -36.5 -145c0 -62.667 13.5 -110.5 40.5 -143.5s60.833 -49.5 101.5 -49.5c14 0 28.333 2 43 6s25.834 7.83301 33.501 11.5s20.5 10.167 38.5 19.5c46 23.333 81 20 105 -10
c13.333 -15.333 17.166 -35.666 11.499 -60.999s-20.834 -47.666 -45.501 -66.999c-50 -39.333 -117.333 -59 -202 -59c-103.333 0 -181.833 31 -235.5 93s-80.5 149 -80.5 261c0 108.667 29.333 195.167 88 259.5s137 96.5 235 96.5c82.667 0 146 -17 190 -51
c18.667 -14.667 29.834 -32 33.501 -52s1.5 -36 -6.5 -48c-18 -36.667 -52 -46.667 -102 -30c-42 14 -79 21 -111 21zM255 792.998c0 26 10.167 45 30.5 57s46.166 18 77.499 18s57.166 -6 77.499 -18s30.5 -31 30.5 -57s-10.167 -44.833 -30.5 -56.5
s-46.166 -17.5 -77.499 -17.5s-57.166 5.83301 -77.499 17.5s-30.5 30.5 -30.5 56.5z" />
    <glyph glyph-name="cdotaccent" unicode="&#x10b;" horiz-adv-x="455" 
d="M415 36c-36.667 -30.667 -88.334 -45.999 -155.001 -45.999c-71.333 0 -128.5 22 -171.5 66s-64.5 106.333 -64.5 187c0 79.333 22.167 142 66.5 188s102.5 69 174.5 69c55.333 0 99 -9 131 -27c36 -20.667 48.333 -50.667 37 -90
c-10.667 -34.667 -41.667 -47.667 -93 -39c-25.333 4 -44.333 6 -57 6c-56 0 -84 -36.667 -84 -110c0 -32 7.83301 -56.667 23.5 -74s34.834 -26 57.501 -26c14.667 0 39 6.33301 73 19c41.333 15.333 71 8 89 -22c9.33301 -13.333 11.5 -29.833 6.5 -49.5
s-16.167 -36.834 -33.5 -51.501zM157 620.001c0 25.333 8 45 24 59s37.667 21 65 21c26.667 0 48.167 -7.16699 64.5 -21.5s24.5 -33.833 24.5 -58.5c0 -26 -8.16699 -45.833 -24.5 -59.5s-37.833 -20.5 -64.5 -20.5c-27.333 0 -49 6.83301 -65 20.5s-24 33.5 -24 59.5z" />
    <glyph glyph-name="Ccaron" unicode="&#x10c;" horiz-adv-x="625" 
d="M503 768l-96 -52.002c-23.333 -12 -47.333 -12 -72 0l-99 50c-44.667 22 -58.667 50.333 -42 85s45.667 40.334 87 17.001l89 -48l91 48c20.667 10.667 38.5 14.334 53.5 11.001s26.167 -12.333 33.5 -27c15.333 -32.667 0.333008 -60.667 -45 -84zM361 539.998
c-42.667 0 -76.167 -17.335 -100.5 -52.002s-36.5 -83 -36.5 -145c0 -62.667 13.5 -110.5 40.5 -143.5s60.833 -49.5 101.5 -49.5c14 0 28.333 2 43 6s25.834 7.83301 33.501 11.5s20.5 10.167 38.5 19.5c46 23.333 81 20 105 -10
c13.333 -15.333 17.166 -35.666 11.499 -60.999s-20.834 -47.666 -45.501 -66.999c-50 -39.333 -117.333 -59 -202 -59c-103.333 0 -181.833 31 -235.5 93s-80.5 149 -80.5 261c0 108.667 29.333 195.167 88 259.5s137 96.5 235 96.5c82.667 0 146 -17 190 -51
c18.667 -14.667 29.834 -32 33.501 -52s1.5 -36 -6.5 -48c-18 -36.667 -52 -46.667 -102 -30c-42 14 -79 21 -111 21z" />
    <glyph glyph-name="ccaron" unicode="&#x10d;" horiz-adv-x="455" 
d="M394 613l-94 -68.002c-28.667 -21.333 -58 -22 -88 -2l-94 64c-18 12.667 -29 26.667 -33 42s-0.666992 29.333 10 42c22 28.667 51 30 87 4l75 -54l77 54c19.333 12.667 35.833 18.334 49.5 17.001s24.5 -7.66602 32.5 -18.999c19.333 -28 12 -54.667 -22 -80z
M415 35.998c-36.667 -30.667 -88.334 -45.999 -155.001 -45.999c-71.333 0 -128.5 22 -171.5 66s-64.5 106.333 -64.5 187c0 79.333 22.167 142 66.5 188s102.5 69 174.5 69c55.333 0 99 -9 131 -27c36 -20.667 48.333 -50.667 37 -90
c-10.667 -34.667 -41.667 -47.667 -93 -39c-25.333 4 -44.333 6 -57 6c-56 0 -84 -36.667 -84 -110c0 -32 7.83301 -56.667 23.5 -74s34.834 -26 57.501 -26c14.667 0 39 6.33301 73 19c41.333 15.333 71 8 89 -22c9.33301 -13.333 11.5 -29.833 6.5 -49.5
s-16.167 -36.834 -33.5 -51.501z" />
    <glyph glyph-name="Dcaron" unicode="&#x10e;" horiz-adv-x="701" 
d="M452 768l-96 -52.002c-23.333 -12 -47.333 -12 -72 0l-99 50c-44.667 22 -58.667 50.333 -42 85s45.667 40.334 87 17.001l89 -48l91 48c20.667 10.667 38.5 14.334 53.5 11.001s26.167 -12.333 33.5 -27c15.333 -32.667 0.333008 -60.667 -45 -84zM60 97.998
l0.000976562 484.999c0 27.333 6 49.333 18 66s33 27.667 63 33c44.667 8.66699 98.667 13 162 13c117.333 0 206.666 -29.333 267.999 -88s92 -144.667 92 -258c0 -109.333 -30.833 -195.666 -92.5 -258.999s-150.167 -95 -265.5 -95c-70.667 0 -124.667 3.33301 -162 10
c-55.333 9.33301 -83 40.333 -83 93zM310.001 154.997c53.333 0 93.833 16.999 121.5 50.999s41.5 81.667 41.5 143c0 58.667 -14 104.334 -42 137.001s-69 49 -123 49c-25.333 0 -48 -1 -68 -3v-375c24 -1.33301 47.333 -2 70 -2z" />
    <glyph glyph-name="dcaron" unicode="&#x10f;" horiz-adv-x="681" 
d="M550 524c12.667 14.667 18.999 28 18.999 40c0 2.66699 -0.333008 5 -1 7s-2 4 -4 6l-4.5 4.5c-1 1 -3 2.5 -6 4.5s-4.83301 3.33301 -5.5 4c-30.667 22 -38 48 -22 78c16 31.333 45.667 40.333 89 27c49.333 -15.333 74 -48.666 74 -99.999
c0 -46.667 -19.333 -85 -58 -115c-15.333 -12 -32.666 -20 -51.999 -24s-34.333 -0.666992 -45 10c-10 15.333 -4.66699 34.666 16 57.999zM208.999 -10c-55.333 0 -100.001 21.334 -134.001 64.001s-51 103 -51 181c0 81.333 18.833 145.833 56.5 193.5
s91.834 71.5 162.501 71.5c36.667 0 65.667 -4 87 -12v117c0 24.667 7.33301 45 22 61s35.667 24 63 24c26.667 0 47.5 -8 62.5 -24s22.5 -36.333 22.5 -61v-521c0 -24.667 -7.66699 -44.834 -23 -60.501s-36 -23.5 -62 -23.5c-38 -0 -63.667 15.333 -77 46
c-28.667 -37.333 -71.667 -56 -129 -56zM254.998 130.001c48.667 0 73.667 43.667 75 131v93c-17.333 7.33301 -37.333 11 -60 11s-40.167 -11.333 -52.5 -34s-18.5 -55.667 -18.5 -99c0 -68 18.667 -102 56 -102z" />
    <glyph glyph-name="Dcroat" unicode="&#x110;" horiz-adv-x="702" 
d="M61 405l0.000976562 177.999c0 27.333 6 49.333 18 66s33 27.667 63 33c44.667 8.66699 98.667 13 162 13c117.333 0 206.666 -29.333 267.999 -88s92 -144.667 92 -258c0 -109.333 -30.833 -195.666 -92.5 -258.999s-150.167 -95 -265.5 -95
c-70.667 0 -124.667 3.33301 -162 10c-55.333 9.33301 -83 40.333 -83 93v207h-21c-37.333 0 -56 16.667 -56 50s18.667 50 56 50h21zM311.001 154.999c53.333 0 93.833 16.999 121.5 50.999s41.5 81.667 41.5 143c0 58.667 -14 104.334 -42 137.001s-69 49 -123 49
c-25.333 0 -48 -1 -68 -3v-127h108c37.333 0 56 -16.667 56 -50s-18.667 -50 -56 -50h-108v-148c24 -1.33301 47.333 -2 70 -2z" />
    <glyph glyph-name="dcroat" unicode="&#x111;" horiz-adv-x="560" 
d="M209 -10c-55.333 0 -100.001 21.334 -134.001 64.001s-51 103 -51 181c0 81.333 18.833 145.833 56.5 193.5s91.834 71.5 162.501 71.5c36.667 0 65.667 -4 87 -12v42h-91c-37.333 0 -56 15 -56 45s18.667 45 56 45h92c2.66699 20.667 11.334 37.5 26.001 50.5
s34 19.5 58 19.5s43.167 -6.5 57.5 -19.5s23.166 -29.833 26.499 -50.5h21c37.333 0 56 -15 56 -45s-18.667 -45 -56 -45h-20v-446c0 -24.667 -7.66699 -44.834 -23 -60.501s-36 -23.5 -62 -23.5c-38 -0 -63.667 15.333 -77 46c-32 -37.333 -75 -56 -129 -56z
M254.999 130.001c48.667 0 73.667 43.667 75 131v93c-17.333 7.33301 -37.333 11 -60 11s-40.167 -11.333 -52.5 -34s-18.5 -55.667 -18.5 -99c0 -68 18.667 -102 56 -102z" />
    <glyph glyph-name="Emacron" unicode="&#x112;" horiz-adv-x="579" 
d="M60 91v508c0 26.667 7.83301 48.5 23.5 65.5s37.834 25.5 66.501 25.5h318c27.333 0 48.833 -7 64.5 -21s23.5 -33.667 23.5 -59c0 -24 -7.83301 -43.333 -23.5 -58s-37.167 -22 -64.5 -22h-228v-100h177c27.333 0 48.833 -7 64.5 -21s23.5 -33.667 23.5 -59
c0 -24 -7.83301 -43.333 -23.5 -58s-37.167 -22 -64.5 -22h-177v-110h237c27.333 0 48.833 -7 64.5 -21s23.5 -33.667 23.5 -59c0 -24 -7.83301 -43.333 -23.5 -58s-37.167 -22 -64.5 -22h-327c-28.667 0 -50.834 8.5 -66.501 25.5s-23.5 38.833 -23.5 65.5zM420 720h-219
c-46.667 0 -70 18 -70 54c0 18.667 5.5 32.334 16.5 41.001s28.833 13 53.5 13h219c24.667 0 42.5 -4.33301 53.5 -13s16.5 -22.334 16.5 -41.001c0 -36 -23.333 -54 -70 -54z" />
    <glyph glyph-name="emacron" unicode="&#x113;" horiz-adv-x="509" 
d="M404 197h-211.999c2.66699 -24 12.167 -42.833 28.5 -56.5s36.833 -20.5 61.5 -20.5c20 0 50.333 7.33301 91 22c40 14.667 68 7.66699 84 -21c8.66699 -12 10.5 -27.5 5.5 -46.5s-16.833 -34.5 -35.5 -46.5c-38.667 -25.333 -91.334 -38 -158.001 -38
c-73.333 0 -132.5 22.5 -177.5 67.5s-67.5 108.167 -67.5 189.5c0 78.667 22.5 140.5 67.5 185.5s103.167 67.5 174.5 67.5c66.667 0 120.667 -18.333 162 -55s62 -87.667 62 -153c0 -14 -1.33301 -27 -4 -39c-8.66699 -37.333 -36 -56 -82 -56zM271.001 370
c-23.333 0 -42 -7.16602 -56 -21.499s-22 -34.833 -24 -61.5h142c1.33301 8 2 15.667 2 23c0 17.333 -5.5 31.666 -16.5 42.999s-26.833 17 -47.5 17zM364.001 545.001h-202c-46.667 0 -70 18.333 -70 55s23.333 55 70 55h202c46.667 0 70 -18.333 70 -55
s-23.333 -55 -70 -55z" />
    <glyph glyph-name="Edotaccent" unicode="&#x116;" horiz-adv-x="579" 
d="M60 91v508c0 26.667 7.83301 48.5 23.5 65.5s37.834 25.5 66.501 25.5h318c27.333 0 48.833 -7 64.5 -21s23.5 -33.667 23.5 -59c0 -24 -7.83301 -43.333 -23.5 -58s-37.167 -22 -64.5 -22h-228v-100h177c27.333 0 48.833 -7 64.5 -21s23.5 -33.667 23.5 -59
c0 -24 -7.83301 -43.333 -23.5 -58s-37.167 -22 -64.5 -22h-177v-110h237c27.333 0 48.833 -7 64.5 -21s23.5 -33.667 23.5 -59c0 -24 -7.83301 -43.333 -23.5 -58s-37.167 -22 -64.5 -22h-327c-28.667 0 -50.834 8.5 -66.501 25.5s-23.5 38.833 -23.5 65.5zM201 793
c0 26 10.167 45 30.5 57s46.166 18 77.499 18s57.166 -6 77.499 -18s30.5 -31 30.5 -57s-10.167 -44.833 -30.5 -56.5s-46.166 -17.5 -77.499 -17.5s-57.166 5.83301 -77.499 17.5s-30.5 30.5 -30.5 56.5z" />
    <glyph glyph-name="edotaccent" unicode="&#x117;" horiz-adv-x="509" 
d="M404 197h-211.999c2.66699 -24 12.167 -42.833 28.5 -56.5s36.833 -20.5 61.5 -20.5c20 0 50.333 7.33301 91 22c40 14.667 68 7.66699 84 -21c8.66699 -12 10.5 -27.5 5.5 -46.5s-16.833 -34.5 -35.5 -46.5c-38.667 -25.333 -91.334 -38 -158.001 -38
c-73.333 0 -132.5 22.5 -177.5 67.5s-67.5 108.167 -67.5 189.5c0 78.667 22.5 140.5 67.5 185.5s103.167 67.5 174.5 67.5c66.667 0 120.667 -18.333 162 -55s62 -87.667 62 -153c0 -14 -1.33301 -27 -4 -39c-8.66699 -37.333 -36 -56 -82 -56zM271.001 370
c-23.333 0 -42 -7.16602 -56 -21.499s-22 -34.833 -24 -61.5h142c1.33301 8 2 15.667 2 23c0 17.333 -5.5 31.666 -16.5 42.999s-26.833 17 -47.5 17zM176.001 620.001c0 25.333 8 45 24 59s37.667 21 65 21c26.667 0 48.167 -7.16699 64.5 -21.5s24.5 -33.833 24.5 -58.5
c0 -26 -8.16699 -45.833 -24.5 -59.5s-37.833 -20.5 -64.5 -20.5c-27.333 0 -49 6.83301 -65 20.5s-24 33.5 -24 59.5z" />
    <glyph glyph-name="Eogonek" unicode="&#x118;" horiz-adv-x="579" 
d="M60 91l-0.00292969 507.999c0 26.667 7.83301 48.5 23.5 65.5s37.834 25.5 66.501 25.5h318c27.333 0 48.833 -7 64.5 -21s23.5 -33.667 23.5 -59c0 -24 -7.83301 -43.333 -23.5 -58s-37.167 -22 -64.5 -22h-228v-100h177c27.333 0 48.833 -7 64.5 -21
s23.5 -33.667 23.5 -59c0 -24 -7.83301 -43.333 -23.5 -58s-37.167 -22 -64.5 -22h-177v-110h237c27.333 0 48.833 -7 64.5 -21s23.5 -33.667 23.5 -59c0 -24 -7.83301 -43.333 -23.5 -58s-37.167 -22 -64.5 -22h-1c-22 -27.333 -33 -55.666 -33 -84.999
c0 -16.667 4.16699 -28.834 12.5 -36.501s18.5 -11.5 30.5 -11.5c4.66699 0 10.334 0.666992 17.001 2s11.334 2 14.001 2c18 2 30.333 -4.66699 37 -20c5.33301 -10 5.83301 -21.667 1.5 -35s-13.833 -24.333 -28.5 -33c-25.333 -14 -58.333 -21 -99 -21
c-45.333 0 -81.166 11.333 -107.499 34s-39.5 52 -39.5 88c0 46.667 17.667 85.334 53 116.001h-184c-28.667 0 -50.834 8.5 -66.501 25.5s-23.5 38.833 -23.5 65.5z" />
    <glyph glyph-name="eogonek" unicode="&#x119;" horiz-adv-x="509" 
d="M404 197h-212.002c2.66699 -24 12 -42.833 28 -56.5s36.333 -20.5 61 -20.5c20.667 0 51.334 7.33301 92.001 22c40 14.667 68 7 84 -23c8 -12.667 9.66699 -28.167 5 -46.5s-16.334 -33.5 -35.001 -45.5c-6 -4 -18 -10 -36 -18c-27.333 -30.667 -41 -62 -41 -94
c0 -16.667 4.16699 -28.834 12.5 -36.501s18.5 -11.5 30.5 -11.5c4.66699 0 10.334 0.666992 17.001 2s11.334 2 14.001 2c18 2 30.333 -4.66699 37 -20c5.33301 -10 5.83301 -21.667 1.5 -35s-13.833 -24.333 -28.5 -33c-25.333 -14 -58.333 -21 -99 -21
c-45.333 0 -81.166 11.333 -107.499 34s-39.5 52 -39.5 88c0 43.333 16.333 79.333 49 108c-64.667 6 -116.334 30.833 -155.001 74.5s-58 102.834 -58 177.501c0 80.667 22.333 143.5 67 188.5s103 67.5 175 67.5c66.667 0 120.667 -18.333 162 -55s62 -87.667 62 -153
c0 -13.333 -1.33301 -26 -4 -38c-8.66699 -38 -36 -57 -82 -57zM270.998 370c-22.667 0 -41 -6.99902 -55 -20.999s-22.333 -34.667 -25 -62h142c1.33301 8 2 15.667 2 23c0 17.333 -5.5 31.666 -16.5 42.999s-26.833 17 -47.5 17z" />
    <glyph glyph-name="Ecaron" unicode="&#x11a;" horiz-adv-x="579" 
d="M60 91v508c0 26.667 7.83301 48.5 23.5 65.5s37.834 25.5 66.501 25.5h318c27.333 0 48.833 -7 64.5 -21s23.5 -33.667 23.5 -59c0 -24 -7.83301 -43.333 -23.5 -58s-37.167 -22 -64.5 -22h-228v-100h177c27.333 0 48.833 -7 64.5 -21s23.5 -33.667 23.5 -59
c0 -24 -7.83301 -43.333 -23.5 -58s-37.167 -22 -64.5 -22h-177v-110h237c27.333 0 48.833 -7 64.5 -21s23.5 -33.667 23.5 -59c0 -24 -7.83301 -43.333 -23.5 -58s-37.167 -22 -64.5 -22h-327c-28.667 0 -50.834 8.5 -66.501 25.5s-23.5 38.833 -23.5 65.5zM460 768
l-96 -52.002c-23.333 -12 -47.333 -12 -72 0l-99 50c-44.667 22 -58.667 50.333 -42 85s45.667 40.334 87 17.001l89 -48l91 48c20.667 10.667 38.5 14.334 53.5 11.001s26.167 -12.333 33.5 -27c15.333 -32.667 0.333008 -60.667 -45 -84z" />
    <glyph glyph-name="ecaron" unicode="&#x11b;" horiz-adv-x="509" 
d="M404 197h-211.999c2.66699 -24 12.167 -42.833 28.5 -56.5s36.833 -20.5 61.5 -20.5c20 0 50.333 7.33301 91 22c40 14.667 68 7.66699 84 -21c8.66699 -12 10.5 -27.5 5.5 -46.5s-16.833 -34.5 -35.5 -46.5c-38.667 -25.333 -91.334 -38 -158.001 -38
c-73.333 0 -132.5 22.5 -177.5 67.5s-67.5 108.167 -67.5 189.5c0 78.667 22.5 140.5 67.5 185.5s103.167 67.5 174.5 67.5c66.667 0 120.667 -18.333 162 -55s62 -87.667 62 -153c0 -14 -1.33301 -27 -4 -39c-8.66699 -37.333 -36 -56 -82 -56zM271.001 370
c-23.333 0 -42 -7.16602 -56 -21.499s-22 -34.833 -24 -61.5h142c1.33301 8 2 15.667 2 23c0 17.333 -5.5 31.666 -16.5 42.999s-26.833 17 -47.5 17zM412.001 613.001l-94 -68.002c-28.667 -21.333 -58 -22 -88 -2l-94 64c-18 12.667 -29 26.667 -33 42
s-0.666992 29.333 10 42c22 28.667 51 30 87 4l75 -54l77 54c19.333 12.667 35.833 18.334 49.5 17.001s24.5 -7.66602 32.5 -18.999c19.333 -28 12 -54.667 -22 -80z" />
    <glyph glyph-name="Gcircumflex" unicode="&#x11c;" horiz-adv-x="665" 
d="M362 -10c-107.333 0 -188.83 31.5 -244.497 94.5s-83.5 149.5 -83.5 259.5c0 107.333 29.167 193.5 87.5 258.5s139.166 97.5 242.499 97.5c86 0 150.333 -15.667 193 -47c20.667 -14.667 33 -32.334 37 -53.001s1 -39 -9 -55c-18 -34 -54.333 -42 -109 -24
c-38 12.667 -74 19 -108 19c-44.667 0 -79.834 -17.5 -105.501 -52.5s-38.5 -83.5 -38.5 -145.5c0 -63.333 13.833 -111.166 41.5 -143.499s64.167 -48.5 109.5 -48.5c49.333 0 88 9.33301 116 28v75h-64c-53.333 0 -80 21.667 -80 65s26.667 65 80 65h119
c27.333 0 48.333 -5 63 -15s22 -29.333 22 -58v-162c0 -43.333 -16 -76 -48 -98c-56.667 -40 -130.334 -60 -221.001 -60zM227.003 830l96 52c23.333 12 47.333 12 72 0l99 -50c44.667 -22 59 -50 43 -84c-8 -16.667 -20.167 -26.5 -36.5 -29.5s-33.5 0.833008 -51.5 11.5
l-89 48l-91 -48c-20.667 -10.667 -39 -14 -55 -10s-27 13.667 -33 29c-13.333 31.333 2 58.333 46 81z" />
    <glyph glyph-name="gcircumflex" unicode="&#x11d;" horiz-adv-x="512" 
d="M34 329c0 53.333 18.501 95.165 55.501 125.498s89.833 45.5 158.5 45.5c29.333 0 57.333 -3.33301 84 -10h115c49.333 0 74 -18.667 74 -56c0 -35.333 -22.333 -54 -67 -56c5.33301 -21.333 8 -37.666 8 -48.999c0 -52 -18.833 -93.333 -56.5 -124
s-90.167 -46 -157.5 -46c-30.667 0 -58 3 -82 9c-12 -8 -18 -17 -18 -27c0 -11.333 10 -19.5 30 -24.5s57.667 -8.16699 113 -9.5c138.667 -3.33301 208 -48.333 208 -135c0 -54 -22.5 -97.833 -67.5 -131.5s-108.5 -50.5 -190.5 -50.5
c-76.667 0 -135.334 13.333 -176.001 40s-61 60.334 -61 101.001c0 46.667 23.333 83 70 109c-32 20.667 -48 47.667 -48 81c0 36 17.333 67.333 52 94c-29.333 30.667 -44 68.667 -44 114zM243.001 -2.00098c-38 3.33301 -58.666 5.33301 -61.999 6
c-19.333 -12.667 -29 -26.667 -29 -42c0 -28 29.667 -42 89 -42c65.333 0 98 13.667 98 41c0 12.667 -7.33301 21.5 -22 26.5s-39.334 8.5 -74.001 10.5zM181.002 328.999c0 -16 6.16699 -28.167 18.5 -36.5s28.5 -12.5 48.5 -12.5s36.167 4.16699 48.5 12.5
s18.5 20.5 18.5 36.5c0 16.667 -6.16699 29.167 -18.5 37.5s-28.5 12.5 -48.5 12.5s-36.167 -4.16699 -48.5 -12.5s-18.5 -20.833 -18.5 -37.5zM110.002 632.999l94 68.001c28.667 21.333 58 22 88 2l94 -64c18 -12.667 28.833 -26.667 32.5 -42s0.5 -29.333 -9.5 -42
c-12 -14.667 -25.5 -22 -40.5 -22s-30.5 6 -46.5 18l-77 54l-75 -54c-19.333 -12.667 -36 -18.334 -50 -17.001s-24.667 7.66602 -32 18.999c-20 28.667 -12.667 55.334 22 80.001z" />
    <glyph glyph-name="Gbreve" unicode="&#x11e;" horiz-adv-x="665" 
d="M362 -10c-107.333 0 -188.83 31.5 -244.497 94.5s-83.5 149.5 -83.5 259.5c0 107.333 29.167 193.5 87.5 258.5s139.166 97.5 242.499 97.5c86 0 150.333 -15.667 193 -47c20.667 -14.667 33 -32.334 37 -53.001s1 -39 -9 -55c-18 -34 -54.333 -42 -109 -24
c-38 12.667 -74 19 -108 19c-44.667 0 -79.834 -17.5 -105.501 -52.5s-38.5 -83.5 -38.5 -145.5c0 -63.333 13.833 -111.166 41.5 -143.499s64.167 -48.5 109.5 -48.5c49.333 0 88 9.33301 116 28v75h-64c-53.333 0 -80 21.667 -80 65s26.667 65 80 65h119
c27.333 0 48.333 -5 63 -15s22 -29.333 22 -58v-162c0 -43.333 -16 -76 -48 -98c-56.667 -40 -130.334 -60 -221.001 -60zM358.003 717c-34.667 0 -66.833 5.49902 -96.5 16.499s-52.5 25.5 -68.5 43.5c-10.667 12 -16 25.833 -16 41.5s5.33301 28.834 16 39.501
c23.333 23.333 53.333 19.666 90 -11.001c22.667 -18.667 47.667 -28 75 -28c26.667 0 51.667 9.33301 75 28c11.333 8.66699 21 15.167 29 19.5s17.667 6.33301 29 6s22 -5.16602 32 -14.499c11.333 -10.667 16.833 -23.667 16.5 -39s-5.83301 -29.333 -16.5 -42
c-34.667 -40 -89.667 -60 -165 -60z" />
    <glyph glyph-name="gbreve" unicode="&#x11f;" horiz-adv-x="512" 
d="M34 329c0 53.333 18.501 95.165 55.501 125.498s89.833 45.5 158.5 45.5c29.333 0 57.333 -3.33301 84 -10h115c49.333 0 74 -18.667 74 -56c0 -35.333 -22.333 -54 -67 -56c5.33301 -21.333 8 -37.666 8 -48.999c0 -52 -18.833 -93.333 -56.5 -124
s-90.167 -46 -157.5 -46c-30.667 0 -58 3 -82 9c-12 -8 -18 -17 -18 -27c0 -11.333 10 -19.5 30 -24.5s57.667 -8.16699 113 -9.5c138.667 -3.33301 208 -48.333 208 -135c0 -54 -22.5 -97.833 -67.5 -131.5s-108.5 -50.5 -190.5 -50.5
c-76.667 0 -135.334 13.333 -176.001 40s-61 60.334 -61 101.001c0 46.667 23.333 83 70 109c-32 20.667 -48 47.667 -48 81c0 36 17.333 67.333 52 94c-29.333 30.667 -44 68.667 -44 114zM243.001 -2.00098c-38 3.33301 -58.666 5.33301 -61.999 6
c-19.333 -12.667 -29 -26.667 -29 -42c0 -28 29.667 -42 89 -42c65.333 0 98 13.667 98 41c0 12.667 -7.33301 21.5 -22 26.5s-39.334 8.5 -74.001 10.5zM181.002 328.999c0 -16 6.16699 -28.167 18.5 -36.5s28.5 -12.5 48.5 -12.5s36.167 4.16699 48.5 12.5
s18.5 20.5 18.5 36.5c0 16.667 -6.16699 29.167 -18.5 37.5s-28.5 12.5 -48.5 12.5s-36.167 -4.16699 -48.5 -12.5s-18.5 -20.833 -18.5 -37.5zM250.002 537.999c-73.333 0 -124.335 19.667 -153.002 59c-10 13.333 -14.5 28 -13.5 44s7.5 28.667 19.5 38
c24.667 18.667 53.334 13.334 86.001 -15.999c18 -16 38.333 -24 61 -24s43 8 61 24c32.667 29.333 61.334 34.666 86.001 15.999c12 -9.33301 18.5 -22 19.5 -38s-3.5 -30.667 -13.5 -44c-28.667 -39.333 -79.667 -59 -153 -59z" />
    <glyph glyph-name="Gdotaccent" unicode="&#x120;" horiz-adv-x="665" 
d="M362 -10c-107.333 0 -188.83 31.5 -244.497 94.5s-83.5 149.5 -83.5 259.5c0 107.333 29.167 193.5 87.5 258.5s139.166 97.5 242.499 97.5c86 0 150.333 -15.667 193 -47c20.667 -14.667 33 -32.334 37 -53.001s1 -39 -9 -55c-18 -34 -54.333 -42 -109 -24
c-38 12.667 -74 19 -108 19c-44.667 0 -79.834 -17.5 -105.501 -52.5s-38.5 -83.5 -38.5 -145.5c0 -63.333 13.833 -111.166 41.5 -143.499s64.167 -48.5 109.5 -48.5c49.333 0 88 9.33301 116 28v75h-64c-53.333 0 -80 21.667 -80 65s26.667 65 80 65h119
c27.333 0 48.333 -5 63 -15s22 -29.333 22 -58v-162c0 -43.333 -16 -76 -48 -98c-56.667 -40 -130.334 -60 -221.001 -60zM254.003 793c0 26 10.167 45 30.5 57s46.166 18 77.499 18s57.166 -6 77.499 -18s30.5 -31 30.5 -57s-10.167 -44.833 -30.5 -56.5
s-46.166 -17.5 -77.499 -17.5s-57.166 5.83301 -77.499 17.5s-30.5 30.5 -30.5 56.5z" />
    <glyph glyph-name="gdotaccent" unicode="&#x121;" horiz-adv-x="512" 
d="M34 329c0 53.333 18.501 95.165 55.501 125.498s89.833 45.5 158.5 45.5c29.333 0 57.333 -3.33301 84 -10h115c49.333 0 74 -18.667 74 -56c0 -35.333 -22.333 -54 -67 -56c5.33301 -21.333 8 -37.666 8 -48.999c0 -52 -18.833 -93.333 -56.5 -124
s-90.167 -46 -157.5 -46c-30.667 0 -58 3 -82 9c-12 -8 -18 -17 -18 -27c0 -11.333 10 -19.5 30 -24.5s57.667 -8.16699 113 -9.5c138.667 -3.33301 208 -48.333 208 -135c0 -54 -22.5 -97.833 -67.5 -131.5s-108.5 -50.5 -190.5 -50.5
c-76.667 0 -135.334 13.333 -176.001 40s-61 60.334 -61 101.001c0 46.667 23.333 83 70 109c-32 20.667 -48 47.667 -48 81c0 36 17.333 67.333 52 94c-29.333 30.667 -44 68.667 -44 114zM243.001 -2.00098c-38 3.33301 -58.666 5.33301 -61.999 6
c-19.333 -12.667 -29 -26.667 -29 -42c0 -28 29.667 -42 89 -42c65.333 0 98 13.667 98 41c0 12.667 -7.33301 21.5 -22 26.5s-39.334 8.5 -74.001 10.5zM181.002 328.999c0 -16 6.16699 -28.167 18.5 -36.5s28.5 -12.5 48.5 -12.5s36.167 4.16699 48.5 12.5
s18.5 20.5 18.5 36.5c0 16.667 -6.16699 29.167 -18.5 37.5s-28.5 12.5 -48.5 12.5s-36.167 -4.16699 -48.5 -12.5s-18.5 -20.833 -18.5 -37.5zM159.002 619.999c0 25.333 8 45 24 59s37.667 21 65 21c26.667 0 48.167 -7.16699 64.5 -21.5s24.5 -33.833 24.5 -58.5
c0 -26 -8.16699 -45.833 -24.5 -59.5s-37.833 -20.5 -64.5 -20.5c-27.333 0 -49 6.83301 -65 20.5s-24 33.5 -24 59.5z" />
    <glyph glyph-name="Gcommaaccent" unicode="&#x122;" horiz-adv-x="665" 
d="M314 -203c12.667 14.667 18.999 28 18.999 40c0 2.66699 -0.333008 5 -1 7s-2 4 -4 6l-4.5 4.5c-1 1 -3 2.5 -6 4.5s-4.83301 3.33301 -5.5 4c-30.667 22 -38 48 -22 78c16 31.333 45.667 40.333 89 27c49.333 -15.333 74 -48.666 74 -99.999
c0 -46.667 -19.333 -85 -58 -115c-15.333 -12 -32.666 -20 -51.999 -24s-34.333 -0.666992 -45 10c-10 15.333 -4.66699 34.666 16 57.999zM361.999 -10c-107.333 0 -188.83 31.5 -244.497 94.5s-83.5 149.5 -83.5 259.5c0 107.333 29.167 193.5 87.5 258.5
s139.166 97.5 242.499 97.5c86 0 150.333 -15.667 193 -47c20.667 -14.667 33 -32.334 37 -53.001s1 -39 -9 -55c-18 -34 -54.333 -42 -109 -24c-38 12.667 -74 19 -108 19c-44.667 0 -79.834 -17.5 -105.501 -52.5s-38.5 -83.5 -38.5 -145.5
c0 -63.333 13.833 -111.166 41.5 -143.499s64.167 -48.5 109.5 -48.5c49.333 0 88 9.33301 116 28v75h-64c-53.333 0 -80 21.667 -80 65s26.667 65 80 65h119c27.333 0 48.333 -5 63 -15s22 -29.333 22 -58v-162c0 -43.333 -16 -76 -48 -98
c-56.667 -40 -130.334 -60 -221.001 -60z" />
    <glyph glyph-name="gcommaaccent" unicode="&#x123;" horiz-adv-x="512" 
d="M291 708c-12.667 -13.333 -19.001 -25.002 -19.001 -35.002c0 -8 7 -17.333 21 -28c28.667 -20.667 35.667 -45.667 21 -75c-16 -29.333 -44.667 -37.666 -86 -24.999c-46.667 14.667 -70 46.334 -70 95.001c0 46 18.333 83 55 111
c14.667 11.333 31.334 18.833 50.001 22.5s33 0.5 43 -9.5c10 -14 5 -32.667 -15 -56zM33.999 329.998c0 53.333 18.501 95.165 55.501 125.498s89.833 45.5 158.5 45.5c29.333 0 57.333 -3.33301 84 -10h115c49.333 0 74 -18.667 74 -56c0 -35.333 -22.333 -54 -67 -56
c5.33301 -21.333 8 -37.666 8 -48.999c0 -52 -18.833 -93.333 -56.5 -124s-90.167 -46 -157.5 -46c-30.667 0 -58 3 -82 9c-12 -8 -18 -17 -18 -27c0 -11.333 10 -19.5 30 -24.5s57.667 -8.16699 113 -9.5c138.667 -3.33301 208 -48.333 208 -135
c0 -54 -22.5 -97.833 -67.5 -131.5s-108.5 -50.5 -190.5 -50.5c-76.667 0 -135.334 13.333 -176.001 40s-61 60.334 -61 101.001c0 46.667 23.333 83 70 109c-32 20.667 -48 47.667 -48 81c0 36 17.333 67.333 52 94c-29.333 30.667 -44 68.667 -44 114zM243 -1.00293
c-38 3.33301 -58.666 5.33301 -61.999 6c-19.333 -12.667 -29 -26.667 -29 -42c0 -28 29.667 -42 89 -42c65.333 0 98 13.667 98 41c0 12.667 -7.33301 21.5 -22 26.5s-39.334 8.5 -74.001 10.5zM181.001 329.997c0 -16 6.16699 -28.167 18.5 -36.5s28.5 -12.5 48.5 -12.5
s36.167 4.16699 48.5 12.5s18.5 20.5 18.5 36.5c0 16.667 -6.16699 29.167 -18.5 37.5s-28.5 12.5 -48.5 12.5s-36.167 -4.16699 -48.5 -12.5s-18.5 -20.833 -18.5 -37.5z" />
    <glyph glyph-name="Hcircumflex" unicode="&#x124;" horiz-adv-x="718" 
d="M470 599v-166h-230v166c0 26.667 -7.83301 48.5 -23.5 65.5s-37.834 25.5 -66.501 25.5s-50.834 -8.5 -66.501 -25.5s-23.5 -38.833 -23.5 -65.5v-508c0 -26.667 7.83301 -48.5 23.5 -65.5s37.834 -25.5 66.501 -25.5s50.834 8.5 66.501 25.5s23.5 38.833 23.5 65.5v182
h230v-182c0 -26.667 7.83301 -48.5 23.5 -65.5s38.167 -25.5 67.5 -25.5c28.667 -0 50.667 8.33301 66 25s23 38.667 23 66v508c0 26.667 -7.66699 48.5 -23 65.5s-37.333 25.5 -66 25.5s-51 -8.5 -67 -25.5s-24 -38.833 -24 -65.5zM224 830l96 52c23.333 12 47.333 12 72 0
l99 -50c44.667 -22 59 -50 43 -84c-8 -16.667 -20.167 -26.5 -36.5 -29.5s-33.5 0.833008 -51.5 11.5l-89 48l-91 -48c-20.667 -10.667 -39 -14 -55 -10s-27 13.667 -33 29c-13.333 31.333 2 58.333 46 81z" />
    <glyph glyph-name="hcircumflex" unicode="&#x125;" horiz-adv-x="562" 
d="M34 830l96 52c23.333 12 47.333 12 72 0l99 -50c44.667 -22 59 -50 43 -84c-8 -16.667 -20.167 -26.5 -36.5 -29.5s-33.5 0.833008 -51.5 11.5l-89 48l-91 -48c-20.667 -10.667 -39 -14 -55 -10s-27 13.667 -33 29c-13.333 31.333 2 58.333 46 81zM363 85l0.00195312 208
c0 18.667 -4.33301 33.667 -13 45s-20.334 17 -35.001 17c-29.333 0 -49.333 -13.5 -60 -40.5s-16 -63.833 -16 -110.5v-119c0 -25.333 -7.5 -45.833 -22.5 -61.5s-35.833 -23.5 -62.5 -23.5s-47.5 7.83301 -62.5 23.5s-22.5 36.167 -22.5 61.5v521c0 24 7.5 44 22.5 60
s35.833 24 62.5 24s47.5 -8 62.5 -24s22.5 -36 22.5 -60v-152c29.333 30.667 69.333 46 120 46c61.333 0 105.666 -18.167 132.999 -54.5s41 -89.833 41 -160.5v-200c0 -25.333 -7.5 -45.833 -22.5 -61.5s-35.833 -23.5 -62.5 -23.5s-47.5 7.83301 -62.5 23.5
s-22.5 36.167 -22.5 61.5z" />
    <glyph glyph-name="Hbar" unicode="&#x126;" horiz-adv-x="730" 
d="M476 594v5c0 26.667 8 48.5 24 65.5s38.333 25.5 67 25.5s50.667 -8.5 66 -25.5s23 -38.833 23 -65.5v-5h24c37.333 0 56 -16.667 56 -50s-18.667 -50 -56 -50h-24v-403c0 -27.333 -7.66699 -49.333 -23 -66s-37.333 -25 -66 -25c-29.333 0 -51.833 8.5 -67.5 25.5
s-23.5 38.833 -23.5 65.5v182h-230v-182c0 -26.667 -7.83301 -48.5 -23.5 -65.5s-37.834 -25.5 -66.501 -25.5s-50.834 8.5 -66.501 25.5s-23.5 38.833 -23.5 65.5v403h-16c-37.333 0 -56 16.667 -56 50s18.667 50 56 50h16v5c0 26.667 7.83301 48.5 23.5 65.5
s37.834 25.5 66.501 25.5s50.834 -8.5 66.501 -25.5s23.5 -38.833 23.5 -65.5v-5h230zM246 433h230v61h-230v-61z" />
    <glyph glyph-name="hbar" unicode="&#x127;" horiz-adv-x="574" 
d="M355 85l0.00195312 208c0 18.667 -4.33301 33.667 -13 45s-20.334 17 -35.001 17c-29.333 0 -49.333 -13.5 -60 -40.5s-16 -63.833 -16 -110.5v-119c0 -25.333 -7.5 -45.833 -22.5 -61.5s-35.833 -23.5 -62.5 -23.5s-47.5 7.83301 -62.5 23.5s-22.5 36.167 -22.5 61.5
v445h-21c-37.333 0 -56 15 -56 45s18.667 45 56 45h22c2.66699 20.667 11.334 37.5 26.001 50.5s34 19.5 58 19.5s43.167 -6.5 57.5 -19.5s23.166 -29.833 26.499 -50.5h121c37.333 0 56 -15 56 -45s-18.667 -45 -56 -45h-120v-76c29.333 30.667 69.333 46 120 46
c61.333 0 105.666 -18.167 132.999 -54.5s41 -89.833 41 -160.5v-200c0 -25.333 -7.5 -45.833 -22.5 -61.5s-35.833 -23.5 -62.5 -23.5s-47.5 7.83301 -62.5 23.5s-22.5 36.167 -22.5 61.5z" />
    <glyph glyph-name="Imacron" unicode="&#x12a;" horiz-adv-x="310" 
d="M65 91v508c0 26.667 7.83301 48.5 23.5 65.5s37.834 25.5 66.501 25.5s50.834 -8.5 66.501 -25.5s23.5 -38.833 23.5 -65.5v-508c0 -26.667 -7.83301 -48.5 -23.5 -65.5s-37.834 -25.5 -66.501 -25.5s-50.834 8.5 -66.501 25.5s-23.5 38.833 -23.5 65.5zM264 720h-219
c-46.667 0 -70 18 -70 54c0 18.667 5.5 32.334 16.5 41.001s28.833 13 53.5 13h219c24.667 0 42.5 -4.33301 53.5 -13s16.5 -22.334 16.5 -41.001c0 -36 -23.333 -54 -70 -54z" />
    <glyph glyph-name="imacron" unicode="&#x12b;" horiz-adv-x="278" 
d="M54 85v321c0 24 7.5 44 22.5 60s35.833 24 62.5 24s47.5 -8 62.5 -24s22.5 -36 22.5 -60v-321c0 -24.667 -7.33301 -45 -22 -61s-35.667 -24 -63 -24c-26.667 0 -47.5 8 -62.5 24s-22.5 36.333 -22.5 61zM240 545h-202c-46.667 0 -70 18.333 -70 55s23.333 55 70 55h202
c46.667 0 70 -18.333 70 -55s-23.333 -55 -70 -55z" />
    <glyph glyph-name="Iogonek" unicode="&#x12e;" horiz-adv-x="310" 
d="M65 85l-0.00488281 514.001c0 26.667 7.83301 48.5 23.5 65.5s37.834 25.5 66.501 25.5s50.834 -8.5 66.501 -25.5s23.5 -38.833 23.5 -65.5v-522c0 -23.333 -10.333 -50 -31 -80s-31 -57.333 -31 -82c0 -16.667 4.66699 -28.834 14 -36.501s20 -11.5 32 -11.5
c4.66699 0 10.334 0.666992 17.001 2s11.334 2 14.001 2c18 2 30.333 -4.66699 37 -20c5.33301 -10 5.83301 -21.667 1.5 -35s-13.833 -24.333 -28.5 -33c-24.667 -14 -57.667 -21 -99 -21c-45.333 0 -81.166 11.333 -107.499 34s-39.5 52 -39.5 88
c0 50.667 24.667 95.667 74 135c-22 16.667 -33 38.667 -33 66z" />
    <glyph glyph-name="iogonek" unicode="&#x12f;" horiz-adv-x="270" 
d="M50 85l-0.00292969 321.001c0 24 7.5 44 22.5 60s35.833 24 62.5 24s47.5 -8 62.5 -24s22.5 -36 22.5 -60v-329c0 -23.333 -9.5 -50 -28.5 -80s-28.5 -57.333 -28.5 -82c0 -16.667 4.66699 -28.834 14 -36.501s20 -11.5 32 -11.5c4.66699 0 10.334 0.666992 17.001 2
s11.334 2 14.001 2c18 2 30.333 -4.66699 37 -20c5.33301 -10 5.83301 -21.667 1.5 -35s-13.833 -24.333 -28.5 -33c-25.333 -14 -58.333 -21 -99 -21c-45.333 0 -81.166 11.333 -107.499 34s-39.5 52 -39.5 88c0 50.667 24.667 95.667 74 135c-18.667 14 -28 36 -28 66z
M45.9971 620.001c0 25.333 8 45 24 59s37.667 21 65 21c26.667 0 48.167 -7.16699 64.5 -21.5s24.5 -33.833 24.5 -58.5c0 -26 -8.16699 -45.833 -24.5 -59.5s-37.833 -20.5 -64.5 -20.5c-27.333 0 -49 6.83301 -65 20.5s-24 33.5 -24 59.5z" />
    <glyph glyph-name="Idotaccent" unicode="&#x130;" horiz-adv-x="310" 
d="M65 91v508c0 26.667 7.83301 48.5 23.5 65.5s37.834 25.5 66.501 25.5s50.834 -8.5 66.501 -25.5s23.5 -38.833 23.5 -65.5v-508c0 -26.667 -7.83301 -48.5 -23.5 -65.5s-37.834 -25.5 -66.501 -25.5s-50.834 8.5 -66.501 25.5s-23.5 38.833 -23.5 65.5zM47 793
c0 26 10.167 45 30.5 57s46.166 18 77.499 18s57.166 -6 77.499 -18s30.5 -31 30.5 -57s-10.167 -44.833 -30.5 -56.5s-46.166 -17.5 -77.499 -17.5s-57.166 5.83301 -77.499 17.5s-30.5 30.5 -30.5 56.5z" />
    <glyph glyph-name="dotlessi" unicode="&#x131;" horiz-adv-x="270" 
d="M50 85v321c0 24 7.5 44 22.5 60s35.833 24 62.5 24s47.5 -8 62.5 -24s22.5 -36 22.5 -60v-321c0 -24.667 -7.33301 -45 -22 -61s-35.667 -24 -63 -24c-26.667 0 -47.5 8 -62.5 24s-22.5 36.333 -22.5 61z" />
    <glyph glyph-name="Jcircumflex" unicode="&#x134;" horiz-adv-x="420" 
d="M-13 130c-8.66699 -22 -8.50195 -43.167 0.498047 -63.5s23.5 -36.166 43.5 -47.499c34.667 -19.333 79.334 -29 134.001 -29c64.667 0 114.834 17.167 150.501 51.5s53.5 83.166 53.5 146.499v411c0 26 -8 47.667 -24 65s-38 26 -66 26s-50 -8.66699 -66 -26
s-24 -39 -24 -65v-400c0 -32.667 -16 -49 -48 -49c-8 0 -29.667 4.66699 -65 14c-46 12 -75.667 0.666992 -89 -34zM135.998 830l96 52c23.333 12 47.333 12 72 0l99 -50c44.667 -22 59 -50 43 -84c-8 -16.667 -20.167 -26.5 -36.5 -29.5s-33.5 0.833008 -51.5 11.5l-89 48
l-91 -48c-20.667 -10.667 -39 -14 -55 -10s-27 13.667 -33 29c-13.333 31.333 2 58.333 46 81z" />
    <glyph glyph-name="jcircumflex" unicode="&#x135;" horiz-adv-x="276" 
d="M70 406l0.00195312 -423c0 -28.667 -11.667 -43 -35 -43c-7.33301 0 -24.333 2.66699 -51 8c-42.667 7.33301 -68.334 -7 -77.001 -43c-10.667 -44 5.33301 -75.667 48 -95c29.333 -13.333 63.666 -20 102.999 -20c60 0 105.333 17 136 51s46 82 46 144v421
c0 24 -7.5 44 -22.5 60s-35.833 24 -62.5 24s-47.5 -8 -62.5 -24s-22.5 -36 -22.5 -60zM17.002 633l94 68.001c28.667 21.333 58 22 88 2l94 -64c18 -12.667 28.833 -26.667 32.5 -42s0.5 -29.333 -9.5 -42c-12 -14.667 -25.5 -22 -40.5 -22s-30.5 6 -46.5 18l-77 54
l-75 -54c-19.333 -12.667 -36 -18.334 -50 -17.001s-24.667 7.66602 -32 18.999c-20 28.667 -12.667 55.334 22 80.001z" />
    <glyph glyph-name="Kcommaaccent" unicode="&#x136;" horiz-adv-x="616" 
d="M260 -203c12.667 14.667 18.999 28 18.999 40c0 2.66699 -0.333008 5 -1 7s-2 4 -4 6l-4.5 4.5c-1 1 -3 2.5 -6 4.5s-4.83301 3.33301 -5.5 4c-30.667 22 -38 48 -22 78c16 31.333 45.667 40.333 89 27c49.333 -15.333 74 -48.666 74 -99.999
c0 -46.667 -19.333 -85 -58 -115c-15.333 -12 -32.666 -20 -51.999 -24s-34.333 -0.666992 -45 10c-10 15.333 -4.66699 34.666 16 57.999zM63.999 91l0.00292969 507.997c0 26.667 7.83301 48.5 23.5 65.5s37.834 25.5 66.501 25.5s50.834 -8.5 66.501 -25.5
s23.5 -38.833 23.5 -65.5v-214l188 254c19.333 26.667 41 42.667 65 48s47.333 -0.666992 70 -18c19.333 -16.667 28.666 -37.167 27.999 -61.5s-10.334 -48.166 -29.001 -71.499l-146 -179l170 -197c20 -22.667 30.167 -46.5 30.5 -71.5s-9.83398 -46.833 -30.501 -65.5
c-24 -19.333 -47.667 -26.666 -71 -21.999s-45 19.334 -65 44.001l-210 261v-215c0 -26.667 -7.83301 -48.5 -23.5 -65.5s-37.834 -25.5 -66.501 -25.5s-50.834 8.5 -66.501 25.5s-23.5 38.833 -23.5 65.5z" />
    <glyph glyph-name="kcommaaccent" unicode="&#x137;" horiz-adv-x="505" 
d="M210 -203c12.667 14.667 18.999 28 18.999 40c0 2.66699 -0.333008 5 -1 7s-2 4 -4 6l-4.5 4.5c-1 1 -3 2.5 -6 4.5s-4.83301 3.33301 -5.5 4c-30.667 22 -38 48 -22 78c16 31.333 45.667 40.333 89 27c49.333 -15.333 74 -48.666 74 -99.999
c0 -46.667 -19.333 -85 -58 -115c-15.333 -12 -32.666 -20 -51.999 -24s-34.333 -0.666992 -45 10c-10 15.333 -4.66699 34.666 16 57.999zM340.999 48l-125.999 165.999v-129c0 -25.333 -7.16699 -45.833 -21.5 -61.5s-34.833 -23.5 -61.5 -23.5
s-47.167 7.83301 -61.5 23.5s-21.5 36.167 -21.5 61.5v521c0 24 7.16699 44 21.5 60s34.833 24 61.5 24s47.167 -7.83301 61.5 -23.5s21.5 -35.834 21.5 -60.501v-319l124 156c19.333 26.667 41 42 65 46s44.667 -2.33301 62 -19c15.333 -13.333 23.333 -30 24 -50
s-7.66602 -40.667 -24.999 -62l-86 -102l97 -114c17.333 -20.667 25.666 -42.167 24.999 -64.5s-9.33398 -40.5 -26.001 -54.5c-22.667 -19.333 -46 -26.666 -70 -21.999s-45.333 20.334 -64 47.001z" />
    <glyph glyph-name="Lacute" unicode="&#x139;" horiz-adv-x="552" 
d="M297 787l-115 -50.999c-44.667 -20 -74.334 -12.667 -89.001 22c-15.333 34.667 -1.66602 62 41.001 82l115 53c44 19.333 74.333 11.666 91 -23.001c8 -18 8.16699 -34.167 0.5 -48.5s-22.167 -25.833 -43.5 -34.5zM471 0.000976562l-320.001 -0.000976562
c-26.667 0 -47.834 8.66699 -63.501 26s-23.5 39 -23.5 65v508c0 26.667 7.83301 48.5 23.5 65.5s37.834 25.5 66.501 25.5s50.834 -8.5 66.501 -25.5s23.5 -38.833 23.5 -65.5v-439h227c27.333 0 48.666 -7.16699 63.999 -21.5s23 -33.5 23 -57.5
c0 -25.333 -7.66699 -45.166 -23 -59.499s-36.666 -21.5 -63.999 -21.5z" />
    <glyph glyph-name="lacute" unicode="&#x13a;" horiz-adv-x="375" 
d="M49 170v436.001c0 24 7.5 44 22.5 60s35.833 24 62.5 24s47.5 -8 62.5 -24s22.5 -36 22.5 -60v-426c0 -26.667 12.667 -40 38 -40c9.33301 0 26.333 3.33301 51 10c40 12 66.333 1.33301 79 -32c7.33301 -20 6.83301 -39.167 -1.5 -57.5s-22.833 -33.5 -43.5 -45.5
c-28.667 -16.667 -68.667 -25 -120 -25s-93 14.667 -125 44s-48 74.666 -48 135.999zM301 787.001l-115 -50.999c-44.667 -20 -74.334 -12.667 -89.001 22c-15.333 34.667 -1.66602 62 41.001 82l115 53c44 19.333 74.333 11.666 91 -23.001
c8 -18 8.16699 -34.167 0.5 -48.5s-22.167 -25.833 -43.5 -34.5z" />
    <glyph glyph-name="Lcommaaccent" unicode="&#x13b;" horiz-adv-x="552" 
d="M245 -203c12.667 14.667 18.999 28 18.999 40c0 2.66699 -0.333008 5 -1 7s-2 4 -4 6l-4.5 4.5c-1 1 -3 2.5 -6 4.5s-4.83301 3.33301 -5.5 4c-30.667 22 -38 48 -22 78c16 31.333 45.667 40.333 89 27c49.333 -15.333 74 -48.666 74 -99.999
c0 -46.667 -19.333 -85 -58 -115c-15.333 -12 -32.666 -20 -51.999 -24s-34.333 -0.666992 -45 10c-10 15.333 -4.66699 34.666 16 57.999zM470.999 0l-320.001 -0.000976562c-26.667 0 -47.834 8.66699 -63.501 26s-23.5 39 -23.5 65v508c0 26.667 7.83301 48.5 23.5 65.5
s37.834 25.5 66.501 25.5s50.834 -8.5 66.501 -25.5s23.5 -38.833 23.5 -65.5v-439h227c27.333 0 48.666 -7.16699 63.999 -21.5s23 -33.5 23 -57.5c0 -25.333 -7.66699 -45.166 -23 -59.499s-36.666 -21.5 -63.999 -21.5z" />
    <glyph glyph-name="lcommaaccent" unicode="&#x13c;" horiz-adv-x="375" 
d="M147 -70h-3h3zM170 -203c12.667 14.667 18.999 28 18.999 40c0 2.66699 -0.333008 5 -1 7s-2 4 -4 6l-4.5 4.5c-1 1 -3 2.5 -6 4.5s-4.83301 3.33301 -5.5 4c-30.667 22 -38 48 -22 78c16 31.333 45.667 40.333 89 27c49.333 -15.333 74 -48.666 74 -99.999
c0 -46.667 -19.333 -85 -58 -115c-15.333 -12 -32.666 -20 -51.999 -24s-34.333 -0.666992 -45 10c-10 15.333 -4.66699 34.666 16 57.999zM48.999 170v436.001c0 24 7.5 44 22.5 60s35.833 24 62.5 24s47.5 -8 62.5 -24s22.5 -36 22.5 -60v-426
c0 -26.667 12.667 -40 38 -40c9.33301 0 26.333 3.33301 51 10c40 12 66.333 1.33301 79 -32c7.33301 -20 6.83301 -39.167 -1.5 -57.5s-22.833 -33.5 -43.5 -45.5c-28.667 -16.667 -68.667 -25 -120 -25s-93 14.667 -125 44s-48 74.666 -48 135.999z" />
    <glyph glyph-name="Lcaron" unicode="&#x13d;" horiz-adv-x="552" 
d="M370 524c12.667 14.667 18.999 28 18.999 40c0 2.66699 -0.333008 5 -1 7s-2 4 -4 6l-4.5 4.5c-1 1 -3 2.5 -6 4.5s-4.83301 3.33301 -5.5 4c-30.667 22 -38 48 -22 78c16 31.333 45.667 40.333 89 27c49.333 -15.333 74 -48.666 74 -99.999
c0 -46.667 -19.333 -85 -58 -115c-15.333 -12 -32.666 -20 -51.999 -24s-34.333 -0.666992 -45 10c-10 15.333 -4.66699 34.666 16 57.999zM470.999 0l-320.001 -0.000976562c-26.667 0 -47.834 8.66699 -63.501 26s-23.5 39 -23.5 65v508c0 26.667 7.83301 48.5 23.5 65.5
s37.834 25.5 66.501 25.5s50.834 -8.5 66.501 -25.5s23.5 -38.833 23.5 -65.5v-439h227c27.333 0 48.666 -7.16699 63.999 -21.5s23 -33.5 23 -57.5c0 -25.333 -7.66699 -45.166 -23 -59.499s-36.666 -21.5 -63.999 -21.5z" />
    <glyph glyph-name="lcaron" unicode="&#x13e;" horiz-adv-x="401" 
d="M275 524c12.667 14.667 18.999 28 18.999 40c0 2.66699 -0.333008 5 -1 7s-2 4 -4 6l-4.5 4.5c-1 1 -3 2.5 -6 4.5s-4.83301 3.33301 -5.5 4c-30.667 22 -38 48 -22 78c16 31.333 45.667 40.333 89 27c49.333 -15.333 74 -48.666 74 -99.999
c0 -46.667 -19.333 -85 -58 -115c-15.333 -12 -32.666 -20 -51.999 -24s-34.333 -0.666992 -45 10c-10 15.333 -4.66699 34.666 16 57.999zM38.999 170v436.001c0 24 7.5 44 22.5 60s35.833 24 62.5 24s47.5 -8 62.5 -24s22.5 -36 22.5 -60v-426
c0 -26.667 12.667 -40 38 -40c9.33301 0 26.333 3.33301 51 10c40 12 66.333 1.33301 79 -32c7.33301 -20 6.83301 -39.167 -1.5 -57.5s-22.833 -33.5 -43.5 -45.5c-28.667 -16.667 -68.667 -25 -120 -25s-93 14.667 -125 44s-48 74.666 -48 135.999z" />
    <glyph glyph-name="Ldot" unicode="&#x13f;" horiz-adv-x="552" 
d="M471 0l-320.001 -0.000976562c-26.667 0 -47.834 8.66699 -63.501 26s-23.5 39 -23.5 65v508c0 26.667 7.83301 48.5 23.5 65.5s37.834 25.5 66.501 25.5s50.834 -8.5 66.501 -25.5s23.5 -38.833 23.5 -65.5v-439h227c27.333 0 48.666 -7.16699 63.999 -21.5
s23 -33.5 23 -57.5c0 -25.333 -7.66699 -45.166 -23 -59.499s-36.666 -21.5 -63.999 -21.5zM315.999 409.999c0 26.667 8.33301 49.167 25 67.5s40 27.5 70 27.5c29.333 0 52.5 -9.16699 69.5 -27.5s25.5 -40.833 25.5 -67.5c0 -27.333 -8.5 -49.833 -25.5 -67.5
s-40.167 -26.5 -69.5 -26.5c-30 0 -53.333 8.83301 -70 26.5s-25 40.167 -25 67.5z" />
    <glyph glyph-name="ldot" unicode="&#x140;" horiz-adv-x="416" 
d="M244 384c0 28 8.16797 50 24.501 66s38.833 24 67.5 24c28 0 50.5 -8 67.5 -24s25.5 -38 25.5 -66c0 -28.667 -8.33301 -50.667 -25 -66s-39.334 -23 -68.001 -23c-29.333 0 -52 7.66699 -68 23s-24 37.333 -24 66zM39.001 170v436.001c0 24 7.5 44 22.5 60
s35.833 24 62.5 24s47.5 -8 62.5 -24s22.5 -36 22.5 -60v-426c0 -26.667 12.667 -40 38 -40c9.33301 0 26.333 3.33301 51 10c40 12 66.333 1.33301 79 -32c7.33301 -20 6.83301 -39.167 -1.5 -57.5s-22.833 -33.5 -43.5 -45.5c-28.667 -16.667 -68.667 -25 -120 -25
s-93 14.667 -125 44s-48 74.666 -48 135.999z" />
    <glyph glyph-name="Lslash" unicode="&#x141;" horiz-adv-x="561" 
d="M488 0l-319.999 -0.00292969c-26.667 0 -47.834 8.66699 -63.501 26s-23.5 39 -23.5 65v135c-30.667 -11.333 -55.334 -4 -74.001 22c-12 19.333 -15.333 37.833 -10 55.5s16 31.834 32 42.501l52 35v218c0 26.667 7.83301 48.5 23.5 65.5s37.834 25.5 66.501 25.5
s50.834 -8.5 66.501 -25.5s23.5 -38.833 23.5 -65.5v-95l3 2c17.333 13.333 35.666 19.333 54.999 18s34.666 -10.666 45.999 -27.999c11.333 -20 14.333 -38.667 9 -56s-16.666 -32 -33.999 -44l-79 -53v-183h227c27.333 0 48.666 -7.16699 63.999 -21.5s23 -33.5 23 -57.5
c0 -25.333 -7.66699 -45.166 -23 -59.499s-36.666 -21.5 -63.999 -21.5z" />
    <glyph glyph-name="lslash" unicode="&#x142;" horiz-adv-x="386" 
d="M77 170l0.000976562 35.999c-33.333 -14 -59.333 -7 -78 21c-12 19.333 -15.333 37.833 -10 55.5s16 31.834 32 42.501l56 36v245c0 24 7.5 44 22.5 60s35.833 24 62.5 24s47.5 -8 62.5 -24s22.5 -36 22.5 -60v-128l11 8c17.333 13.333 35.666 19.333 54.999 18
s34.666 -10.666 45.999 -27.999c11.333 -20 14.333 -38.667 9 -56s-16.666 -32 -33.999 -44l-87 -57v-139c0 -26.667 12.667 -40 38 -40c9.33301 0 26.333 3.33301 51 10c40 12 66.333 1.33301 79 -32c7.33301 -20 6.83301 -39.167 -1.5 -57.5s-22.833 -33.5 -43.5 -45.5
c-28.667 -16.667 -68.667 -25 -120 -25s-93 14.667 -125 44s-48 74.666 -48 135.999z" />
    <glyph glyph-name="Nacute" unicode="&#x143;" horiz-adv-x="717" 
d="M487 302v297c0 26.667 6.66699 48.5 20 65.5s34.333 25.5 63 25.5c55.333 0 83 -30.333 83 -91v-508c0 -27.333 -7.5 -49.333 -22.5 -66s-35.5 -25 -61.5 -25c-30 0 -56 14.667 -78 44l-261 329v-282c0 -60.667 -28 -91 -84 -91c-54.667 -0 -82 30.333 -82 91v508
c0 60.667 27.333 91 82 91c32.667 0 61 -16 85 -48zM469 787l-115 -50.999c-44.667 -20 -74.334 -12.667 -89.001 22c-15.333 34.667 -1.66602 62 41.001 82l115 53c44 19.333 74.333 11.666 91 -23.001c8 -18 8.16699 -34.167 0.5 -48.5s-22.167 -25.833 -43.5 -34.5z" />
    <glyph glyph-name="nacute" unicode="&#x144;" horiz-adv-x="562" 
d="M343 85v207.999c0 18.667 -4.33301 33.667 -13 45s-20.334 17 -35.001 17c-29.333 0 -49.333 -13.167 -60 -39.5s-16 -62.833 -16 -109.5v-121c0 -25.333 -7.5 -45.833 -22.5 -61.5s-35.833 -23.5 -62.5 -23.5s-47.5 7.83301 -62.5 23.5s-22.5 36.167 -22.5 61.5v321
c0 24.667 7.66699 44.834 23 60.501s36 23.5 62 23.5c36.667 0 62.334 -15 77.001 -45c32.667 36.667 75 55 127 55c61.333 0 105.833 -18.333 133.5 -55s41.5 -90 41.5 -160v-200c0 -25.333 -7.5 -45.833 -22.5 -61.5s-35.833 -23.5 -62.5 -23.5s-47.5 7.83301 -62.5 23.5
s-22.5 36.167 -22.5 61.5zM395 610.999l-89 -56.999c-18.667 -12 -36.667 -17 -54 -15s-30.333 10.667 -39 26c-20 34 -11 63.333 27 88l89 57c40 25.333 70.667 21.666 92 -11.001c10 -12 13.167 -26.5 9.5 -43.5s-15.5 -31.833 -35.5 -44.5z" />
    <glyph glyph-name="Ncommaaccent" unicode="&#x145;" horiz-adv-x="717" 
d="M290 -203c12.667 14.667 18.999 28 18.999 40c0 2.66699 -0.333008 5 -1 7s-2 4 -4 6l-4.5 4.5c-1 1 -3 2.5 -6 4.5s-4.83301 3.33301 -5.5 4c-30.667 22 -38 48 -22 78c16 31.333 45.667 40.333 89 27c49.333 -15.333 74 -48.666 74 -99.999
c0 -46.667 -19.333 -85 -58 -115c-15.333 -12 -32.666 -20 -51.999 -24s-34.333 -0.666992 -45 10c-10 15.333 -4.66699 34.666 16 57.999zM486.999 302v297c0 26.667 6.66699 48.5 20 65.5s34.333 25.5 63 25.5c55.333 0 83 -30.333 83 -91v-508
c0 -27.333 -7.5 -49.333 -22.5 -66s-35.5 -25 -61.5 -25c-30 0 -56 14.667 -78 44l-261 329v-282c0 -60.667 -28 -91 -84 -91c-54.667 -0 -82 30.333 -82 91v508c0 60.667 27.333 91 82 91c32.667 0 61 -16 85 -48z" />
    <glyph glyph-name="ncommaaccent" unicode="&#x146;" horiz-adv-x="562" 
d="M221 -203c12.667 14.667 18.999 28 18.999 40c0 2.66699 -0.333008 5 -1 7s-2 4 -4 6l-4.5 4.5c-1 1 -3 2.5 -6 4.5s-4.83301 3.33301 -5.5 4c-30.667 22 -38 48 -22 78c16 31.333 45.667 40.333 89 27c49.333 -15.333 74 -48.666 74 -99.999
c0 -46.667 -19.333 -85 -58 -115c-15.333 -12 -32.666 -20 -51.999 -24s-34.333 -0.666992 -45 10c-10 15.333 -4.66699 34.666 16 57.999zM342.999 85v207.999c0 18.667 -4.33301 33.667 -13 45s-20.334 17 -35.001 17c-29.333 0 -49.333 -13.167 -60 -39.5
s-16 -62.833 -16 -109.5v-121c0 -25.333 -7.5 -45.833 -22.5 -61.5s-35.833 -23.5 -62.5 -23.5s-47.5 7.83301 -62.5 23.5s-22.5 36.167 -22.5 61.5v321c0 24.667 7.66699 44.834 23 60.501s36 23.5 62 23.5c36.667 0 62.334 -15 77.001 -45c32.667 36.667 75 55 127 55
c61.333 0 105.833 -18.333 133.5 -55s41.5 -90 41.5 -160v-200c0 -25.333 -7.5 -45.833 -22.5 -61.5s-35.833 -23.5 -62.5 -23.5s-47.5 7.83301 -62.5 23.5s-22.5 36.167 -22.5 61.5z" />
    <glyph glyph-name="Ncaron" unicode="&#x147;" horiz-adv-x="717" 
d="M487 302v297c0 26.667 6.66699 48.5 20 65.5s34.333 25.5 63 25.5c55.333 0 83 -30.333 83 -91v-508c0 -27.333 -7.5 -49.333 -22.5 -66s-35.5 -25 -61.5 -25c-30 0 -56 14.667 -78 44l-261 329v-282c0 -60.667 -28 -91 -84 -91c-54.667 -0 -82 30.333 -82 91v508
c0 60.667 27.333 91 82 91c32.667 0 61 -16 85 -48zM494 768l-96 -52.002c-23.333 -12 -47.333 -12 -72 0l-99 50c-44.667 22 -58.667 50.333 -42 85s45.667 40.334 87 17.001l89 -48l91 48c20.667 10.667 38.5 14.334 53.5 11.001s26.167 -12.333 33.5 -27
c15.333 -32.667 0.333008 -60.667 -45 -84z" />
    <glyph glyph-name="ncaron" unicode="&#x148;" horiz-adv-x="562" 
d="M417 613l-94 -68.002c-28.667 -21.333 -58 -22 -88 -2l-94 64c-18 12.667 -29 26.667 -33 42s-0.666992 29.333 10 42c22 28.667 51 30 87 4l75 -54l77 54c19.333 12.667 35.833 18.334 49.5 17.001s24.5 -7.66602 32.5 -18.999c19.333 -28 12 -54.667 -22 -80z
M343 84.998v207.999c0 18.667 -4.33301 33.667 -13 45s-20.334 17 -35.001 17c-29.333 0 -49.333 -13.167 -60 -39.5s-16 -62.833 -16 -109.5v-121c0 -25.333 -7.5 -45.833 -22.5 -61.5s-35.833 -23.5 -62.5 -23.5s-47.5 7.83301 -62.5 23.5s-22.5 36.167 -22.5 61.5v321
c0 24.667 7.66699 44.834 23 60.501s36 23.5 62 23.5c36.667 0 62.334 -15 77.001 -45c32.667 36.667 75 55 127 55c61.333 0 105.833 -18.333 133.5 -55s41.5 -90 41.5 -160v-200c0 -25.333 -7.5 -45.833 -22.5 -61.5s-35.833 -23.5 -62.5 -23.5s-47.5 7.83301 -62.5 23.5
s-22.5 36.167 -22.5 61.5z" />
    <glyph glyph-name="Omacron" unicode="&#x14c;" horiz-adv-x="744" 
d="M30 345c0 104 29.5 189.167 88.5 255.5s142.167 99.5 249.5 99.5s190.5 -33.167 249.5 -99.5s88.5 -151.5 88.5 -255.5s-29.5 -189.167 -88.5 -255.5s-142.167 -99.5 -249.5 -99.5s-190.5 33.167 -249.5 99.5s-88.5 151.5 -88.5 255.5zM220 345
c0 -58 12.333 -105 37 -141s61.667 -54 111 -54s86.333 18 111 54s37 83 37 141s-12.333 105 -37 141s-61.667 54 -111 54s-86.333 -18 -111 -54s-37 -83 -37 -141zM481 720h-219c-46.667 0 -70 18 -70 54c0 18.667 5.5 32.334 16.5 41.001s28.833 13 53.5 13h219
c24.667 0 42.5 -4.33301 53.5 -13s16.5 -22.334 16.5 -41.001c0 -36 -23.333 -54 -70 -54z" />
    <glyph glyph-name="omacron" unicode="&#x14d;" horiz-adv-x="538" 
d="M24 245c0 76.667 21.833 138.333 65.5 185s103.5 70 179.5 70s135.833 -23.5 179.5 -70.5s65.5 -108.5 65.5 -184.5c0 -76.667 -21.833 -138.334 -65.5 -185.001s-103.5 -70 -179.5 -70s-135.833 23.333 -179.5 70s-65.5 108.334 -65.5 185.001zM199 244.999
c0 -32 5.66699 -59.167 17 -81.5s29 -33.5 53 -33.5c46.667 0 70 38.333 70 115s-23.333 115 -70 115s-70 -38.333 -70 -115zM370 544.999h-202c-46.667 0 -70 18.333 -70 55s23.333 55 70 55h202c46.667 0 70 -18.333 70 -55s-23.333 -55 -70 -55z" />
    <glyph glyph-name="Obreve" unicode="&#x14e;" horiz-adv-x="744" 
d="M30 345c0 104 29.5 189.167 88.5 255.5s142.167 99.5 249.5 99.5s190.5 -33.167 249.5 -99.5s88.5 -151.5 88.5 -255.5s-29.5 -189.167 -88.5 -255.5s-142.167 -99.5 -249.5 -99.5s-190.5 33.167 -249.5 99.5s-88.5 151.5 -88.5 255.5zM220 345
c0 -58 12.333 -105 37 -141s61.667 -54 111 -54s86.333 18 111 54s37 83 37 141s-12.333 105 -37 141s-61.667 54 -111 54s-86.333 -18 -111 -54s-37 -83 -37 -141zM372 717c-34.667 0 -66.833 5.49902 -96.5 16.499s-52.5 25.5 -68.5 43.5c-10.667 12 -16 25.833 -16 41.5
s5.33301 28.834 16 39.501c23.333 23.333 53.333 19.666 90 -11.001c22.667 -18.667 47.667 -28 75 -28c26.667 0 51.667 9.33301 75 28c11.333 8.66699 21 15.167 29 19.5s17.667 6.33301 29 6s22 -5.16602 32 -14.499c11.333 -10.667 16.833 -23.667 16.5 -39
s-5.83301 -29.333 -16.5 -42c-34.667 -40 -89.667 -60 -165 -60z" />
    <glyph glyph-name="obreve" unicode="&#x14f;" horiz-adv-x="538" 
d="M24 245c0 76.667 21.833 138.333 65.5 185s103.5 70 179.5 70s135.833 -23.5 179.5 -70.5s65.5 -108.5 65.5 -184.5c0 -76.667 -21.833 -138.334 -65.5 -185.001s-103.5 -70 -179.5 -70s-135.833 23.333 -179.5 70s-65.5 108.334 -65.5 185.001zM199 244.999
c0 -32 5.66699 -59.167 17 -81.5s29 -33.5 53 -33.5c46.667 0 70 38.333 70 115s-23.333 115 -70 115s-70 -38.333 -70 -115zM268 537.999c-73.333 0 -124.335 19.667 -153.002 59c-10 13.333 -14.5 28 -13.5 44s7.5 28.667 19.5 38
c24.667 18.667 53.334 13.334 86.001 -15.999c18 -16 38.333 -24 61 -24s43 8 61 24c32.667 29.333 61.334 34.666 86.001 15.999c12 -9.33301 18.5 -22 19.5 -38s-3.5 -30.667 -13.5 -44c-28.667 -39.333 -79.667 -59 -153 -59z" />
    <glyph glyph-name="Ohungarumlaut" unicode="&#x150;" horiz-adv-x="744" 
d="M385 793l-105.999 -56.999c-40 -22.667 -69.667 -17.334 -89 15.999c-16.667 32 -5.33398 59.333 33.999 82l107 59c42 24 72.333 19.333 91 -14c8.66699 -18 9.5 -34.167 2.5 -48.5s-20.167 -26.833 -39.5 -37.5zM628.001 793.001l-107 -58c-40.667 -22 -70 -17 -88 15
c-16.667 34 -5.33398 61.333 33.999 82l106 59c42.667 25.333 73.334 21 92.001 -13c8.66699 -18 9.5 -34.167 2.5 -48.5s-20.167 -26.5 -39.5 -36.5zM30.001 345.001c0 104 29.5 189.167 88.5 255.5s142.167 99.5 249.5 99.5s190.5 -33.167 249.5 -99.5
s88.5 -151.5 88.5 -255.5s-29.5 -189.167 -88.5 -255.5s-142.167 -99.5 -249.5 -99.5s-190.5 33.167 -249.5 99.5s-88.5 151.5 -88.5 255.5zM220.001 345.001c0 -58 12.333 -105 37 -141s61.667 -54 111 -54s86.333 18 111 54s37 83 37 141s-12.333 105 -37 141
s-61.667 54 -111 54s-86.333 -18 -111 -54s-37 -83 -37 -141z" />
    <glyph glyph-name="ohungarumlaut" unicode="&#x151;" horiz-adv-x="538" 
d="M290 635l-74 -61c-32 -26.667 -59.333 -27 -82 -1c-10.667 12 -14.667 25.167 -12 39.5s12 27.833 28 40.5l74 61c32.667 26 59.667 25.667 81 -1c20.667 -26 15.667 -52 -15 -78zM474 635l-74 -61c-32 -26.667 -59.333 -27 -82 -1c-10.667 12 -14.667 25.167 -12 39.5
s12 27.833 28 40.5l74 61c32.667 26 59.667 25.667 81 -1c20.667 -26 15.667 -52 -15 -78zM24 245c0 76.667 21.833 138.333 65.5 185s103.5 70 179.5 70s135.833 -23.5 179.5 -70.5s65.5 -108.5 65.5 -184.5c0 -76.667 -21.833 -138.334 -65.5 -185.001
s-103.5 -70 -179.5 -70s-135.833 23.333 -179.5 70s-65.5 108.334 -65.5 185.001zM199 244.999c0 -32 5.66699 -59.167 17 -81.5s29 -33.5 53 -33.5c46.667 0 70 38.333 70 115s-23.333 115 -70 115s-70 -38.333 -70 -115z" />
    <glyph glyph-name="OE" unicode="&#x152;" horiz-adv-x="957" 
d="M540 0c-21.333 0 -38.667 4.33301 -52 13c-36 -15.333 -75.333 -23 -118 -23c-107.333 0 -190.166 32.833 -248.499 98.5s-87.5 151.167 -87.5 256.5s29.167 190.833 87.5 256.5s141.166 98.5 248.499 98.5c42 0 81.667 -7.66699 119 -23c15.333 8.66699 32.333 13 51 13
h311c27.333 0 48.833 -7 64.5 -21s23.5 -33.667 23.5 -59c0 -24 -7.83301 -43.333 -23.5 -58s-37.167 -22 -64.5 -22h-221v-100h170c27.333 0 48.833 -7 64.5 -21s23.5 -33.667 23.5 -59c0 -24 -7.83301 -43.333 -23.5 -58s-37.167 -22 -64.5 -22h-170v-110h230
c27.333 0 48.833 -7 64.5 -21s23.5 -33.667 23.5 -59c0 -24 -7.83301 -43.333 -23.5 -58s-37.167 -22 -64.5 -22h-320zM369.999 150c32 0 58.667 5.66895 80 17.002v358c-24 10 -50.667 15 -80 15c-49.333 0 -86 -17.833 -110 -53.5s-36 -82.834 -36 -141.501
s12 -105.834 36 -141.501s60.667 -53.5 110 -53.5z" />
    <glyph glyph-name="oe" unicode="&#x153;" horiz-adv-x="799" 
d="M694 197l-208 -0.00292969c2.66699 -24.667 11.667 -43.667 27 -57s35.333 -20 60 -20c9.33301 0 18.666 0.833008 27.999 2.5s16.666 3.33398 21.999 5.00098s12.5 4.16699 21.5 7.5s15.167 5.33301 18.5 6c40.667 13.333 68 7.33301 82 -18
c8.66699 -13.333 10.834 -29.333 6.50098 -48s-15.833 -34 -34.5 -46c-41.333 -26 -94 -39 -158 -39c-63.333 0 -115.333 15.667 -156 47c-40 -31.333 -86.667 -47 -140 -47c-76 0 -134.833 23.333 -176.5 70s-62.5 108.334 -62.5 185.001s21 138.334 63 185.001
s101 70 177 70c54.667 0 102.334 -16 143.001 -48c41.333 32 91.666 48 150.999 48c66.667 0 120.334 -18.333 161.001 -55s61 -87.667 61 -153c0 -13.333 -1.33301 -26 -4 -38c-8.66699 -38 -36 -57 -82 -57zM272 129.997c21.333 0 40.667 6.66699 58 20
c-8 28 -12 59.333 -12 94c0 34 4.33301 65.667 13 95c-14 14 -33.667 21 -59 21c-48.667 0 -73 -38.333 -73 -115c0 -34.667 6.16699 -62.5 18.5 -83.5s30.5 -31.5 54.5 -31.5zM563.001 369.997c-22 0 -39.832 -7.16797 -53.499 -21.501s-21.834 -34.833 -24.501 -61.5h138
c1.33301 8 2 15.667 2 23c0 16.667 -5.66699 30.834 -17 42.501s-26.333 17.5 -45 17.5z" />
    <glyph glyph-name="Racute" unicode="&#x154;" horiz-adv-x="634" 
d="M63 586l0.000976562 -495.001c0 -26.667 7.83301 -48.5 23.5 -65.5s37.834 -25.5 66.501 -25.5s50.834 8.5 66.501 25.5s23.5 38.833 23.5 65.5v172c17.333 -1.33301 36.666 -2 57.999 -2l117 -210c14 -25.333 34.833 -41.166 62.5 -47.499s52.167 -2.16602 73.5 12.501
c19.333 13.333 30.666 32.666 33.999 57.999s-2.33398 49.333 -17.001 72l-98 145c73.333 36.667 110 99 110 187c0 73.333 -24.667 127.833 -74 163.5s-116 53.5 -200 53.5c-68 0 -123 -3.33301 -165 -10c-54 -8 -81 -41 -81 -99zM295.001 385.999
c-25.333 0 -42.668 0.333008 -52.001 1v144c12.667 2.66699 30.334 4 53.001 4c64.667 0 97 -23.667 97 -71c0 -52 -32.667 -78 -98 -78zM423.999 786.999l-115 -50.999c-44.667 -20 -74.334 -12.667 -89.001 22c-15.333 34.667 -1.66602 62 41.001 82l115 53
c44 19.333 74.333 11.666 91 -23.001c8 -18 8.16699 -34.167 0.5 -48.5s-22.167 -25.833 -43.5 -34.5z" />
    <glyph glyph-name="racute" unicode="&#x155;" horiz-adv-x="396" 
d="M219 85v141.999c0 56 5 91 15 105c8 11.333 19.333 17 34 17c12 0 27.333 -2.66699 46 -8c46.667 -13.333 77 -1 91 37c7.33301 16.667 7.83301 35 1.5 55s-19.166 36.333 -38.499 49c-18.667 12 -44.334 18 -77.001 18c-15.333 0 -31.833 -3.33301 -49.5 -10
s-31.5 -16 -41.5 -28c-17.333 18.667 -39.333 28 -66 28c-26 0 -46.667 -7.66699 -62 -23s-23 -35.666 -23 -60.999v-321c0 -25.333 7.5 -45.833 22.5 -61.5s35.833 -23.5 62.5 -23.5s47.5 7.83301 62.5 23.5s22.5 36.167 22.5 61.5zM357 610.999l-89 -56.999
c-18.667 -12 -36.667 -17 -54 -15s-30.333 10.667 -39 26c-20 34 -11 63.333 27 88l89 57c40 25.333 70.667 21.666 92 -11.001c10 -12 13.167 -26.5 9.5 -43.5s-15.5 -31.833 -35.5 -44.5z" />
    <glyph glyph-name="Rcommaaccent" unicode="&#x156;" horiz-adv-x="634" 
d="M270 -203c12.667 14.667 18.999 28 18.999 40c0 2.66699 -0.333008 5 -1 7s-2 4 -4 6l-4.5 4.5c-1 1 -3 2.5 -6 4.5s-4.83301 3.33301 -5.5 4c-30.667 22 -38 48 -22 78c16 31.333 45.667 40.333 89 27c49.333 -15.333 74 -48.666 74 -99.999
c0 -46.667 -19.333 -85 -58 -115c-15.333 -12 -32.666 -20 -51.999 -24s-34.333 -0.666992 -45 10c-10 15.333 -4.66699 34.666 16 57.999zM62.999 91l-0.000976562 495.001c0 58 27 91 81 99c42 6.66699 97 10 165 10c84 0 150.667 -17.833 200 -53.5s74 -90.167 74 -163.5
c0 -88 -36.667 -150.333 -110 -187l98 -145c14.667 -22.667 20.334 -46.667 17.001 -72s-14.666 -44.666 -33.999 -57.999c-21.333 -14.667 -45.833 -18.834 -73.5 -12.501s-48.5 22.166 -62.5 47.499l-117 210c-21.333 0 -40.666 0.666992 -57.999 2v-172
c0 -26.667 -7.83301 -48.5 -23.5 -65.5s-37.834 -25.5 -66.501 -25.5s-50.834 8.5 -66.501 25.5s-23.5 38.833 -23.5 65.5zM294.998 386.001c65.333 0 98.002 26 98.002 78c0 47.333 -32.333 71 -97 71c-22.667 0 -40.334 -1.33301 -53.001 -4v-144
c9.33301 -0.666992 26.666 -1 51.999 -1z" />
    <glyph glyph-name="rcommaaccent" unicode="&#x157;" horiz-adv-x="396" 
d="M97 -203c12.667 14.667 18.999 28 18.999 40c0 2.66699 -0.333008 5 -1 7s-2 4 -4 6l-4.5 4.5c-1 1 -3 2.5 -6 4.5s-4.83301 3.33301 -5.5 4c-30.667 22 -38 48 -22 78c16 31.333 45.667 40.333 89 27c49.333 -15.333 74 -48.666 74 -99.999
c0 -46.667 -19.333 -85 -58 -115c-15.333 -12 -32.666 -20 -51.999 -24s-34.333 -0.666992 -45 10c-10 15.333 -4.66699 34.666 16 57.999zM225.999 227v-141.999c0 -25.333 -7.5 -45.833 -22.5 -61.5s-35.833 -23.5 -62.5 -23.5s-47.5 7.83301 -62.5 23.5
s-22.5 36.167 -22.5 61.5v321c0 25.333 7.66699 45.666 23 60.999s36 23 62 23c26.667 0 48.667 -9.33301 66 -28c10 12 23.833 21.333 41.5 28s34.167 10 49.5 10c32.667 0 58.334 -6 77.001 -18c19.333 -12.667 32.166 -29 38.499 -49s5.83301 -38.333 -1.5 -55
c-14 -38 -44.333 -50.333 -91 -37c-18.667 5.33301 -34 8 -46 8c-14.667 0 -26 -5.66699 -34 -17c-10 -14 -15 -49 -15 -105z" />
    <glyph glyph-name="Rcaron" unicode="&#x158;" horiz-adv-x="634" 
d="M63 586l0.000976562 -495.001c0 -26.667 7.83301 -48.5 23.5 -65.5s37.834 -25.5 66.501 -25.5s50.834 8.5 66.501 25.5s23.5 38.833 23.5 65.5v172c17.333 -1.33301 36.666 -2 57.999 -2l117 -210c14 -25.333 34.833 -41.166 62.5 -47.499s52.167 -2.16602 73.5 12.501
c19.333 13.333 30.666 32.666 33.999 57.999s-2.33398 49.333 -17.001 72l-98 145c73.333 36.667 110 99 110 187c0 73.333 -24.667 127.833 -74 163.5s-116 53.5 -200 53.5c-68 0 -123 -3.33301 -165 -10c-54 -8 -81 -41 -81 -99zM295.001 385.999
c-25.333 0 -42.668 0.333008 -52.001 1v144c12.667 2.66699 30.334 4 53.001 4c64.667 0 97 -23.667 97 -71c0 -52 -32.667 -78 -98 -78zM437.999 767.999l-96 -52.002c-23.333 -12 -47.333 -12 -72 0l-99 50c-44.667 22 -58.667 50.333 -42 85s45.667 40.334 87 17.001
l89 -48l91 48c20.667 10.667 38.5 14.334 53.5 11.001s26.167 -12.333 33.5 -27c15.333 -32.667 0.333008 -60.667 -45 -84z" />
    <glyph glyph-name="rcaron" unicode="&#x159;" horiz-adv-x="396" 
d="M219 85v141.999c0 56 5 91 15 105c8 11.333 19.333 17 34 17c12 0 27.333 -2.66699 46 -8c46.667 -13.333 77 -1 91 37c7.33301 16.667 7.83301 35 1.5 55s-19.166 36.333 -38.499 49c-18.667 12 -44.334 18 -77.001 18c-15.333 0 -31.833 -3.33301 -49.5 -10
s-31.5 -16 -41.5 -28c-17.333 18.667 -39.333 28 -66 28c-26 0 -46.667 -7.66699 -62 -23s-23 -35.666 -23 -60.999v-321c0 -25.333 7.5 -45.833 22.5 -61.5s35.833 -23.5 62.5 -23.5s47.5 7.83301 62.5 23.5s22.5 36.167 22.5 61.5zM366 612.999l-94 -68.002
c-28.667 -21.333 -58 -22 -88 -2l-94 64c-18 12.667 -29 26.667 -33 42s-0.666992 29.333 10 42c22 28.667 51 30 87 4l75 -54l77 54c19.333 12.667 35.833 18.334 49.5 17.001s24.5 -7.66602 32.5 -18.999c19.333 -28 12 -54.667 -22 -80z" />
    <glyph glyph-name="Sacute" unicode="&#x15a;" horiz-adv-x="561" 
d="M278 535c-34 0 -51.001 -10.6641 -51.001 -31.9971c0 -12.667 8 -24.334 24 -35.001s36 -19.834 60 -27.501s50 -17.834 78 -30.501s54 -26.667 78 -42s44 -36.666 60 -63.999s24 -59 24 -95c0 -68 -21.167 -121.5 -63.5 -160.5s-107.5 -58.5 -195.5 -58.5
c-78.667 0 -143.667 14.333 -195 43c-28 15.333 -46.667 35 -56 59s-8.66602 46.667 2.00098 68c18 40.667 53.667 51.334 107 32.001c4.66699 -1.33301 13.167 -4.33301 25.5 -9s21 -7.83398 26 -9.50098s12.667 -4 23 -7s18.833 -5.16699 25.5 -6.5
s14.834 -2.5 24.501 -3.5s19.167 -1.5 28.5 -1.5c45.333 0 68 13.667 68 41c0 11.333 -6 21.666 -18 30.999s-27.5 17.833 -46.5 25.5s-40.167 15.667 -63.5 24s-46.5 18.5 -69.5 30.5s-44 26 -63 42s-34.5 36.667 -46.5 62s-18 54 -18 86c0 63.333 21.5 113 64.5 149
s102.833 54 179.5 54c73.333 0 135 -14.667 185 -44c23.333 -14 39 -32 47 -54s7.33301 -42.333 -2 -61c-18.667 -42 -61.667 -51.667 -129 -29c-44.667 15.333 -82.334 23 -113.001 23zM417.999 787.003l-115 -50.999c-44.667 -20 -74.334 -12.667 -89.001 22
c-15.333 34.667 -1.66602 62 41.001 82l115 53c44 19.333 74.333 11.666 91 -23.001c8 -18 8.16699 -34.167 0.5 -48.5s-22.167 -25.833 -43.5 -34.5z" />
    <glyph glyph-name="sacute" unicode="&#x15b;" horiz-adv-x="441" 
d="M249 500c60.667 0 108.668 -11.333 144.001 -34c37.333 -23.333 50.333 -51.666 39 -84.999c-12.667 -35.333 -42 -46.333 -88 -33l-24 8c-14 4.66699 -26.167 8.16699 -36.5 10.5s-19.5 3.5 -27.5 3.5c-18 0 -27 -6.66699 -27 -20c0 -7.33301 5.5 -14.333 16.5 -21
s24.667 -12.5 41 -17.5s34 -11.833 53 -20.5s36.667 -18.167 53 -28.5s30 -25 41 -44s16.5 -40.5 16.5 -64.5c0 -50.667 -16.833 -90.667 -50.5 -120s-85.834 -44 -156.501 -44c-66 0 -118 12.667 -156 38c-40.667 28 -52 60.333 -34 97c17.333 34.667 51.666 41 102.999 19
c36.667 -16 67.667 -24 93 -24c20.667 0 31 7.66699 31 23c0 8.66699 -7.66699 17 -23 25s-33.833 16 -55.5 24s-43.167 17.667 -64.5 29s-39.666 27.666 -54.999 48.999s-23 46.333 -23 75c0 50.667 17.333 89.167 52 115.5s80.667 39.5 138 39.5zM387.001 611l-89 -56.999
c-18.667 -12 -36.667 -17 -54 -15s-30.333 10.667 -39 26c-20 34 -11 63.333 27 88l89 57c40 25.333 70.667 21.666 92 -11.001c10 -12 13.167 -26.5 9.5 -43.5s-15.5 -31.833 -35.5 -44.5z" />
    <glyph glyph-name="Scircumflex" unicode="&#x15c;" horiz-adv-x="561" 
d="M278 535c-34 0 -51.001 -10.6641 -51.001 -31.9971c0 -12.667 8 -24.334 24 -35.001s36 -19.834 60 -27.501s50 -17.834 78 -30.501s54 -26.667 78 -42s44 -36.666 60 -63.999s24 -59 24 -95c0 -68 -21.167 -121.5 -63.5 -160.5s-107.5 -58.5 -195.5 -58.5
c-78.667 0 -143.667 14.333 -195 43c-28 15.333 -46.667 35 -56 59s-8.66602 46.667 2.00098 68c18 40.667 53.667 51.334 107 32.001c4.66699 -1.33301 13.167 -4.33301 25.5 -9s21 -7.83398 26 -9.50098s12.667 -4 23 -7s18.833 -5.16699 25.5 -6.5
s14.834 -2.5 24.501 -3.5s19.167 -1.5 28.5 -1.5c45.333 0 68 13.667 68 41c0 11.333 -6 21.666 -18 30.999s-27.5 17.833 -46.5 25.5s-40.167 15.667 -63.5 24s-46.5 18.5 -69.5 30.5s-44 26 -63 42s-34.5 36.667 -46.5 62s-18 54 -18 86c0 63.333 21.5 113 64.5 149
s102.833 54 179.5 54c73.333 0 135 -14.667 185 -44c23.333 -14 39 -32 47 -54s7.33301 -42.333 -2 -61c-18.667 -42 -61.667 -51.667 -129 -29c-44.667 15.333 -82.334 23 -113.001 23zM151.999 830.003l96 52c23.333 12 47.333 12 72 0l99 -50c44.667 -22 59 -50 43 -84
c-8 -16.667 -20.167 -26.5 -36.5 -29.5s-33.5 0.833008 -51.5 11.5l-89 48l-91 -48c-20.667 -10.667 -39 -14 -55 -10s-27 13.667 -33 29c-13.333 31.333 2 58.333 46 81z" />
    <glyph glyph-name="scircumflex" unicode="&#x15d;" horiz-adv-x="441" 
d="M249 500c60.667 0 108.668 -11.333 144.001 -34c37.333 -23.333 50.333 -51.666 39 -84.999c-12.667 -35.333 -42 -46.333 -88 -33l-24 8c-14 4.66699 -26.167 8.16699 -36.5 10.5s-19.5 3.5 -27.5 3.5c-18 0 -27 -6.66699 -27 -20c0 -7.33301 5.5 -14.333 16.5 -21
s24.667 -12.5 41 -17.5s34 -11.833 53 -20.5s36.667 -18.167 53 -28.5s30 -25 41 -44s16.5 -40.5 16.5 -64.5c0 -50.667 -16.833 -90.667 -50.5 -120s-85.834 -44 -156.501 -44c-66 0 -118 12.667 -156 38c-40.667 28 -52 60.333 -34 97c17.333 34.667 51.666 41 102.999 19
c36.667 -16 67.667 -24 93 -24c20.667 0 31 7.66699 31 23c0 8.66699 -7.66699 17 -23 25s-33.833 16 -55.5 24s-43.167 17.667 -64.5 29s-39.666 27.666 -54.999 48.999s-23 46.333 -23 75c0 50.667 17.333 89.167 52 115.5s80.667 39.5 138 39.5zM124.001 633l94 68.001
c28.667 21.333 58 22 88 2l94 -64c18 -12.667 28.833 -26.667 32.5 -42s0.5 -29.333 -9.5 -42c-12 -14.667 -25.5 -22 -40.5 -22s-30.5 6 -46.5 18l-77 54l-75 -54c-19.333 -12.667 -36 -18.334 -50 -17.001s-24.667 7.66602 -32 18.999
c-20 28.667 -12.667 55.334 22 80.001z" />
    <glyph glyph-name="Scedilla" unicode="&#x15e;" horiz-adv-x="561" 
d="M197 -157c20.667 -6 36.9971 -8.99805 48.9971 -8.99805c25.333 0 38 11.333 38 34c0 15.333 -14.333 26 -43 32c-22 5.33301 -30 20.333 -24 45l10 49c-52.667 6.66699 -96 19.667 -130 39c-28 15.333 -46.667 35 -56 59s-8.66602 46.667 2.00098 68
c18 40.667 53.667 51.334 107 32.001c4.66699 -1.33301 13.167 -4.33301 25.5 -9s21 -7.83398 26 -9.50098s12.667 -4 23 -7s18.833 -5.16699 25.5 -6.5s14.834 -2.5 24.501 -3.5s19.167 -1.5 28.5 -1.5c45.333 0 68 13.667 68 41c0 11.333 -6 21.666 -18 30.999
s-27.5 17.833 -46.5 25.5s-40.167 15.667 -63.5 24s-46.5 18.5 -69.5 30.5s-44 26 -63 42s-34.5 36.667 -46.5 62s-18 54 -18 86c0 63.333 21.5 113 64.5 149s102.833 54 179.5 54c73.333 0 135 -14.667 185 -44c23.333 -14 39 -32 47 -54s7.33301 -42.333 -2 -61
c-18.667 -42 -61.667 -51.667 -129 -29c-44.667 15.333 -82.334 23 -113.001 23c-34 0 -51 -10.667 -51 -32c0 -12.667 8 -24.334 24 -35.001s36 -19.834 60 -27.501s50 -17.834 78 -30.501s54 -26.667 78 -42s44 -36.666 60 -63.999s24 -59 24 -95
c0 -64 -18.667 -115.167 -56 -153.5s-94.666 -59.833 -171.999 -64.5c0 -0.666992 -0.166992 -1.66699 -0.5 -3s-0.5 -2.66602 -0.5 -3.99902l-7 -30c40 0.666992 68.833 -8 86.5 -26s26.5 -40 26.5 -66c0 -27.333 -10.833 -51 -32.5 -71s-57.167 -30 -106.5 -30
c-45.333 0 -81 5.66699 -107 17c-12 5.33301 -20.167 12.5 -24.5 21.5s-4.16602 19.167 0.500977 30.5c6.66699 14.667 19.667 19 39 13z" />
    <glyph glyph-name="scedilla" unicode="&#x15f;" horiz-adv-x="441" 
d="M156 -157c20.667 -6 36.9971 -8.99902 48.9971 -8.99902c25.333 0 38 11.333 38 34c0 15.333 -14.333 26 -43 32c-22 5.33301 -30 20.333 -24 45l11 50c-43.333 6 -76.666 17 -99.999 33c-40.667 28 -52 60.333 -34 97c17.333 34.667 51.666 41 102.999 19
c36.667 -16 67.667 -24 93 -24c20.667 0 31 7.66699 31 23c0 8.66699 -7.66699 17 -23 25s-33.833 16 -55.5 24s-43.167 17.667 -64.5 29s-39.666 27.666 -54.999 48.999s-23 46.333 -23 75c0 50.667 17.333 89.167 52 115.5s80.667 39.5 138 39.5
c60.667 0 108.667 -11.333 144 -34c37.333 -23.333 50.333 -51.666 39 -84.999c-12.667 -35.333 -42 -46.333 -88 -33l-24 8c-14 4.66699 -26.167 8.16699 -36.5 10.5s-19.5 3.5 -27.5 3.5c-18 0 -27 -6.66699 -27 -20c0 -7.33301 5.5 -14.333 16.5 -21
s24.667 -12.5 41 -17.5s34 -11.833 53 -20.5s36.667 -18.167 53 -28.5s30 -25 41 -44s16.5 -40.5 16.5 -64.5c0 -45.333 -13.667 -82.333 -41 -111s-69.666 -45.667 -126.999 -51c0 -1.33301 -0.166992 -2.83301 -0.5 -4.5s-0.5 -2.83398 -0.5 -3.50098l-7 -30
c40 0.666992 68.833 -8 86.5 -26s26.5 -40 26.5 -66c0 -27.333 -10.833 -51 -32.5 -71s-57.167 -30 -106.5 -30c-45.333 0 -81 5.66699 -107 17c-12 5.33301 -20.167 12.5 -24.5 21.5s-4.16602 19.167 0.500977 30.5c6.66699 14.667 19.667 19 39 13z" />
    <glyph glyph-name="Scaron" unicode="&#x160;" horiz-adv-x="561" 
d="M278 535c-34 0 -51.001 -10.6641 -51.001 -31.9971c0 -12.667 8 -24.334 24 -35.001s36 -19.834 60 -27.501s50 -17.834 78 -30.501s54 -26.667 78 -42s44 -36.666 60 -63.999s24 -59 24 -95c0 -68 -21.167 -121.5 -63.5 -160.5s-107.5 -58.5 -195.5 -58.5
c-78.667 0 -143.667 14.333 -195 43c-28 15.333 -46.667 35 -56 59s-8.66602 46.667 2.00098 68c18 40.667 53.667 51.334 107 32.001c4.66699 -1.33301 13.167 -4.33301 25.5 -9s21 -7.83398 26 -9.50098s12.667 -4 23 -7s18.833 -5.16699 25.5 -6.5
s14.834 -2.5 24.501 -3.5s19.167 -1.5 28.5 -1.5c45.333 0 68 13.667 68 41c0 11.333 -6 21.666 -18 30.999s-27.5 17.833 -46.5 25.5s-40.167 15.667 -63.5 24s-46.5 18.5 -69.5 30.5s-44 26 -63 42s-34.5 36.667 -46.5 62s-18 54 -18 86c0 63.333 21.5 113 64.5 149
s102.833 54 179.5 54c73.333 0 135 -14.667 185 -44c23.333 -14 39 -32 47 -54s7.33301 -42.333 -2 -61c-18.667 -42 -61.667 -51.667 -129 -29c-44.667 15.333 -82.334 23 -113.001 23zM430.999 768.003l-96 -52.002c-23.333 -12 -47.333 -12 -72 0l-99 50
c-44.667 22 -58.667 50.333 -42 85s45.667 40.334 87 17.001l89 -48l91 48c20.667 10.667 38.5 14.334 53.5 11.001s26.167 -12.333 33.5 -27c15.333 -32.667 0.333008 -60.667 -45 -84z" />
    </font>
</defs>
</svg>
